<svg xmlns="http://www.w3.org/2000/svg" viewBox="0 0 50 50" id="Bilibili-Logo--Streamline-Ultimate" height="50" width="50"><desc>Bilibili Logo Streamline Icon: https://streamlinehq.com</desc><g id="Bilibili-Logo--Streamline-Ultimate.svg"><path d="M40.625 7.291666666666667h-4.958333333333333l1.9583333333333333 -1.9583333333333333a3.104166666666667 3.104166666666667 0 0 0 0 -4.416666666666667 3.1458333333333335 3.1458333333333335 0 0 0 -4.416666666666667 0L26.833333333333336 7.291666666666667h-3.666666666666667L16.791666666666668 0.9166666666666667a3.1458333333333335 3.1458333333333335 0 0 0 -4.416666666666667 0 3.104166666666667 3.104166666666667 0 0 0 0 4.416666666666667l1.9583333333333333 1.9583333333333333H9.375A9.395833333333334 9.395833333333334 0 0 0 0 16.666666666666668v20.833333333333336a9.395833333333334 9.395833333333334 0 0 0 9.375 9.375H10.416666666666668a3.6458333333333335 3.6458333333333335 0 0 0 7.208333333333334 0h14.583333333333334a3.6458333333333335 3.6458333333333335 0 0 0 7.208333333333334 0h1.0833333333333335A9.395833333333334 9.395833333333334 0 0 0 50 37.5V16.666666666666668a9.395833333333334 9.395833333333334 0 0 0 -9.375 -9.375ZM43.75 37.5a3.125 3.125 0 0 1 -3.125 3.125h-31.250000000000004A3.125 3.125 0 0 1 6.25 37.5V16.666666666666668a3.125 3.125 0 0 1 3.125 -3.125h31.250000000000004A3.125 3.125 0 0 1 43.75 16.666666666666668Z" fill="#08a6fb" stroke-width="2.0833"></path><path d="M31.250000000000004 31.458333333333336a1.5208333333333335 1.5208333333333335 0 0 0 -1.8125000000000002 1.1875 1.1250000000000002 1.1250000000000002 0 0 1 -0.7083333333333335 0.16666666666666669c-1.3541666666666667 0 -2.0833333333333335 -2.0833333333333335 -2.0833333333333335 -2.0833333333333335a1.5833333333333335 1.5833333333333335 0 0 0 -1.4791666666666667 -1.0208333333333335 1.5833333333333335 1.5833333333333335 0 0 0 -1.4583333333333333 1.0208333333333335s-0.8333333333333335 2.0833333333333335 -2.1875000000000004 2.0833333333333335c-0.47916666666666674 0 -0.6666666666666667 -0.125 -0.6666666666666667 0a1.5625 1.5625 0 0 0 -3.229166666666667 0.5208333333333334 3.5208333333333335 3.5208333333333335 0 0 0 3.729166666666667 2.5833333333333335 4.895833333333334 4.895833333333334 0 0 0 3.6458333333333335 -1.7083333333333333 4.895833333333334 4.895833333333334 0 0 0 3.6458333333333335 1.7291666666666667A3.5208333333333335 3.5208333333333335 0 0 0 32.375 33.333333333333336a1.6041666666666667 1.6041666666666667 0 0 0 -1.1250000000000002 -1.8750000000000002Z" fill="#08a6fb" stroke-width="2.0833"></path><path d="M20.333333333333336 22.187500000000004a1.5416666666666667 1.5416666666666667 0 0 0 -1.8333333333333335 -1.2083333333333333l-8.208333333333334 1.666666666666667a1.5625 1.5625 0 0 0 -1.2291666666666667 1.8541666666666667 1.6041666666666667 1.6041666666666667 0 0 0 1.5416666666666667 1.25l0.3125 0 8.208333333333334 -1.666666666666667a1.5833333333333335 1.5833333333333335 0 0 0 1.2083333333333333 -1.8958333333333335Z" fill="#08a6fb" stroke-width="2.0833"></path><path d="m39.708333333333336 22.645833333333332 -8.208333333333334 -1.666666666666667a1.5416666666666667 1.5416666666666667 0 0 0 -1.8333333333333335 1.2083333333333333 1.5833333333333335 1.5833333333333335 0 0 0 1.2083333333333333 1.8541666666666667l8.208333333333334 1.666666666666667 0.3125 0a1.6041666666666667 1.6041666666666667 0 0 0 1.5416666666666667 -1.25 1.5625 1.5625 0 0 0 -1.2291666666666667 -1.8125000000000002Z" fill="#08a6fb" stroke-width="2.0833"></path></g></svg>