<svg width="98.715" height="13.185" viewBox="0 0 98.715 13.185" xmlns="http://www.w3.org/2000/svg"><g id="svgGroup" stroke-linecap="round" fill-rule="evenodd" font-size="9pt" stroke="#000000" stroke-width="1" fill="#000000" style="stroke:#000000;stroke-width:1;fill:#000000"><path d="M 91.065 11.175 L 98.025 11.175 Q 98.454 11.175 98.542 10.835 A 0.796 0.796 0 0 0 98.565 10.635 L 98.565 8.88 Q 98.565 8.452 98.225 8.363 A 0.796 0.796 0 0 0 98.025 8.34 L 93.885 8.34 L 93.885 7.05 L 96.81 7.05 Q 97.239 7.05 97.327 6.71 A 0.796 0.796 0 0 0 97.35 6.51 L 97.35 4.905 Q 97.35 4.477 97.01 4.388 A 0.796 0.796 0 0 0 96.81 4.365 L 93.885 4.365 L 93.885 3.21 L 98.025 3.21 Q 98.454 3.21 98.542 2.87 A 0.796 0.796 0 0 0 98.565 2.67 L 98.565 0.915 Q 98.565 0.487 98.225 0.398 A 0.796 0.796 0 0 0 98.025 0.375 L 91.065 0.375 Q 90.637 0.375 90.548 0.715 A 0.796 0.796 0 0 0 90.525 0.915 L 90.525 10.635 Q 90.525 11.064 90.865 11.152 A 0.796 0.796 0 0 0 91.065 11.175 Z M 82.53 12.96 L 78.63 12.96 A 1.526 1.526 0 0 1 78.409 12.945 Q 78.213 12.916 78.075 12.833 A 0.67 0.67 0 0 1 77.906 12.682 Q 77.806 12.561 77.73 12.375 L 76.26 8.7 A 71.506 71.506 0 0 1 76.174 8.477 Q 76.06 8.179 75.979 7.959 A 23.906 23.906 0 0 1 75.968 7.928 Q 75.855 7.62 75.81 7.305 A 3.85 3.85 0 0 1 75.784 7.057 Q 75.773 6.922 75.769 6.766 A 8.828 8.828 0 0 1 75.765 6.51 L 75.765 2.55 A 1.06 1.06 0 0 1 75.785 2.34 Q 75.829 2.12 75.975 1.995 L 77.91 0.36 Q 78.037 0.256 78.254 0.232 A 1.248 1.248 0 0 1 78.39 0.225 L 80.775 0.225 Q 81.399 0.225 81.493 0.722 A 1.035 1.035 0 0 1 81.51 0.915 L 81.51 5.055 A 1.317 1.317 0 0 0 81.521 5.225 A 1.075 1.075 0 0 0 81.54 5.333 A 6.921 6.921 0 0 0 81.569 5.451 Q 81.585 5.512 81.603 5.579 A 12.065 12.065 0 0 0 81.615 5.625 L 81.66 5.73 L 81.66 2.55 A 1.06 1.06 0 0 1 81.68 2.34 Q 81.724 2.12 81.87 1.995 L 83.805 0.36 Q 83.932 0.256 84.149 0.232 A 1.248 1.248 0 0 1 84.285 0.225 L 86.64 0.225 A 1.348 1.348 0 0 1 86.824 0.237 Q 87.04 0.266 87.155 0.372 A 0.389 0.389 0 0 1 87.173 0.39 Q 87.287 0.51 87.318 0.733 A 1.315 1.315 0 0 1 87.33 0.915 L 87.33 4.875 A 8.453 8.453 0 0 1 87.324 5.199 Q 87.318 5.35 87.307 5.48 A 3.647 3.647 0 0 1 87.285 5.67 Q 87.24 5.985 87.135 6.293 A 8.06 8.06 0 0 1 87.052 6.523 Q 86.963 6.76 86.835 7.065 L 85.365 10.74 A 0.869 0.869 0 0 1 85.306 10.878 A 0.698 0.698 0 0 1 85.245 10.973 A 1.95 1.95 0 0 1 85.161 11.075 A 1.56 1.56 0 0 1 85.095 11.145 L 83.16 12.75 A 0.74 0.74 0 0 1 82.85 12.92 Q 82.735 12.952 82.598 12.958 A 1.476 1.476 0 0 1 82.53 12.96 Z M 80.565 11.175 L 84.465 11.175 Q 84.679 11.175 84.831 11.122 A 0.648 0.648 0 0 0 84.945 11.07 A 0.523 0.523 0 0 0 85.093 10.938 Q 85.173 10.836 85.23 10.68 L 86.7 7.005 A 29.536 29.536 0 0 0 86.785 6.789 Q 86.906 6.48 86.985 6.255 Q 87.09 5.955 87.135 5.648 A 3.699 3.699 0 0 0 87.162 5.4 Q 87.172 5.27 87.177 5.12 A 8.319 8.319 0 0 0 87.18 4.875 L 87.18 0.915 Q 87.18 0.487 86.84 0.398 A 0.796 0.796 0 0 0 86.64 0.375 L 84.285 0.375 Q 83.857 0.375 83.768 0.715 A 0.796 0.796 0 0 0 83.745 0.915 L 83.745 5.04 Q 83.745 5.19 83.715 5.34 A 2.009 2.009 0 0 1 83.666 5.533 A 2.472 2.472 0 0 1 83.625 5.655 L 82.92 7.77 A 0.53 0.53 0 0 1 82.876 7.879 Q 82.841 7.94 82.793 7.976 A 0.258 0.258 0 0 1 82.635 8.025 L 82.47 8.025 A 0.255 0.255 0 0 1 82.25 7.911 Q 82.219 7.868 82.197 7.807 A 0.642 0.642 0 0 1 82.185 7.77 L 81.48 5.67 A 2.354 2.354 0 0 1 81.418 5.475 A 1.914 1.914 0 0 1 81.39 5.355 Q 81.36 5.205 81.36 5.055 L 81.36 0.915 A 0.713 0.713 0 0 0 81.329 0.695 Q 81.225 0.375 80.775 0.375 L 78.39 0.375 Q 77.962 0.375 77.873 0.715 A 0.796 0.796 0 0 0 77.85 0.915 L 77.85 4.875 Q 77.85 5.21 77.873 5.463 A 3.49 3.49 0 0 0 77.895 5.648 Q 77.94 5.955 78.045 6.255 A 11.495 11.495 0 0 0 78.102 6.414 Q 78.189 6.651 78.312 6.961 A 32.879 32.879 0 0 0 78.33 7.005 L 79.8 10.68 A 1.23 1.23 0 0 0 79.881 10.841 Q 79.929 10.919 79.983 10.977 A 0.533 0.533 0 0 0 80.1 11.07 A 0.712 0.712 0 0 0 80.29 11.145 Q 80.413 11.175 80.565 11.175 Z M 72.255 12.96 L 65.865 12.96 A 0.993 0.993 0 0 1 65.592 12.926 Q 65.286 12.838 65.204 12.526 A 1.017 1.017 0 0 1 65.175 12.27 L 65.175 10.485 A 1.06 1.06 0 0 1 65.195 10.275 Q 65.239 10.055 65.385 9.93 L 67.2 8.4 L 67.2 5.055 L 65.865 5.055 A 0.993 0.993 0 0 1 65.592 5.021 Q 65.286 4.933 65.204 4.621 A 1.017 1.017 0 0 1 65.175 4.365 L 65.175 2.55 A 1.06 1.06 0 0 1 65.195 2.34 Q 65.239 2.12 65.385 1.995 L 67.32 0.36 Q 67.447 0.256 67.664 0.232 A 1.248 1.248 0 0 1 67.8 0.225 L 74.19 0.225 A 0.993 0.993 0 0 1 74.463 0.259 Q 74.769 0.347 74.851 0.66 A 1.017 1.017 0 0 1 74.88 0.915 L 74.88 2.73 A 1.06 1.06 0 0 1 74.861 2.94 Q 74.816 3.16 74.67 3.285 L 72.885 4.785 L 72.885 8.16 L 74.19 8.16 A 0.993 0.993 0 0 1 74.463 8.194 Q 74.769 8.282 74.851 8.595 A 1.017 1.017 0 0 1 74.88 8.85 L 74.88 10.635 A 1.06 1.06 0 0 1 74.861 10.845 Q 74.816 11.065 74.67 11.19 L 72.72 12.81 A 0.46 0.46 0 0 1 72.547 12.916 Q 72.474 12.942 72.385 12.953 A 1.113 1.113 0 0 1 72.255 12.96 Z M 96.09 12.96 L 89.13 12.96 A 0.993 0.993 0 0 1 88.857 12.926 Q 88.551 12.838 88.469 12.526 A 1.017 1.017 0 0 1 88.44 12.27 L 88.44 2.55 A 1.06 1.06 0 0 1 88.46 2.34 Q 88.504 2.12 88.65 1.995 L 90.585 0.36 Q 90.712 0.256 90.929 0.232 A 1.248 1.248 0 0 1 91.065 0.225 L 98.025 0.225 A 0.993 0.993 0 0 1 98.298 0.259 Q 98.604 0.347 98.686 0.66 A 1.017 1.017 0 0 1 98.715 0.915 L 98.715 2.67 A 1.06 1.06 0 0 1 98.696 2.88 Q 98.651 3.1 98.505 3.225 L 97.215 4.29 Q 97.458 4.418 97.494 4.776 A 1.307 1.307 0 0 1 97.5 4.905 L 97.5 6.51 A 1.06 1.06 0 0 1 97.481 6.72 Q 97.436 6.94 97.29 7.065 L 95.955 8.19 L 98.025 8.19 A 0.993 0.993 0 0 1 98.298 8.224 Q 98.604 8.312 98.686 8.625 A 1.017 1.017 0 0 1 98.715 8.88 L 98.715 10.635 A 1.06 1.06 0 0 1 98.696 10.845 Q 98.651 11.065 98.505 11.19 L 96.555 12.81 A 0.46 0.46 0 0 1 96.382 12.916 Q 96.309 12.942 96.22 12.953 A 1.113 1.113 0 0 1 96.09 12.96 Z M 8.325 12.96 L 0.69 12.96 A 0.993 0.993 0 0 1 0.417 12.926 Q 0.111 12.838 0.029 12.526 A 1.017 1.017 0 0 1 0 12.27 L 0 2.55 A 1.06 1.06 0 0 1 0.02 2.34 Q 0.064 2.12 0.21 1.995 L 2.145 0.36 Q 2.272 0.256 2.489 0.232 A 1.248 1.248 0 0 1 2.625 0.225 L 4.95 0.225 A 0.993 0.993 0 0 1 5.223 0.259 Q 5.529 0.347 5.611 0.66 A 1.017 1.017 0 0 1 5.64 0.915 L 5.64 7.02 L 5.67 6.99 L 7.605 5.355 Q 7.732 5.251 7.949 5.227 A 1.248 1.248 0 0 1 8.085 5.22 L 10.26 5.22 A 0.993 0.993 0 0 1 10.533 5.254 Q 10.839 5.342 10.921 5.655 A 1.017 1.017 0 0 1 10.95 5.91 L 10.95 10.635 A 1.06 1.06 0 0 1 10.931 10.845 Q 10.886 11.065 10.74 11.19 L 8.79 12.81 A 0.46 0.46 0 0 1 8.617 12.916 Q 8.544 12.942 8.455 12.953 A 1.113 1.113 0 0 1 8.325 12.96 Z M 61.815 12.96 L 54.18 12.96 A 0.993 0.993 0 0 1 53.907 12.926 Q 53.601 12.838 53.519 12.526 A 1.017 1.017 0 0 1 53.49 12.27 L 53.49 2.55 A 1.06 1.06 0 0 1 53.51 2.34 Q 53.554 2.12 53.7 1.995 L 55.635 0.36 Q 55.762 0.256 55.979 0.232 A 1.248 1.248 0 0 1 56.115 0.225 L 58.44 0.225 A 0.993 0.993 0 0 1 58.713 0.259 Q 59.019 0.347 59.101 0.66 A 1.017 1.017 0 0 1 59.13 0.915 L 59.13 7.02 L 59.16 6.99 L 61.095 5.355 Q 61.222 5.251 61.439 5.227 A 1.248 1.248 0 0 1 61.575 5.22 L 63.75 5.22 A 0.993 0.993 0 0 1 64.023 5.254 Q 64.329 5.342 64.411 5.655 A 1.017 1.017 0 0 1 64.44 5.91 L 64.44 10.635 A 1.06 1.06 0 0 1 64.421 10.845 Q 64.376 11.065 64.23 11.19 L 62.28 12.81 A 0.46 0.46 0 0 1 62.107 12.916 Q 62.034 12.942 61.945 12.953 A 1.113 1.113 0 0 1 61.815 12.96 Z M 2.625 11.175 L 10.26 11.175 Q 10.689 11.175 10.777 10.835 A 0.796 0.796 0 0 0 10.8 10.635 L 10.8 5.91 Q 10.8 5.482 10.46 5.393 A 0.796 0.796 0 0 0 10.26 5.37 L 8.085 5.37 Q 7.657 5.37 7.568 5.71 A 0.796 0.796 0 0 0 7.545 5.91 L 7.545 8.34 L 5.49 8.34 L 5.49 0.915 Q 5.49 0.487 5.15 0.398 A 0.796 0.796 0 0 0 4.95 0.375 L 2.625 0.375 Q 2.197 0.375 2.108 0.715 A 0.796 0.796 0 0 0 2.085 0.915 L 2.085 10.635 Q 2.085 11.064 2.425 11.152 A 0.796 0.796 0 0 0 2.625 11.175 Z M 56.115 11.175 L 63.75 11.175 Q 64.179 11.175 64.267 10.835 A 0.796 0.796 0 0 0 64.29 10.635 L 64.29 5.91 Q 64.29 5.482 63.95 5.393 A 0.796 0.796 0 0 0 63.75 5.37 L 61.575 5.37 Q 61.147 5.37 61.058 5.71 A 0.796 0.796 0 0 0 61.035 5.91 L 61.035 8.34 L 58.98 8.34 L 58.98 0.915 Q 58.98 0.487 58.64 0.398 A 0.796 0.796 0 0 0 58.44 0.375 L 56.115 0.375 Q 55.687 0.375 55.598 0.715 A 0.796 0.796 0 0 0 55.575 0.915 L 55.575 10.635 Q 55.575 11.064 55.915 11.152 A 0.796 0.796 0 0 0 56.115 11.175 Z M 92.31 9.675 L 97.215 9.675 L 97.215 9.825 L 92.16 9.825 L 92.16 1.725 L 97.215 1.725 L 97.215 1.875 L 92.31 1.875 L 92.31 5.64 L 96 5.64 L 96 5.79 L 92.31 5.79 L 92.31 9.675 Z M 67.8 11.175 L 74.19 11.175 Q 74.619 11.175 74.707 10.835 A 0.796 0.796 0 0 0 74.73 10.635 L 74.73 8.85 Q 74.73 8.422 74.39 8.333 A 0.796 0.796 0 0 0 74.19 8.31 L 72.735 8.31 L 72.735 3.27 L 74.19 3.27 Q 74.619 3.27 74.707 2.93 A 0.796 0.796 0 0 0 74.73 2.73 L 74.73 0.915 Q 74.73 0.487 74.39 0.398 A 0.796 0.796 0 0 0 74.19 0.375 L 67.8 0.375 Q 67.372 0.375 67.283 0.715 A 0.796 0.796 0 0 0 67.26 0.915 L 67.26 2.73 Q 67.26 3.159 67.6 3.247 A 0.796 0.796 0 0 0 67.8 3.27 L 69.285 3.27 L 69.285 8.31 L 67.8 8.31 Q 67.372 8.31 67.283 8.65 A 0.796 0.796 0 0 0 67.26 8.85 L 67.26 10.635 Q 67.26 11.064 67.6 11.152 A 0.796 0.796 0 0 0 67.8 11.175 Z M 22.41 10.62 L 20.475 12.24 Q 20.053 12.602 19.364 12.833 A 5.619 5.619 0 0 1 19.013 12.938 A 6.378 6.378 0 0 1 18.266 13.083 Q 17.901 13.134 17.478 13.16 A 15.105 15.105 0 0 1 16.575 13.185 A 11.93 11.93 0 0 1 15.626 13.15 Q 14.78 13.082 14.16 12.885 A 4.867 4.867 0 0 1 13.51 12.629 Q 13.018 12.391 12.69 12.068 A 2.868 2.868 0 0 1 12.104 11.255 A 2.678 2.678 0 0 1 11.963 10.89 Q 11.76 10.23 11.76 9.525 L 11.76 4.86 Q 11.76 4.155 11.955 3.57 A 2.157 2.157 0 0 1 12.582 2.632 A 2.602 2.602 0 0 1 12.66 2.565 L 14.61 0.945 Q 15.032 0.583 15.721 0.352 A 5.619 5.619 0 0 1 16.073 0.248 A 6.378 6.378 0 0 1 16.819 0.102 Q 17.184 0.051 17.607 0.025 A 15.105 15.105 0 0 1 18.51 0 A 15.378 15.378 0 0 1 19.459 0.028 Q 19.921 0.056 20.317 0.115 A 6.617 6.617 0 0 1 20.925 0.233 Q 21.608 0.401 22.068 0.675 A 2.421 2.421 0 0 1 22.388 0.9 A 2.42 2.42 0 0 1 22.91 1.503 A 2.195 2.195 0 0 1 23.108 1.928 A 3.786 3.786 0 0 1 23.293 2.827 A 4.591 4.591 0 0 1 23.31 3.225 L 23.31 8.34 A 4.264 4.264 0 0 1 23.241 9.12 A 3.549 3.549 0 0 1 23.115 9.608 A 2.219 2.219 0 0 1 22.569 10.473 A 2.727 2.727 0 0 1 22.41 10.62 Z M 34.965 10.62 L 33.03 12.24 Q 32.608 12.602 31.919 12.833 A 5.619 5.619 0 0 1 31.568 12.938 A 6.378 6.378 0 0 1 30.821 13.083 Q 30.456 13.134 30.033 13.16 A 15.105 15.105 0 0 1 29.13 13.185 A 11.93 11.93 0 0 1 28.181 13.15 Q 27.335 13.082 26.715 12.885 A 4.867 4.867 0 0 1 26.065 12.629 Q 25.573 12.391 25.245 12.068 A 2.868 2.868 0 0 1 24.659 11.255 A 2.678 2.678 0 0 1 24.518 10.89 Q 24.315 10.23 24.315 9.525 L 24.315 4.86 Q 24.315 4.155 24.51 3.57 A 2.157 2.157 0 0 1 25.137 2.632 A 2.602 2.602 0 0 1 25.215 2.565 L 27.165 0.945 Q 27.587 0.583 28.276 0.352 A 5.619 5.619 0 0 1 28.628 0.248 A 6.378 6.378 0 0 1 29.374 0.102 Q 29.739 0.051 30.162 0.025 A 15.105 15.105 0 0 1 31.065 0 A 15.378 15.378 0 0 1 32.014 0.028 Q 32.476 0.056 32.872 0.115 A 6.617 6.617 0 0 1 33.48 0.233 Q 34.163 0.401 34.623 0.675 A 2.421 2.421 0 0 1 34.943 0.9 A 2.42 2.42 0 0 1 35.465 1.503 A 2.195 2.195 0 0 1 35.663 1.928 A 3.786 3.786 0 0 1 35.848 2.827 A 4.591 4.591 0 0 1 35.865 3.225 L 35.865 8.34 A 4.264 4.264 0 0 1 35.796 9.12 A 3.549 3.549 0 0 1 35.67 9.608 A 2.219 2.219 0 0 1 35.124 10.473 A 2.727 2.727 0 0 1 34.965 10.62 Z M 40.05 12.96 L 37.725 12.96 A 0.993 0.993 0 0 1 37.452 12.926 Q 37.146 12.838 37.064 12.526 A 1.017 1.017 0 0 1 37.035 12.27 L 37.035 2.55 A 1.06 1.06 0 0 1 37.055 2.34 Q 37.099 2.12 37.245 1.995 L 39.18 0.36 Q 39.307 0.256 39.524 0.232 A 1.248 1.248 0 0 1 39.66 0.225 L 44.25 0.225 A 8.597 8.597 0 0 1 45.088 0.263 Q 45.941 0.347 46.493 0.615 A 2.732 2.732 0 0 1 47.082 0.995 A 2.071 2.071 0 0 1 47.618 1.695 A 3.357 3.357 0 0 1 47.887 2.594 A 4.495 4.495 0 0 1 47.94 3.3 L 47.94 5.22 A 4.444 4.444 0 0 1 47.876 5.99 A 3.605 3.605 0 0 1 47.738 6.533 Q 47.535 7.125 47.04 7.545 L 45.09 9.165 A 2.491 2.491 0 0 1 44.663 9.451 Q 44.42 9.581 44.123 9.683 A 3.867 3.867 0 0 1 43.565 9.825 Q 43.288 9.875 42.971 9.899 A 7.436 7.436 0 0 1 42.675 9.915 L 42.675 10.635 A 1.06 1.06 0 0 1 42.656 10.845 Q 42.611 11.065 42.465 11.19 L 40.515 12.81 A 0.46 0.46 0 0 1 40.342 12.916 Q 40.269 12.942 40.18 12.953 A 1.113 1.113 0 0 1 40.05 12.96 Z M 79.545 1.725 L 79.695 1.725 L 79.695 4.965 A 4.594 4.594 0 0 0 79.738 5.608 Q 79.796 6.022 79.935 6.36 L 80.925 8.76 Q 81.09 9.15 81.27 9.413 Q 81.437 9.657 81.812 9.674 A 1.265 1.265 0 0 0 81.87 9.675 L 83.19 9.675 A 1.129 1.129 0 0 0 83.415 9.654 Q 83.676 9.601 83.805 9.413 Q 83.96 9.187 84.092 8.867 A 4.481 4.481 0 0 0 84.135 8.76 L 85.125 6.36 Q 85.348 5.816 85.364 5.078 A 5.31 5.31 0 0 0 85.365 4.965 L 85.365 1.725 L 85.515 1.725 L 85.515 4.965 A 5.862 5.862 0 0 1 85.499 5.415 A 4.579 4.579 0 0 1 85.463 5.738 Q 85.41 6.09 85.275 6.42 L 84.285 8.82 Q 84.105 9.255 83.888 9.54 A 0.682 0.682 0 0 1 83.537 9.778 Q 83.423 9.813 83.285 9.822 A 1.488 1.488 0 0 1 83.19 9.825 L 81.87 9.825 Q 81.512 9.825 81.297 9.656 A 0.689 0.689 0 0 1 81.18 9.54 A 2.458 2.458 0 0 1 80.979 9.24 Q 80.891 9.087 80.811 8.905 A 4.311 4.311 0 0 1 80.775 8.82 L 79.785 6.42 Q 79.65 6.09 79.598 5.738 Q 79.545 5.385 79.545 4.965 L 79.545 1.725 Z M 39.66 11.175 L 41.985 11.175 Q 42.414 11.175 42.502 10.835 A 0.796 0.796 0 0 0 42.525 10.635 L 42.525 8.145 L 44.25 8.145 A 8.233 8.233 0 0 0 45.045 8.109 Q 45.856 8.03 46.388 7.778 A 2.615 2.615 0 0 0 46.957 7.416 A 1.987 1.987 0 0 0 47.475 6.75 A 3.173 3.173 0 0 0 47.742 5.868 A 4.196 4.196 0 0 0 47.79 5.22 L 47.79 3.3 A 4.091 4.091 0 0 0 47.721 2.531 A 3.118 3.118 0 0 0 47.475 1.77 A 2.035 2.035 0 0 0 46.786 0.972 A 2.777 2.777 0 0 0 46.388 0.743 A 3.202 3.202 0 0 0 45.756 0.526 Q 45.127 0.376 44.257 0.375 A 9.707 9.707 0 0 0 44.25 0.375 L 39.66 0.375 Q 39.232 0.375 39.143 0.715 A 0.796 0.796 0 0 0 39.12 0.915 L 39.12 10.635 Q 39.12 11.064 39.46 11.152 A 0.796 0.796 0 0 0 39.66 11.175 Z M 23.16 8.34 L 23.16 3.225 A 4.066 4.066 0 0 0 23.098 2.499 A 3.278 3.278 0 0 0 22.958 1.973 A 2.114 2.114 0 0 0 22.375 1.115 A 2.585 2.585 0 0 0 22.245 1.005 Q 21.849 0.69 21.212 0.484 A 5.716 5.716 0 0 0 20.828 0.375 Q 20.171 0.212 19.252 0.167 A 15.188 15.188 0 0 0 18.51 0.15 A 14.627 14.627 0 0 0 17.6 0.177 Q 17.156 0.204 16.777 0.261 A 6.314 6.314 0 0 0 16.193 0.375 Q 15.285 0.6 14.775 1.005 A 2.34 2.34 0 0 0 14.266 1.555 A 2.102 2.102 0 0 0 14.055 1.973 A 3.31 3.31 0 0 0 13.87 2.766 A 4.136 4.136 0 0 0 13.845 3.225 L 13.845 8.34 A 3.919 3.919 0 0 0 13.911 9.074 A 3.182 3.182 0 0 0 14.055 9.593 Q 14.265 10.155 14.775 10.56 Q 15.172 10.875 15.808 11.076 A 5.597 5.597 0 0 0 16.193 11.183 A 6.821 6.821 0 0 0 16.927 11.313 Q 17.315 11.362 17.768 11.383 A 15.711 15.711 0 0 0 18.51 11.4 A 15.129 15.129 0 0 0 19.42 11.374 Q 19.864 11.347 20.243 11.293 A 6.508 6.508 0 0 0 20.828 11.183 Q 21.484 11.025 21.932 10.77 A 2.457 2.457 0 0 0 22.245 10.56 A 2.299 2.299 0 0 0 22.737 10.031 A 2.043 2.043 0 0 0 22.958 9.593 A 3.41 3.41 0 0 0 23.136 8.804 A 4.283 4.283 0 0 0 23.16 8.34 Z M 35.715 8.34 L 35.715 3.225 A 4.066 4.066 0 0 0 35.653 2.499 A 3.278 3.278 0 0 0 35.513 1.973 A 2.114 2.114 0 0 0 34.93 1.115 A 2.585 2.585 0 0 0 34.8 1.005 Q 34.404 0.69 33.767 0.484 A 5.716 5.716 0 0 0 33.383 0.375 Q 32.726 0.212 31.807 0.167 A 15.188 15.188 0 0 0 31.065 0.15 A 14.627 14.627 0 0 0 30.155 0.177 Q 29.711 0.204 29.332 0.261 A 6.314 6.314 0 0 0 28.748 0.375 Q 27.84 0.6 27.33 1.005 A 2.34 2.34 0 0 0 26.821 1.555 A 2.102 2.102 0 0 0 26.61 1.973 A 3.31 3.31 0 0 0 26.425 2.766 A 4.136 4.136 0 0 0 26.4 3.225 L 26.4 8.34 A 3.919 3.919 0 0 0 26.466 9.074 A 3.182 3.182 0 0 0 26.61 9.593 Q 26.82 10.155 27.33 10.56 Q 27.727 10.875 28.363 11.076 A 5.597 5.597 0 0 0 28.748 11.183 A 6.821 6.821 0 0 0 29.482 11.313 Q 29.87 11.362 30.323 11.383 A 15.711 15.711 0 0 0 31.065 11.4 A 15.129 15.129 0 0 0 31.975 11.374 Q 32.419 11.347 32.798 11.293 A 6.508 6.508 0 0 0 33.383 11.183 Q 34.039 11.025 34.487 10.77 A 2.457 2.457 0 0 0 34.8 10.56 A 2.299 2.299 0 0 0 35.292 10.031 A 2.043 2.043 0 0 0 35.513 9.593 A 3.41 3.41 0 0 0 35.691 8.804 A 4.283 4.283 0 0 0 35.715 8.34 Z M 68.61 1.875 L 68.61 1.725 L 73.38 1.725 L 73.38 1.875 L 71.085 1.875 L 71.085 9.675 L 73.38 9.675 L 73.38 9.825 L 68.61 9.825 L 68.61 9.675 L 70.935 9.675 L 70.935 1.875 L 68.61 1.875 Z M 9.09 6.72 L 9.24 6.72 L 9.24 9.825 L 3.72 9.825 L 3.72 1.725 L 3.87 1.725 L 3.87 9.675 L 9.09 9.675 L 9.09 6.72 Z M 62.58 6.72 L 62.73 6.72 L 62.73 9.825 L 57.21 9.825 L 57.21 1.725 L 57.36 1.725 L 57.36 9.675 L 62.58 9.675 L 62.58 6.72 Z M 44.04 6.87 L 40.95 6.87 L 40.95 9.825 L 40.8 9.825 L 40.8 1.725 L 44.04 1.725 A 5.301 5.301 0 0 1 44.561 1.749 Q 45.08 1.8 45.411 1.963 A 1.42 1.42 0 0 1 45.473 1.995 A 1.594 1.594 0 0 1 45.827 2.256 A 1.246 1.246 0 0 1 46.125 2.723 A 2.713 2.713 0 0 1 46.258 3.278 A 3.608 3.608 0 0 1 46.29 3.765 L 46.29 4.875 A 3.539 3.539 0 0 1 46.254 5.394 A 2.607 2.607 0 0 1 46.125 5.91 A 1.226 1.226 0 0 1 45.677 6.489 A 1.674 1.674 0 0 1 45.473 6.615 A 1.821 1.821 0 0 1 45.093 6.758 Q 44.668 6.87 44.04 6.87 Z M 15.465 7.995 L 15.465 3.57 A 2.421 2.421 0 0 1 15.522 3.034 A 1.857 1.857 0 0 1 15.728 2.505 A 1.384 1.384 0 0 1 16.089 2.104 Q 16.32 1.928 16.65 1.8 Q 17.296 1.55 18.431 1.545 A 10.605 10.605 0 0 1 18.48 1.545 Q 19.6 1.545 20.252 1.773 A 2.455 2.455 0 0 1 20.325 1.8 A 2.516 2.516 0 0 1 20.733 1.998 Q 20.954 2.134 21.106 2.304 A 1.317 1.317 0 0 1 21.255 2.505 A 1.874 1.874 0 0 1 21.496 3.184 A 2.471 2.471 0 0 1 21.525 3.57 L 21.525 7.995 A 2.265 2.265 0 0 1 21.453 8.576 A 1.877 1.877 0 0 1 21.255 9.053 A 1.438 1.438 0 0 1 20.866 9.476 Q 20.696 9.602 20.477 9.701 A 2.825 2.825 0 0 1 20.325 9.765 A 3.112 3.112 0 0 1 19.822 9.908 Q 19.304 10.013 18.584 10.02 A 10.692 10.692 0 0 1 18.48 10.02 Q 17.338 10.02 16.682 9.777 A 2.422 2.422 0 0 1 16.65 9.765 A 2.436 2.436 0 0 1 16.243 9.566 Q 16.021 9.428 15.87 9.253 A 1.288 1.288 0 0 1 15.728 9.053 A 1.977 1.977 0 0 1 15.484 8.304 A 2.507 2.507 0 0 1 15.465 7.995 Z M 28.02 7.995 L 28.02 3.57 A 2.421 2.421 0 0 1 28.077 3.034 A 1.857 1.857 0 0 1 28.283 2.505 A 1.384 1.384 0 0 1 28.644 2.104 Q 28.875 1.928 29.205 1.8 Q 29.851 1.55 30.986 1.545 A 10.605 10.605 0 0 1 31.035 1.545 Q 32.155 1.545 32.807 1.773 A 2.455 2.455 0 0 1 32.88 1.8 A 2.516 2.516 0 0 1 33.288 1.998 Q 33.509 2.134 33.661 2.304 A 1.317 1.317 0 0 1 33.81 2.505 A 1.874 1.874 0 0 1 34.051 3.184 A 2.471 2.471 0 0 1 34.08 3.57 L 34.08 7.995 A 2.265 2.265 0 0 1 34.008 8.576 A 1.877 1.877 0 0 1 33.81 9.053 A 1.438 1.438 0 0 1 33.421 9.476 Q 33.251 9.602 33.032 9.701 A 2.825 2.825 0 0 1 32.88 9.765 A 3.112 3.112 0 0 1 32.377 9.908 Q 31.859 10.013 31.139 10.02 A 10.692 10.692 0 0 1 31.035 10.02 Q 29.893 10.02 29.237 9.777 A 2.422 2.422 0 0 1 29.205 9.765 A 2.436 2.436 0 0 1 28.798 9.566 Q 28.576 9.428 28.425 9.253 A 1.288 1.288 0 0 1 28.283 9.053 A 1.977 1.977 0 0 1 28.039 8.304 A 2.507 2.507 0 0 1 28.02 7.995 Z M 21.375 7.995 L 21.375 3.57 A 2.151 2.151 0 0 0 21.319 3.069 A 1.694 1.694 0 0 0 21.12 2.58 Q 20.905 2.226 20.423 2.005 A 2.67 2.67 0 0 0 20.235 1.928 Q 19.633 1.705 18.578 1.695 A 10.576 10.576 0 0 0 18.48 1.695 A 8.6 8.6 0 0 0 17.833 1.718 Q 17.198 1.766 16.773 1.916 A 2.398 2.398 0 0 0 16.74 1.928 A 2.364 2.364 0 0 0 16.368 2.1 Q 16.029 2.298 15.863 2.58 A 1.769 1.769 0 0 0 15.642 3.212 A 2.322 2.322 0 0 0 15.615 3.57 L 15.615 7.995 A 2.118 2.118 0 0 0 15.685 8.549 A 1.774 1.774 0 0 0 15.863 8.978 A 1.276 1.276 0 0 0 16.213 9.361 Q 16.369 9.478 16.573 9.569 A 2.614 2.614 0 0 0 16.74 9.638 A 3.109 3.109 0 0 0 17.227 9.769 Q 17.733 9.867 18.434 9.87 A 10.483 10.483 0 0 0 18.48 9.87 Q 19.544 9.87 20.165 9.662 A 2.426 2.426 0 0 0 20.235 9.638 Q 20.71 9.462 20.971 9.177 A 1.219 1.219 0 0 0 21.12 8.978 A 1.808 1.808 0 0 0 21.363 8.232 A 2.249 2.249 0 0 0 21.375 7.995 Z M 33.93 7.995 L 33.93 3.57 A 2.151 2.151 0 0 0 33.874 3.069 A 1.694 1.694 0 0 0 33.675 2.58 Q 33.46 2.226 32.978 2.005 A 2.67 2.67 0 0 0 32.79 1.928 Q 32.188 1.705 31.133 1.695 A 10.576 10.576 0 0 0 31.035 1.695 A 8.6 8.6 0 0 0 30.388 1.718 Q 29.753 1.766 29.328 1.916 A 2.398 2.398 0 0 0 29.295 1.928 A 2.364 2.364 0 0 0 28.923 2.1 Q 28.584 2.298 28.418 2.58 A 1.769 1.769 0 0 0 28.197 3.212 A 2.322 2.322 0 0 0 28.17 3.57 L 28.17 7.995 A 2.118 2.118 0 0 0 28.24 8.549 A 1.774 1.774 0 0 0 28.418 8.978 A 1.276 1.276 0 0 0 28.768 9.361 Q 28.924 9.478 29.128 9.569 A 2.614 2.614 0 0 0 29.295 9.638 A 3.109 3.109 0 0 0 29.782 9.769 Q 30.288 9.867 30.989 9.87 A 10.483 10.483 0 0 0 31.035 9.87 Q 32.099 9.87 32.72 9.662 A 2.426 2.426 0 0 0 32.79 9.638 Q 33.265 9.462 33.526 9.177 A 1.219 1.219 0 0 0 33.675 8.978 A 1.808 1.808 0 0 0 33.918 8.232 A 2.249 2.249 0 0 0 33.93 7.995 Z M 40.95 6.72 L 44.04 6.72 A 5.443 5.443 0 0 0 44.503 6.702 Q 44.97 6.662 45.274 6.534 A 1.382 1.382 0 0 0 45.375 6.488 A 1.4 1.4 0 0 0 45.708 6.253 A 1.122 1.122 0 0 0 45.983 5.835 A 2.411 2.411 0 0 0 46.11 5.325 A 3.212 3.212 0 0 0 46.14 4.875 L 46.14 3.765 A 3.185 3.185 0 0 0 46.101 3.253 A 2.457 2.457 0 0 0 45.983 2.798 A 1.211 1.211 0 0 0 45.535 2.223 A 1.614 1.614 0 0 0 45.375 2.123 A 1.629 1.629 0 0 0 45.019 1.983 Q 44.624 1.875 44.04 1.875 L 40.95 1.875 L 40.95 6.72 Z M 17.25 7.8 L 17.25 3.765 Q 17.25 3.465 17.475 3.27 A 0.525 0.525 0 0 1 17.633 3.181 Q 17.912 3.075 18.51 3.075 Q 19.262 3.075 19.509 3.237 A 0.361 0.361 0 0 1 19.553 3.27 A 0.631 0.631 0 0 1 19.769 3.728 A 0.801 0.801 0 0 1 19.77 3.765 L 19.77 7.8 A 0.677 0.677 0 0 1 19.701 8.107 A 0.686 0.686 0 0 1 19.553 8.303 A 0.494 0.494 0 0 1 19.397 8.395 Q 19.146 8.494 18.625 8.504 A 6.206 6.206 0 0 1 18.51 8.505 A 5.061 5.061 0 0 1 18.184 8.495 Q 17.708 8.464 17.517 8.335 A 0.385 0.385 0 0 1 17.475 8.303 A 0.671 0.671 0 0 1 17.298 8.056 A 0.673 0.673 0 0 1 17.25 7.8 Z M 29.805 7.8 L 29.805 3.765 Q 29.805 3.465 30.03 3.27 A 0.525 0.525 0 0 1 30.188 3.181 Q 30.467 3.075 31.065 3.075 Q 31.817 3.075 32.064 3.237 A 0.361 0.361 0 0 1 32.108 3.27 A 0.631 0.631 0 0 1 32.324 3.728 A 0.801 0.801 0 0 1 32.325 3.765 L 32.325 7.8 A 0.677 0.677 0 0 1 32.256 8.107 A 0.686 0.686 0 0 1 32.108 8.303 A 0.494 0.494 0 0 1 31.952 8.395 Q 31.701 8.494 31.18 8.504 A 6.206 6.206 0 0 1 31.065 8.505 A 5.061 5.061 0 0 1 30.739 8.495 Q 30.263 8.464 30.072 8.335 A 0.385 0.385 0 0 1 30.03 8.303 A 0.671 0.671 0 0 1 29.853 8.056 A 0.673 0.673 0 0 1 29.805 7.8 Z M 42.495 5.445 L 42.495 3.18 L 43.845 3.18 A 1.347 1.347 0 0 1 44.038 3.193 Q 44.264 3.226 44.373 3.343 A 0.353 0.353 0 0 1 44.415 3.398 A 0.887 0.887 0 0 1 44.536 3.727 A 1.173 1.173 0 0 1 44.55 3.915 L 44.55 4.71 A 1.029 1.029 0 0 1 44.501 5.031 A 0.921 0.921 0 0 1 44.415 5.22 A 0.399 0.399 0 0 1 44.231 5.378 Q 44.092 5.441 43.874 5.445 A 1.624 1.624 0 0 1 43.845 5.445 L 42.495 5.445 Z M 17.4 4.965 L 17.4 7.8 A 0.636 0.636 0 0 0 17.413 7.932 A 0.492 0.492 0 0 0 17.46 8.063 Q 17.508 8.152 17.623 8.218 A 0.741 0.741 0 0 0 17.685 8.25 L 17.685 5.4 A 0.636 0.636 0 0 0 17.672 5.268 A 0.492 0.492 0 0 0 17.625 5.138 A 0.309 0.309 0 0 0 17.537 5.037 Q 17.481 4.995 17.4 4.965 Z M 29.955 4.965 L 29.955 7.8 A 0.636 0.636 0 0 0 29.968 7.932 A 0.492 0.492 0 0 0 30.015 8.063 Q 30.063 8.152 30.178 8.218 A 0.741 0.741 0 0 0 30.24 8.25 L 30.24 5.4 A 0.636 0.636 0 0 0 30.227 5.268 A 0.492 0.492 0 0 0 30.18 5.138 A 0.309 0.309 0 0 0 30.092 5.037 Q 30.036 4.995 29.955 4.965 Z" vector-effect="non-scaling-stroke"/></g></svg>