<svg width="329.051" height="43.95" viewBox="0 0 329.051 43.95" xmlns="http://www.w3.org/2000/svg"><g id="svgGroup" stroke-linecap="round" fill-rule="evenodd" font-size="9pt" stroke="#000000" stroke-width="1" fill="#000000" style="stroke:#000000;stroke-width:1;fill:#000000"><path d="M 303.55 37.25 L 326.75 37.25 A 2.591 2.591 0 0 0 327.463 37.161 Q 328.55 36.849 328.55 35.45 L 328.55 29.6 A 2.591 2.591 0 0 0 328.461 28.888 Q 328.149 27.8 326.75 27.8 L 312.95 27.8 L 312.95 23.5 L 322.7 23.5 A 2.591 2.591 0 0 0 323.413 23.411 Q 324.5 23.099 324.5 21.7 L 324.5 16.35 A 2.591 2.591 0 0 0 324.411 15.638 Q 324.099 14.55 322.7 14.55 L 312.95 14.55 L 312.95 10.7 L 326.75 10.7 A 2.591 2.591 0 0 0 327.463 10.611 Q 328.55 10.299 328.55 8.9 L 328.55 3.05 A 2.591 2.591 0 0 0 328.461 2.338 Q 328.149 1.25 326.75 1.25 L 303.55 1.25 A 2.591 2.591 0 0 0 302.838 1.339 Q 301.75 1.651 301.75 3.05 L 301.75 35.45 A 2.591 2.591 0 0 0 301.839 36.162 Q 302.151 37.25 303.55 37.25 Z M 275.1 43.2 L 262.1 43.2 A 5.087 5.087 0 0 1 261.363 43.15 Q 260.975 43.093 260.655 42.971 A 2.469 2.469 0 0 1 260.25 42.775 Q 259.55 42.35 259.1 41.25 L 254.2 29 A 238.421 238.421 0 0 1 253.914 28.258 Q 253.534 27.265 253.263 26.528 A 79.856 79.856 0 0 1 253.225 26.425 Q 252.85 25.4 252.7 24.35 A 12.835 12.835 0 0 1 252.612 23.524 Q 252.55 22.725 252.55 21.7 L 252.55 8.5 A 3.534 3.534 0 0 1 252.615 7.799 Q 252.698 7.39 252.887 7.08 A 1.773 1.773 0 0 1 253.25 6.65 L 259.7 1.2 Q 260.125 0.853 260.846 0.774 A 4.16 4.16 0 0 1 261.3 0.75 L 269.25 0.75 A 3.776 3.776 0 0 1 270.197 0.858 Q 271.409 1.173 271.644 2.406 A 3.451 3.451 0 0 1 271.7 3.05 L 271.7 16.85 A 4.389 4.389 0 0 0 271.736 17.417 A 3.584 3.584 0 0 0 271.8 17.775 Q 271.886 18.14 272.009 18.598 A 40.284 40.284 0 0 0 272.05 18.75 L 272.2 19.1 L 272.2 8.5 A 3.534 3.534 0 0 1 272.265 7.799 Q 272.348 7.39 272.537 7.08 A 1.773 1.773 0 0 1 272.9 6.65 L 279.35 1.2 Q 279.775 0.853 280.496 0.774 A 4.16 4.16 0 0 1 280.95 0.75 L 288.8 0.75 A 4.492 4.492 0 0 1 289.413 0.789 Q 290.19 0.896 290.575 1.3 Q 291.1 1.85 291.1 3.05 L 291.1 16.25 Q 291.1 17.85 290.95 18.9 Q 290.8 19.95 290.45 20.975 Q 290.215 21.664 289.845 22.589 A 63.973 63.973 0 0 1 289.45 23.55 L 284.55 35.8 A 2.896 2.896 0 0 1 284.353 36.261 A 2.327 2.327 0 0 1 284.15 36.575 A 6.499 6.499 0 0 1 283.869 36.917 A 5.201 5.201 0 0 1 283.65 37.15 L 277.2 42.5 A 2.467 2.467 0 0 1 276.167 43.066 Q 275.784 43.174 275.327 43.195 A 4.92 4.92 0 0 1 275.1 43.2 Z M 268.55 37.25 L 281.55 37.25 Q 282.262 37.25 282.772 37.073 A 2.16 2.16 0 0 0 283.15 36.9 Q 283.625 36.623 283.943 35.972 A 3.999 3.999 0 0 0 284.1 35.6 L 289 23.35 Q 289.6 21.85 289.95 20.85 Q 290.3 19.85 290.45 18.825 A 12.331 12.331 0 0 0 290.54 18.002 Q 290.6 17.231 290.6 16.25 L 290.6 3.05 A 2.591 2.591 0 0 0 290.511 2.338 Q 290.199 1.25 288.8 1.25 L 280.95 1.25 A 2.591 2.591 0 0 0 280.238 1.339 Q 279.15 1.651 279.15 3.05 L 279.15 16.8 Q 279.15 17.3 279.05 17.8 A 6.696 6.696 0 0 1 278.886 18.445 A 8.239 8.239 0 0 1 278.75 18.85 L 276.4 25.9 Q 276.15 26.75 275.45 26.75 L 274.9 26.75 A 0.85 0.85 0 0 1 274.166 26.371 Q 274.033 26.182 273.95 25.9 L 271.6 18.9 A 7.847 7.847 0 0 1 271.394 18.248 A 6.38 6.38 0 0 1 271.3 17.85 Q 271.2 17.35 271.2 16.85 L 271.2 3.05 A 2.378 2.378 0 0 0 271.097 2.316 Q 270.751 1.25 269.25 1.25 L 261.3 1.25 A 2.591 2.591 0 0 0 260.588 1.339 Q 259.5 1.651 259.5 3.05 L 259.5 16.25 A 26.522 26.522 0 0 0 259.52 17.296 Q 259.539 17.787 259.578 18.209 A 11.632 11.632 0 0 0 259.65 18.825 Q 259.8 19.85 260.15 20.85 Q 260.483 21.8 261.041 23.202 A 109.732 109.732 0 0 0 261.1 23.35 L 266 35.6 Q 266.263 36.224 266.611 36.589 A 1.778 1.778 0 0 0 267 36.9 Q 267.6 37.25 268.55 37.25 Z M 240.85 43.2 L 219.55 43.2 A 3.311 3.311 0 0 1 218.64 43.086 Q 217.25 42.688 217.25 40.9 L 217.25 34.95 A 3.534 3.534 0 0 1 217.315 34.249 Q 217.398 33.84 217.587 33.53 A 1.773 1.773 0 0 1 217.95 33.1 L 224 28 L 224 16.85 L 219.55 16.85 A 3.311 3.311 0 0 1 218.64 16.736 Q 217.25 16.338 217.25 14.55 L 217.25 8.5 A 3.534 3.534 0 0 1 217.315 7.799 Q 217.398 7.39 217.587 7.08 A 1.773 1.773 0 0 1 217.95 6.65 L 224.4 1.2 Q 224.825 0.853 225.546 0.774 A 4.16 4.16 0 0 1 226 0.75 L 247.3 0.75 A 3.311 3.311 0 0 1 248.21 0.864 Q 249.6 1.262 249.6 3.05 L 249.6 9.1 A 3.534 3.534 0 0 1 249.535 9.801 Q 249.452 10.21 249.264 10.521 A 1.773 1.773 0 0 1 248.9 10.95 L 242.95 15.95 L 242.95 27.2 L 247.3 27.2 A 3.311 3.311 0 0 1 248.21 27.314 Q 249.6 27.712 249.6 29.5 L 249.6 35.45 A 3.534 3.534 0 0 1 249.535 36.151 Q 249.452 36.56 249.264 36.871 A 1.773 1.773 0 0 1 248.9 37.3 L 242.4 42.7 A 1.533 1.533 0 0 1 241.822 43.055 Q 241.416 43.2 240.85 43.2 Z M 320.3 43.2 L 297.1 43.2 A 3.311 3.311 0 0 1 296.19 43.086 Q 294.8 42.688 294.8 40.9 L 294.8 8.5 A 3.534 3.534 0 0 1 294.865 7.799 Q 294.948 7.39 295.137 7.08 A 1.773 1.773 0 0 1 295.5 6.65 L 301.95 1.2 Q 302.375 0.853 303.096 0.774 A 4.16 4.16 0 0 1 303.55 0.75 L 326.75 0.75 A 3.311 3.311 0 0 1 327.66 0.864 Q 329.05 1.262 329.05 3.05 L 329.05 8.9 A 3.534 3.534 0 0 1 328.985 9.601 Q 328.902 10.01 328.714 10.321 A 1.773 1.773 0 0 1 328.35 10.75 L 324.05 14.3 A 1.627 1.627 0 0 1 324.83 15.225 Q 324.941 15.531 324.98 15.918 A 4.356 4.356 0 0 1 325 16.35 L 325 21.7 A 3.534 3.534 0 0 1 324.935 22.401 Q 324.852 22.81 324.664 23.121 A 1.773 1.773 0 0 1 324.3 23.55 L 319.85 27.3 L 326.75 27.3 A 3.311 3.311 0 0 1 327.66 27.414 Q 329.05 27.812 329.05 29.6 L 329.05 35.45 A 3.534 3.534 0 0 1 328.985 36.151 Q 328.902 36.56 328.714 36.871 A 1.773 1.773 0 0 1 328.35 37.3 L 321.85 42.7 A 1.533 1.533 0 0 1 321.272 43.055 Q 320.866 43.2 320.3 43.2 Z M 27.75 43.2 L 2.3 43.2 A 3.311 3.311 0 0 1 1.39 43.086 Q 0 42.688 0 40.9 L 0 8.5 A 3.534 3.534 0 0 1 0.065 7.799 Q 0.148 7.39 0.337 7.08 A 1.773 1.773 0 0 1 0.7 6.65 L 7.15 1.2 Q 7.575 0.853 8.296 0.774 A 4.16 4.16 0 0 1 8.75 0.75 L 16.5 0.75 A 3.311 3.311 0 0 1 17.41 0.864 Q 18.8 1.262 18.8 3.05 L 18.8 23.4 L 18.9 23.3 L 25.35 17.85 Q 25.775 17.503 26.496 17.424 A 4.16 4.16 0 0 1 26.95 17.4 L 34.2 17.4 A 3.311 3.311 0 0 1 35.11 17.514 Q 36.5 17.912 36.5 19.7 L 36.5 35.45 A 3.534 3.534 0 0 1 36.435 36.151 Q 36.352 36.56 36.164 36.871 A 1.773 1.773 0 0 1 35.8 37.3 L 29.3 42.7 A 1.533 1.533 0 0 1 28.722 43.055 Q 28.316 43.2 27.75 43.2 Z M 206.05 43.2 L 180.6 43.2 A 3.311 3.311 0 0 1 179.69 43.086 Q 178.3 42.688 178.3 40.9 L 178.3 8.5 A 3.534 3.534 0 0 1 178.365 7.799 Q 178.448 7.39 178.637 7.08 A 1.773 1.773 0 0 1 179 6.65 L 185.45 1.2 Q 185.875 0.853 186.596 0.774 A 4.16 4.16 0 0 1 187.05 0.75 L 194.8 0.75 A 3.311 3.311 0 0 1 195.71 0.864 Q 197.1 1.262 197.1 3.05 L 197.1 23.4 L 197.2 23.3 L 203.65 17.85 Q 204.075 17.503 204.796 17.424 A 4.16 4.16 0 0 1 205.25 17.4 L 212.5 17.4 A 3.311 3.311 0 0 1 213.41 17.514 Q 214.8 17.912 214.8 19.7 L 214.8 35.45 A 3.534 3.534 0 0 1 214.735 36.151 Q 214.652 36.56 214.464 36.871 A 1.773 1.773 0 0 1 214.1 37.3 L 207.6 42.7 A 1.533 1.533 0 0 1 207.022 43.055 Q 206.616 43.2 206.05 43.2 Z M 8.75 37.25 L 34.2 37.25 A 2.591 2.591 0 0 0 34.913 37.161 Q 36 36.849 36 35.45 L 36 19.7 A 2.591 2.591 0 0 0 35.911 18.988 Q 35.599 17.9 34.2 17.9 L 26.95 17.9 A 2.591 2.591 0 0 0 26.238 17.989 Q 25.15 18.301 25.15 19.7 L 25.15 27.8 L 18.3 27.8 L 18.3 3.05 A 2.591 2.591 0 0 0 18.211 2.338 Q 17.899 1.25 16.5 1.25 L 8.75 1.25 A 2.591 2.591 0 0 0 8.038 1.339 Q 6.95 1.651 6.95 3.05 L 6.95 35.45 A 2.591 2.591 0 0 0 7.039 36.162 Q 7.351 37.25 8.75 37.25 Z M 187.05 37.25 L 212.5 37.25 A 2.591 2.591 0 0 0 213.213 37.161 Q 214.3 36.849 214.3 35.45 L 214.3 19.7 A 2.591 2.591 0 0 0 214.211 18.988 Q 213.899 17.9 212.5 17.9 L 205.25 17.9 A 2.591 2.591 0 0 0 204.538 17.989 Q 203.45 18.301 203.45 19.7 L 203.45 27.8 L 196.6 27.8 L 196.6 3.05 A 2.591 2.591 0 0 0 196.511 2.338 Q 196.199 1.25 194.8 1.25 L 187.05 1.25 A 2.591 2.591 0 0 0 186.338 1.339 Q 185.25 1.651 185.25 3.05 L 185.25 35.45 A 2.591 2.591 0 0 0 185.339 36.162 Q 185.651 37.25 187.05 37.25 Z M 307.7 32.25 L 324.05 32.25 L 324.05 32.75 L 307.2 32.75 L 307.2 5.75 L 324.05 5.75 L 324.05 6.25 L 307.7 6.25 L 307.7 18.8 L 320 18.8 L 320 19.3 L 307.7 19.3 L 307.7 32.25 Z M 226 37.25 L 247.3 37.25 A 2.591 2.591 0 0 0 248.013 37.161 Q 249.1 36.849 249.1 35.45 L 249.1 29.5 A 2.591 2.591 0 0 0 249.011 28.788 Q 248.699 27.7 247.3 27.7 L 242.45 27.7 L 242.45 10.9 L 247.3 10.9 A 2.591 2.591 0 0 0 248.013 10.811 Q 249.1 10.499 249.1 9.1 L 249.1 3.05 A 2.591 2.591 0 0 0 249.011 2.338 Q 248.699 1.25 247.3 1.25 L 226 1.25 A 2.591 2.591 0 0 0 225.288 1.339 Q 224.2 1.651 224.2 3.05 L 224.2 9.1 A 2.591 2.591 0 0 0 224.289 9.812 Q 224.601 10.9 226 10.9 L 230.95 10.9 L 230.95 27.7 L 226 27.7 A 2.591 2.591 0 0 0 225.288 27.789 Q 224.2 28.101 224.2 29.5 L 224.2 35.45 A 2.591 2.591 0 0 0 224.289 36.162 Q 224.601 37.25 226 37.25 Z M 74.7 35.4 L 68.25 40.8 A 9.126 9.126 0 0 1 66.492 41.965 Q 65.157 42.655 63.375 43.125 A 21.261 21.261 0 0 1 60.887 43.612 Q 59.67 43.781 58.261 43.865 A 50.35 50.35 0 0 1 55.25 43.95 A 39.767 39.767 0 0 1 52.088 43.832 Q 50.507 43.705 49.163 43.444 A 17.624 17.624 0 0 1 47.2 42.95 A 16.225 16.225 0 0 1 45.035 42.098 Q 43.907 41.552 43.037 40.871 A 8.583 8.583 0 0 1 42.3 40.225 A 9.56 9.56 0 0 1 40.348 37.516 A 8.926 8.926 0 0 1 39.875 36.3 Q 39.2 34.1 39.2 31.75 L 39.2 16.2 A 14.782 14.782 0 0 1 39.418 13.617 A 12.106 12.106 0 0 1 39.85 11.9 Q 40.5 9.95 42.2 8.55 L 48.7 3.15 A 9.126 9.126 0 0 1 50.458 1.986 Q 51.793 1.296 53.575 0.825 A 21.261 21.261 0 0 1 56.064 0.339 Q 57.28 0.169 58.69 0.085 A 50.35 50.35 0 0 1 61.7 0 A 51.26 51.26 0 0 1 64.862 0.092 Q 66.405 0.187 67.722 0.383 A 22.057 22.057 0 0 1 69.75 0.775 A 17.366 17.366 0 0 1 71.747 1.388 Q 72.757 1.77 73.561 2.249 A 8.071 8.071 0 0 1 74.625 3 A 8.066 8.066 0 0 1 76.367 5.011 A 7.318 7.318 0 0 1 77.025 6.425 A 12.62 12.62 0 0 1 77.644 9.423 A 15.303 15.303 0 0 1 77.7 10.75 L 77.7 27.8 Q 77.7 30.1 77.05 32.025 Q 76.4 33.95 74.7 35.4 Z M 116.55 35.4 L 110.1 40.8 A 9.126 9.126 0 0 1 108.342 41.965 Q 107.007 42.655 105.225 43.125 A 21.261 21.261 0 0 1 102.737 43.612 Q 101.52 43.781 100.111 43.865 A 50.35 50.35 0 0 1 97.1 43.95 A 39.767 39.767 0 0 1 93.938 43.832 Q 92.357 43.705 91.013 43.444 A 17.624 17.624 0 0 1 89.05 42.95 A 16.225 16.225 0 0 1 86.885 42.098 Q 85.757 41.552 84.887 40.871 A 8.583 8.583 0 0 1 84.15 40.225 A 9.56 9.56 0 0 1 82.198 37.516 A 8.926 8.926 0 0 1 81.725 36.3 Q 81.05 34.1 81.05 31.75 L 81.05 16.2 A 14.782 14.782 0 0 1 81.268 13.617 A 12.106 12.106 0 0 1 81.7 11.9 Q 82.35 9.95 84.05 8.55 L 90.55 3.15 A 9.126 9.126 0 0 1 92.308 1.986 Q 93.643 1.296 95.425 0.825 A 21.261 21.261 0 0 1 97.914 0.339 Q 99.13 0.169 100.54 0.085 A 50.35 50.35 0 0 1 103.55 0 A 51.26 51.26 0 0 1 106.712 0.092 Q 108.255 0.187 109.572 0.383 A 22.057 22.057 0 0 1 111.6 0.775 A 17.366 17.366 0 0 1 113.597 1.388 Q 114.607 1.77 115.411 2.249 A 8.071 8.071 0 0 1 116.475 3 A 8.066 8.066 0 0 1 118.217 5.011 A 7.318 7.318 0 0 1 118.875 6.425 A 12.62 12.62 0 0 1 119.494 9.423 A 15.303 15.303 0 0 1 119.55 10.75 L 119.55 27.8 Q 119.55 30.1 118.9 32.025 Q 118.25 33.95 116.55 35.4 Z M 133.5 43.2 L 125.75 43.2 A 3.311 3.311 0 0 1 124.84 43.086 Q 123.45 42.688 123.45 40.9 L 123.45 8.5 A 3.534 3.534 0 0 1 123.515 7.799 Q 123.598 7.39 123.787 7.08 A 1.773 1.773 0 0 1 124.15 6.65 L 130.6 1.2 Q 131.025 0.853 131.746 0.774 A 4.16 4.16 0 0 1 132.2 0.75 L 147.5 0.75 A 28.656 28.656 0 0 1 150.293 0.877 Q 153.089 1.152 154.914 2.021 A 8.491 8.491 0 0 1 154.975 2.05 A 9.106 9.106 0 0 1 156.94 3.318 A 6.902 6.902 0 0 1 158.725 5.65 Q 159.8 7.95 159.8 11 L 159.8 17.4 A 14.815 14.815 0 0 1 159.587 19.966 A 12.016 12.016 0 0 1 159.125 21.775 Q 158.45 23.75 156.8 25.15 L 150.3 30.55 A 8.303 8.303 0 0 1 148.875 31.503 Q 148.171 31.88 147.328 32.186 A 14.401 14.401 0 0 1 147.075 32.275 A 12.889 12.889 0 0 1 145.216 32.749 Q 144.295 32.917 143.238 32.996 A 24.787 24.787 0 0 1 142.25 33.05 L 142.25 35.45 A 3.534 3.534 0 0 1 142.185 36.151 Q 142.102 36.56 141.914 36.871 A 1.773 1.773 0 0 1 141.55 37.3 L 135.05 42.7 A 1.533 1.533 0 0 1 134.472 43.055 Q 134.066 43.2 133.5 43.2 Z M 265.15 5.75 L 265.65 5.75 L 265.65 16.55 A 15.312 15.312 0 0 0 265.793 18.695 Q 265.951 19.814 266.286 20.769 A 8.944 8.944 0 0 0 266.45 21.2 L 269.75 29.2 Q 270.221 30.312 270.728 31.113 A 8.537 8.537 0 0 0 270.9 31.375 Q 271.5 32.25 272.9 32.25 L 277.3 32.25 Q 278.227 32.25 278.807 31.893 A 1.794 1.794 0 0 0 279.35 31.375 Q 279.866 30.623 280.308 29.557 A 14.935 14.935 0 0 0 280.45 29.2 L 283.75 21.2 Q 284.494 19.387 284.546 16.926 A 17.699 17.699 0 0 0 284.55 16.55 L 284.55 5.75 L 285.05 5.75 L 285.05 16.55 Q 285.05 17.95 284.875 19.125 Q 284.7 20.3 284.25 21.4 L 280.95 29.4 Q 280.35 30.85 279.625 31.8 Q 278.9 32.75 277.3 32.75 L 272.9 32.75 Q 271.35 32.75 270.6 31.8 A 8.194 8.194 0 0 1 269.93 30.8 Q 269.569 30.17 269.25 29.4 L 265.95 21.4 Q 265.5 20.3 265.325 19.125 A 15.739 15.739 0 0 1 265.184 17.732 A 20.142 20.142 0 0 1 265.15 16.55 L 265.15 5.75 Z M 132.2 37.25 L 139.95 37.25 A 2.591 2.591 0 0 0 140.663 37.161 Q 141.75 36.849 141.75 35.45 L 141.75 27.15 L 147.5 27.15 A 27.444 27.444 0 0 0 150.151 27.03 Q 152.844 26.768 154.611 25.932 A 8.341 8.341 0 0 0 154.625 25.925 A 8.717 8.717 0 0 0 156.523 24.721 A 6.624 6.624 0 0 0 158.25 22.5 A 10.578 10.578 0 0 0 159.14 19.559 A 13.988 13.988 0 0 0 159.3 17.4 L 159.3 11 A 13.636 13.636 0 0 0 159.07 8.435 A 10.394 10.394 0 0 0 158.25 5.9 A 6.784 6.784 0 0 0 155.953 3.241 A 9.257 9.257 0 0 0 154.625 2.475 A 10.673 10.673 0 0 0 152.519 1.753 Q 150.423 1.252 147.523 1.25 A 34.061 34.061 0 0 0 147.5 1.25 L 132.2 1.25 A 2.591 2.591 0 0 0 131.488 1.339 Q 130.4 1.651 130.4 3.05 L 130.4 35.45 A 2.591 2.591 0 0 0 130.489 36.162 Q 130.801 37.25 132.2 37.25 Z M 77.2 27.8 L 77.2 10.75 A 13.554 13.554 0 0 0 76.993 8.329 A 10.927 10.927 0 0 0 76.525 6.575 A 7.048 7.048 0 0 0 74.584 3.718 A 8.617 8.617 0 0 0 74.15 3.35 Q 72.829 2.301 70.707 1.614 A 19.054 19.054 0 0 0 69.425 1.25 Q 67.238 0.708 64.174 0.558 A 50.627 50.627 0 0 0 61.7 0.5 A 48.755 48.755 0 0 0 58.667 0.589 Q 55.96 0.758 53.975 1.25 A 17.806 17.806 0 0 0 52.052 1.837 Q 51.077 2.199 50.293 2.649 A 8.335 8.335 0 0 0 49.25 3.35 A 7.8 7.8 0 0 0 47.554 5.184 A 7.005 7.005 0 0 0 46.85 6.575 A 11.034 11.034 0 0 0 46.233 9.219 A 13.787 13.787 0 0 0 46.15 10.75 L 46.15 27.8 A 13.064 13.064 0 0 0 46.37 30.245 A 10.606 10.606 0 0 0 46.85 31.975 A 7.243 7.243 0 0 0 48.841 34.854 A 8.782 8.782 0 0 0 49.25 35.2 Q 50.572 36.25 52.694 36.921 A 18.658 18.658 0 0 0 53.975 37.275 Q 56.163 37.799 59.226 37.945 A 52.369 52.369 0 0 0 61.7 38 A 50.431 50.431 0 0 0 64.734 37.914 Q 66.214 37.825 67.478 37.642 A 21.693 21.693 0 0 0 69.425 37.275 A 17.433 17.433 0 0 0 71.348 36.703 Q 72.323 36.346 73.107 35.9 A 8.191 8.191 0 0 0 74.15 35.2 A 7.662 7.662 0 0 0 75.791 33.438 A 6.81 6.81 0 0 0 76.525 31.975 A 11.368 11.368 0 0 0 77.119 29.348 A 14.278 14.278 0 0 0 77.2 27.8 Z M 119.05 27.8 L 119.05 10.75 A 13.554 13.554 0 0 0 118.843 8.329 A 10.927 10.927 0 0 0 118.375 6.575 A 7.048 7.048 0 0 0 116.434 3.718 A 8.617 8.617 0 0 0 116 3.35 Q 114.679 2.301 112.557 1.614 A 19.054 19.054 0 0 0 111.275 1.25 Q 109.088 0.708 106.024 0.558 A 50.627 50.627 0 0 0 103.55 0.5 A 48.755 48.755 0 0 0 100.517 0.589 Q 97.81 0.758 95.825 1.25 A 17.806 17.806 0 0 0 93.902 1.837 Q 92.927 2.199 92.143 2.649 A 8.335 8.335 0 0 0 91.1 3.35 A 7.8 7.8 0 0 0 89.404 5.184 A 7.005 7.005 0 0 0 88.7 6.575 A 11.034 11.034 0 0 0 88.083 9.219 A 13.787 13.787 0 0 0 88 10.75 L 88 27.8 A 13.064 13.064 0 0 0 88.22 30.245 A 10.606 10.606 0 0 0 88.7 31.975 A 7.243 7.243 0 0 0 90.691 34.854 A 8.782 8.782 0 0 0 91.1 35.2 Q 92.422 36.25 94.544 36.921 A 18.658 18.658 0 0 0 95.825 37.275 Q 98.013 37.799 101.076 37.945 A 52.369 52.369 0 0 0 103.55 38 A 50.431 50.431 0 0 0 106.584 37.914 Q 108.064 37.825 109.328 37.642 A 21.693 21.693 0 0 0 111.275 37.275 A 17.433 17.433 0 0 0 113.198 36.703 Q 114.173 36.346 114.957 35.9 A 8.191 8.191 0 0 0 116 35.2 A 7.662 7.662 0 0 0 117.641 33.438 A 6.81 6.81 0 0 0 118.375 31.975 A 11.368 11.368 0 0 0 118.969 29.348 A 14.278 14.278 0 0 0 119.05 27.8 Z M 228.7 6.25 L 228.7 5.75 L 244.6 5.75 L 244.6 6.25 L 236.95 6.25 L 236.95 32.25 L 244.6 32.25 L 244.6 32.75 L 228.7 32.75 L 228.7 32.25 L 236.45 32.25 L 236.45 6.25 L 228.7 6.25 Z M 30.3 22.4 L 30.8 22.4 L 30.8 32.75 L 12.4 32.75 L 12.4 5.75 L 12.9 5.75 L 12.9 32.25 L 30.3 32.25 L 30.3 22.4 Z M 208.6 22.4 L 209.1 22.4 L 209.1 32.75 L 190.7 32.75 L 190.7 5.75 L 191.2 5.75 L 191.2 32.25 L 208.6 32.25 L 208.6 22.4 Z M 146.8 22.9 L 136.5 22.9 L 136.5 32.75 L 136 32.75 L 136 5.75 L 146.8 5.75 A 17.671 17.671 0 0 1 148.536 5.829 Q 150.266 6.001 151.369 6.542 A 4.733 4.733 0 0 1 151.575 6.65 A 5.313 5.313 0 0 1 152.755 7.521 A 4.154 4.154 0 0 1 153.75 9.075 A 9.043 9.043 0 0 1 154.195 10.925 A 12.025 12.025 0 0 1 154.3 12.55 L 154.3 16.25 A 11.797 11.797 0 0 1 154.179 17.979 A 8.689 8.689 0 0 1 153.75 19.7 Q 153.2 21.2 151.575 22.05 A 6.069 6.069 0 0 1 150.311 22.525 Q 149.092 22.847 147.375 22.893 A 21.803 21.803 0 0 1 146.8 22.9 Z M 51.55 26.65 L 51.55 11.9 A 8.071 8.071 0 0 1 51.739 10.113 A 6.191 6.191 0 0 1 52.425 8.35 Q 53.177 7.061 54.908 6.252 A 9.388 9.388 0 0 1 55.5 6 A 10.466 10.466 0 0 1 57.208 5.517 Q 59.037 5.15 61.6 5.15 A 29.674 29.674 0 0 1 63.885 5.232 Q 66.233 5.414 67.75 6 Q 69.95 6.85 70.85 8.35 A 6.248 6.248 0 0 1 71.653 10.614 A 8.238 8.238 0 0 1 71.75 11.9 L 71.75 26.65 A 7.55 7.55 0 0 1 71.511 28.586 A 6.256 6.256 0 0 1 70.85 30.175 A 4.793 4.793 0 0 1 69.552 31.587 Q 68.987 32.005 68.256 32.338 A 9.417 9.417 0 0 1 67.75 32.55 A 10.372 10.372 0 0 1 66.075 33.025 Q 64.346 33.375 61.945 33.398 A 35.65 35.65 0 0 1 61.6 33.4 Q 57.795 33.4 55.608 32.591 A 8.073 8.073 0 0 1 55.5 32.55 A 8.12 8.12 0 0 1 54.144 31.886 Q 52.999 31.176 52.425 30.175 A 6.589 6.589 0 0 1 51.612 27.679 A 8.356 8.356 0 0 1 51.55 26.65 Z M 93.4 26.65 L 93.4 11.9 A 8.071 8.071 0 0 1 93.589 10.113 A 6.191 6.191 0 0 1 94.275 8.35 Q 95.027 7.061 96.758 6.252 A 9.388 9.388 0 0 1 97.35 6 A 10.466 10.466 0 0 1 99.058 5.517 Q 100.887 5.15 103.45 5.15 A 29.674 29.674 0 0 1 105.735 5.232 Q 108.083 5.414 109.6 6 Q 111.8 6.85 112.7 8.35 A 6.248 6.248 0 0 1 113.503 10.614 A 8.238 8.238 0 0 1 113.6 11.9 L 113.6 26.65 A 7.55 7.55 0 0 1 113.361 28.586 A 6.256 6.256 0 0 1 112.7 30.175 A 4.793 4.793 0 0 1 111.402 31.587 Q 110.837 32.005 110.106 32.338 A 9.417 9.417 0 0 1 109.6 32.55 A 10.372 10.372 0 0 1 107.925 33.025 Q 106.196 33.375 103.795 33.398 A 35.65 35.65 0 0 1 103.45 33.4 Q 99.645 33.4 97.458 32.591 A 8.073 8.073 0 0 1 97.35 32.55 A 8.12 8.12 0 0 1 95.994 31.886 Q 94.849 31.176 94.275 30.175 A 6.589 6.589 0 0 1 93.462 27.679 A 8.356 8.356 0 0 1 93.4 26.65 Z M 71.25 26.65 L 71.25 11.9 A 7.169 7.169 0 0 0 71.063 10.229 A 5.648 5.648 0 0 0 70.4 8.6 Q 69.683 7.419 68.076 6.683 A 8.9 8.9 0 0 0 67.45 6.425 A 10.277 10.277 0 0 0 65.853 5.992 Q 64.208 5.673 61.928 5.652 A 35.242 35.242 0 0 0 61.6 5.65 A 28.668 28.668 0 0 0 59.444 5.726 Q 57.326 5.886 55.909 6.386 A 7.99 7.99 0 0 0 55.8 6.425 Q 54.276 6.988 53.424 7.879 A 3.928 3.928 0 0 0 52.875 8.6 A 5.897 5.897 0 0 0 52.139 10.707 A 7.739 7.739 0 0 0 52.05 11.9 L 52.05 26.65 A 7.06 7.06 0 0 0 52.283 28.496 A 5.915 5.915 0 0 0 52.875 29.925 A 4.254 4.254 0 0 0 54.042 31.205 Q 54.767 31.744 55.8 32.125 A 10.364 10.364 0 0 0 57.423 32.564 Q 59.165 32.9 61.6 32.9 A 29.343 29.343 0 0 0 63.78 32.825 Q 66.005 32.658 67.45 32.125 A 7.765 7.765 0 0 0 68.74 31.519 Q 69.428 31.109 69.904 30.589 A 4.062 4.062 0 0 0 70.4 29.925 Q 71.25 28.5 71.25 26.65 Z M 113.1 26.65 L 113.1 11.9 A 7.169 7.169 0 0 0 112.913 10.229 A 5.648 5.648 0 0 0 112.25 8.6 Q 111.533 7.419 109.926 6.683 A 8.9 8.9 0 0 0 109.3 6.425 A 10.277 10.277 0 0 0 107.703 5.992 Q 106.058 5.673 103.778 5.652 A 35.242 35.242 0 0 0 103.45 5.65 A 28.668 28.668 0 0 0 101.294 5.726 Q 99.176 5.886 97.759 6.386 A 7.99 7.99 0 0 0 97.65 6.425 Q 96.126 6.988 95.274 7.879 A 3.928 3.928 0 0 0 94.725 8.6 A 5.897 5.897 0 0 0 93.989 10.707 A 7.739 7.739 0 0 0 93.9 11.9 L 93.9 26.65 A 7.06 7.06 0 0 0 94.133 28.496 A 5.915 5.915 0 0 0 94.725 29.925 A 4.254 4.254 0 0 0 95.892 31.205 Q 96.617 31.744 97.65 32.125 A 10.364 10.364 0 0 0 99.273 32.564 Q 101.015 32.9 103.45 32.9 A 29.343 29.343 0 0 0 105.63 32.825 Q 107.855 32.658 109.3 32.125 A 7.765 7.765 0 0 0 110.59 31.519 Q 111.278 31.109 111.754 30.589 A 4.062 4.062 0 0 0 112.25 29.925 Q 113.1 28.5 113.1 26.65 Z M 136.5 22.4 L 146.8 22.4 A 18.143 18.143 0 0 0 148.345 22.339 Q 149.901 22.205 150.914 21.782 A 4.606 4.606 0 0 0 151.25 21.625 A 4.668 4.668 0 0 0 152.359 20.844 A 3.739 3.739 0 0 0 153.275 19.45 A 8.037 8.037 0 0 0 153.7 17.749 A 10.708 10.708 0 0 0 153.8 16.25 L 153.8 12.55 A 10.617 10.617 0 0 0 153.669 10.844 A 8.19 8.19 0 0 0 153.275 9.325 Q 152.75 7.9 151.25 7.075 A 5.431 5.431 0 0 0 150.063 6.61 Q 148.879 6.286 147.182 6.254 A 20.091 20.091 0 0 0 146.8 6.25 L 136.5 6.25 L 136.5 22.4 Z M 57.5 26 L 57.5 12.55 A 2.171 2.171 0 0 1 57.7 11.612 A 2.16 2.16 0 0 1 58.25 10.9 A 1.75 1.75 0 0 1 58.776 10.604 Q 59.617 10.284 61.325 10.253 A 20.739 20.739 0 0 1 61.7 10.25 A 18.085 18.085 0 0 1 62.805 10.281 Q 64.404 10.38 65.031 10.79 A 1.204 1.204 0 0 1 65.175 10.9 A 2.103 2.103 0 0 1 65.897 12.426 A 2.672 2.672 0 0 1 65.9 12.55 L 65.9 26 A 2.257 2.257 0 0 1 65.671 27.022 A 2.285 2.285 0 0 1 65.175 27.675 Q 64.502 28.302 62.083 28.347 A 20.687 20.687 0 0 1 61.7 28.35 Q 59.225 28.35 58.389 27.783 A 1.283 1.283 0 0 1 58.25 27.675 A 2.235 2.235 0 0 1 57.66 26.853 A 2.243 2.243 0 0 1 57.5 26 Z M 99.35 26 L 99.35 12.55 A 2.171 2.171 0 0 1 99.55 11.612 A 2.16 2.16 0 0 1 100.1 10.9 A 1.75 1.75 0 0 1 100.626 10.604 Q 101.467 10.284 103.175 10.253 A 20.739 20.739 0 0 1 103.55 10.25 A 18.085 18.085 0 0 1 104.655 10.281 Q 106.254 10.38 106.881 10.79 A 1.204 1.204 0 0 1 107.025 10.9 A 2.103 2.103 0 0 1 107.747 12.426 A 2.672 2.672 0 0 1 107.75 12.55 L 107.75 26 A 2.257 2.257 0 0 1 107.521 27.022 A 2.285 2.285 0 0 1 107.025 27.675 Q 106.352 28.302 103.933 28.347 A 20.687 20.687 0 0 1 103.55 28.35 Q 101.075 28.35 100.239 27.783 A 1.283 1.283 0 0 1 100.1 27.675 A 2.235 2.235 0 0 1 99.51 26.853 A 2.243 2.243 0 0 1 99.35 26 Z M 141.65 18.15 L 141.65 10.6 L 146.15 10.6 A 4.492 4.492 0 0 1 146.794 10.643 Q 147.547 10.752 147.911 11.143 A 1.177 1.177 0 0 1 148.05 11.325 A 2.958 2.958 0 0 1 148.452 12.423 A 3.909 3.909 0 0 1 148.5 13.05 L 148.5 15.7 Q 148.5 16.65 148.05 17.4 Q 147.6 18.15 146.15 18.15 L 141.65 18.15 Z M 58 16.55 L 58 26 A 2.121 2.121 0 0 0 58.044 26.441 A 1.641 1.641 0 0 0 58.2 26.875 Q 58.36 27.174 58.742 27.394 A 2.469 2.469 0 0 0 58.95 27.5 L 58.95 18 A 2.121 2.121 0 0 0 58.906 17.559 A 1.641 1.641 0 0 0 58.75 17.125 Q 58.581 16.808 58.161 16.616 A 2.17 2.17 0 0 0 58 16.55 Z M 99.85 16.55 L 99.85 26 A 2.121 2.121 0 0 0 99.894 26.441 A 1.641 1.641 0 0 0 100.05 26.875 Q 100.21 27.174 100.592 27.394 A 2.469 2.469 0 0 0 100.8 27.5 L 100.8 18 A 2.121 2.121 0 0 0 100.756 17.559 A 1.641 1.641 0 0 0 100.6 17.125 Q 100.431 16.808 100.011 16.616 A 2.17 2.17 0 0 0 99.85 16.55 Z" vector-effect="non-scaling-stroke"/></g></svg>