<svg width="658.101" height="87.9" viewBox="0 0 658.101 87.9" xmlns="http://www.w3.org/2000/svg"><g id="svgGroup" stroke-linecap="round" fill-rule="evenodd" font-size="9pt" stroke="#000000" stroke-width="1" fill="#000000" style="stroke:#000000;stroke-width:1;fill:#000000"><path d="M 607.101 74.5 L 653.501 74.5 A 5.183 5.183 0 0 0 654.925 74.322 Q 656.523 73.864 656.947 72.233 A 5.304 5.304 0 0 0 657.101 70.9 L 657.101 59.2 A 5.183 5.183 0 0 0 656.922 57.776 Q 656.464 56.178 654.834 55.754 A 5.304 5.304 0 0 0 653.501 55.6 L 625.901 55.6 L 625.901 47 L 645.401 47 A 5.183 5.183 0 0 0 646.825 46.822 Q 648.423 46.364 648.847 44.733 A 5.304 5.304 0 0 0 649.001 43.4 L 649.001 32.7 A 5.183 5.183 0 0 0 648.822 31.276 Q 648.364 29.678 646.734 29.254 A 5.304 5.304 0 0 0 645.401 29.1 L 625.901 29.1 L 625.901 21.4 L 653.501 21.4 A 5.183 5.183 0 0 0 654.925 21.222 Q 656.523 20.764 656.947 19.133 A 5.304 5.304 0 0 0 657.101 17.8 L 657.101 6.1 A 5.183 5.183 0 0 0 656.922 4.676 Q 656.464 3.078 654.834 2.654 A 5.304 5.304 0 0 0 653.501 2.5 L 607.101 2.5 A 5.183 5.183 0 0 0 605.676 2.679 Q 604.078 3.136 603.654 4.767 A 5.304 5.304 0 0 0 603.501 6.1 L 603.501 70.9 A 5.183 5.183 0 0 0 603.679 72.325 Q 604.137 73.922 605.767 74.347 A 5.304 5.304 0 0 0 607.101 74.5 Z M 550.201 86.4 L 524.201 86.4 A 10.173 10.173 0 0 1 522.726 86.3 Q 521.419 86.108 520.501 85.55 Q 519.101 84.7 518.201 82.5 L 508.401 58 Q 507.26 55.055 506.526 53.057 A 160.361 160.361 0 0 1 506.451 52.85 Q 505.701 50.8 505.401 48.7 Q 505.185 47.189 505.124 45.108 A 58.851 58.851 0 0 1 505.101 43.4 L 505.101 17 A 7.067 7.067 0 0 1 505.23 15.597 Q 505.527 14.135 506.501 13.3 L 519.401 2.4 A 3.559 3.559 0 0 1 520.554 1.785 Q 521.419 1.5 522.601 1.5 L 538.501 1.5 Q 543.401 1.5 543.401 6.1 L 543.401 33.7 Q 543.401 34.7 543.601 35.55 Q 543.772 36.281 544.018 37.196 A 80.569 80.569 0 0 0 544.101 37.5 L 544.401 38.2 L 544.401 17 A 7.067 7.067 0 0 1 544.53 15.597 Q 544.827 14.135 545.801 13.3 L 558.701 2.4 A 3.559 3.559 0 0 1 559.854 1.785 Q 560.719 1.5 561.901 1.5 L 577.601 1.5 A 8.985 8.985 0 0 1 578.826 1.578 Q 580.264 1.776 581.031 2.483 A 2.591 2.591 0 0 1 581.151 2.6 Q 581.914 3.4 582.122 4.887 A 8.767 8.767 0 0 1 582.201 6.1 L 582.201 32.5 A 56.354 56.354 0 0 1 582.162 34.658 Q 582.093 36.455 581.901 37.8 Q 581.601 39.9 580.901 41.95 Q 580.43 43.328 579.689 45.179 A 127.942 127.942 0 0 1 578.901 47.1 L 569.101 71.6 A 5.793 5.793 0 0 1 568.706 72.522 A 4.654 4.654 0 0 1 568.301 73.15 A 12.999 12.999 0 0 1 567.738 73.834 A 10.402 10.402 0 0 1 567.301 74.3 L 554.401 85 Q 552.901 86.4 550.201 86.4 Z M 537.101 74.5 L 563.101 74.5 Q 565.101 74.5 566.301 73.8 A 3.489 3.489 0 0 0 567.284 72.921 Q 567.613 72.501 567.885 71.944 A 7.998 7.998 0 0 0 568.201 71.2 L 578.001 46.7 A 196.945 196.945 0 0 0 578.569 45.263 Q 579.376 43.2 579.901 41.7 Q 580.601 39.7 580.901 37.65 A 24.661 24.661 0 0 0 581.08 36.003 Q 581.148 35.136 581.178 34.136 A 55.457 55.457 0 0 0 581.201 32.5 L 581.201 6.1 A 5.183 5.183 0 0 0 581.022 4.676 Q 580.564 3.078 578.934 2.654 A 5.304 5.304 0 0 0 577.601 2.5 L 561.901 2.5 A 5.183 5.183 0 0 0 560.476 2.679 Q 558.878 3.136 558.454 4.767 A 5.304 5.304 0 0 0 558.301 6.1 L 558.301 33.6 Q 558.301 34.6 558.101 35.6 A 13.391 13.391 0 0 1 557.772 36.889 A 16.479 16.479 0 0 1 557.501 37.7 L 552.801 51.8 A 3.533 3.533 0 0 1 552.506 52.524 Q 551.961 53.5 550.901 53.5 L 549.801 53.5 Q 548.401 53.5 547.901 51.8 L 543.201 37.8 A 15.694 15.694 0 0 1 542.787 36.497 A 12.76 12.76 0 0 1 542.601 35.7 Q 542.401 34.7 542.401 33.7 L 542.401 6.1 Q 542.401 3.269 539.988 2.664 A 6.139 6.139 0 0 0 538.501 2.5 L 522.601 2.5 A 5.183 5.183 0 0 0 521.176 2.679 Q 519.578 3.136 519.154 4.767 A 5.304 5.304 0 0 0 519.001 6.1 L 519.001 32.5 A 53.044 53.044 0 0 0 519.039 34.593 Q 519.078 35.574 519.156 36.419 A 23.263 23.263 0 0 0 519.301 37.65 Q 519.601 39.7 520.301 41.7 Q 520.966 43.601 522.082 46.404 A 219.111 219.111 0 0 0 522.201 46.7 L 532.001 71.2 A 8.197 8.197 0 0 0 532.54 72.27 Q 532.858 72.795 533.223 73.177 A 3.556 3.556 0 0 0 534.001 73.8 A 4.746 4.746 0 0 0 535.267 74.3 Q 536.084 74.5 537.101 74.5 Z M 481.701 86.4 L 439.101 86.4 A 6.622 6.622 0 0 1 437.28 86.172 Q 435.239 85.587 434.697 83.504 A 6.777 6.777 0 0 1 434.501 81.8 L 434.501 69.9 A 7.067 7.067 0 0 1 434.63 68.497 Q 434.927 67.035 435.901 66.2 L 448.001 56 L 448.001 33.7 L 439.101 33.7 A 6.622 6.622 0 0 1 437.28 33.472 Q 435.239 32.887 434.697 30.804 A 6.777 6.777 0 0 1 434.501 29.1 L 434.501 17 A 7.067 7.067 0 0 1 434.63 15.597 Q 434.927 14.135 435.901 13.3 L 448.801 2.4 A 3.559 3.559 0 0 1 449.954 1.785 Q 450.819 1.5 452.001 1.5 L 494.601 1.5 A 6.622 6.622 0 0 1 496.421 1.728 Q 498.462 2.313 499.004 4.397 A 6.777 6.777 0 0 1 499.201 6.1 L 499.201 18.2 A 7.067 7.067 0 0 1 499.071 19.603 Q 498.774 21.066 497.801 21.9 L 485.901 31.9 L 485.901 54.4 L 494.601 54.4 A 6.622 6.622 0 0 1 496.421 54.628 Q 498.462 55.213 499.004 57.297 A 6.777 6.777 0 0 1 499.201 59 L 499.201 70.9 A 7.067 7.067 0 0 1 499.071 72.303 Q 498.774 73.766 497.801 74.6 L 484.801 85.4 A 3.065 3.065 0 0 1 483.645 86.11 Q 483.163 86.282 482.568 86.352 A 7.422 7.422 0 0 1 481.701 86.4 Z M 640.601 86.4 L 594.201 86.4 A 6.622 6.622 0 0 1 592.38 86.172 Q 590.339 85.587 589.797 83.504 A 6.777 6.777 0 0 1 589.601 81.8 L 589.601 17 A 7.067 7.067 0 0 1 589.73 15.597 Q 590.027 14.135 591.001 13.3 L 603.901 2.4 A 3.559 3.559 0 0 1 605.054 1.785 Q 605.919 1.5 607.101 1.5 L 653.501 1.5 A 6.622 6.622 0 0 1 655.321 1.728 Q 657.362 2.313 657.904 4.397 A 6.777 6.777 0 0 1 658.101 6.1 L 658.101 17.8 A 7.067 7.067 0 0 1 657.971 19.203 Q 657.674 20.666 656.701 21.5 L 648.101 28.6 Q 649.722 29.454 649.96 31.837 A 8.712 8.712 0 0 1 650.001 32.7 L 650.001 43.4 A 7.067 7.067 0 0 1 649.871 44.803 Q 649.574 46.266 648.601 47.1 L 639.701 54.6 L 653.501 54.6 A 6.622 6.622 0 0 1 655.321 54.828 Q 657.362 55.413 657.904 57.497 A 6.777 6.777 0 0 1 658.101 59.2 L 658.101 70.9 A 7.067 7.067 0 0 1 657.971 72.303 Q 657.674 73.766 656.701 74.6 L 643.701 85.4 A 3.065 3.065 0 0 1 642.545 86.11 Q 642.063 86.282 641.468 86.352 A 7.422 7.422 0 0 1 640.601 86.4 Z M 55.501 86.4 L 4.601 86.4 A 6.622 6.622 0 0 1 2.78 86.172 Q 0.739 85.587 0.197 83.504 A 6.777 6.777 0 0 1 0.001 81.8 L 0.001 17 A 7.067 7.067 0 0 1 0.13 15.597 Q 0.427 14.135 1.401 13.3 L 14.301 2.4 A 3.559 3.559 0 0 1 15.454 1.785 Q 16.319 1.5 17.501 1.5 L 33.001 1.5 A 6.622 6.622 0 0 1 34.821 1.728 Q 36.862 2.313 37.404 4.397 A 6.777 6.777 0 0 1 37.601 6.1 L 37.601 46.8 L 37.801 46.6 L 50.701 35.7 A 3.559 3.559 0 0 1 51.854 35.085 Q 52.719 34.8 53.901 34.8 L 68.401 34.8 A 6.622 6.622 0 0 1 70.221 35.028 Q 72.262 35.613 72.804 37.697 A 6.777 6.777 0 0 1 73.001 39.4 L 73.001 70.9 A 7.067 7.067 0 0 1 72.871 72.303 Q 72.574 73.766 71.601 74.6 L 58.601 85.4 A 3.065 3.065 0 0 1 57.445 86.11 Q 56.963 86.282 56.368 86.352 A 7.422 7.422 0 0 1 55.501 86.4 Z M 412.101 86.4 L 361.201 86.4 A 6.622 6.622 0 0 1 359.38 86.172 Q 357.339 85.587 356.797 83.504 A 6.777 6.777 0 0 1 356.601 81.8 L 356.601 17 A 7.067 7.067 0 0 1 356.73 15.597 Q 357.027 14.135 358.001 13.3 L 370.901 2.4 A 3.559 3.559 0 0 1 372.054 1.785 Q 372.919 1.5 374.101 1.5 L 389.601 1.5 A 6.622 6.622 0 0 1 391.421 1.728 Q 393.462 2.313 394.004 4.397 A 6.777 6.777 0 0 1 394.201 6.1 L 394.201 46.8 L 394.401 46.6 L 407.301 35.7 A 3.559 3.559 0 0 1 408.454 35.085 Q 409.319 34.8 410.501 34.8 L 425.001 34.8 A 6.622 6.622 0 0 1 426.821 35.028 Q 428.862 35.613 429.404 37.697 A 6.777 6.777 0 0 1 429.601 39.4 L 429.601 70.9 A 7.067 7.067 0 0 1 429.471 72.303 Q 429.174 73.766 428.201 74.6 L 415.201 85.4 A 3.065 3.065 0 0 1 414.045 86.11 Q 413.563 86.282 412.968 86.352 A 7.422 7.422 0 0 1 412.101 86.4 Z M 17.501 74.5 L 68.401 74.5 A 5.183 5.183 0 0 0 69.825 74.322 Q 71.423 73.864 71.847 72.233 A 5.304 5.304 0 0 0 72.001 70.9 L 72.001 39.4 A 5.183 5.183 0 0 0 71.822 37.976 Q 71.364 36.378 69.734 35.954 A 5.304 5.304 0 0 0 68.401 35.8 L 53.901 35.8 A 5.183 5.183 0 0 0 52.476 35.979 Q 50.878 36.436 50.454 38.067 A 5.304 5.304 0 0 0 50.301 39.4 L 50.301 55.6 L 36.601 55.6 L 36.601 6.1 A 5.183 5.183 0 0 0 36.422 4.676 Q 35.964 3.078 34.334 2.654 A 5.304 5.304 0 0 0 33.001 2.5 L 17.501 2.5 A 5.183 5.183 0 0 0 16.076 2.679 Q 14.478 3.136 14.054 4.767 A 5.304 5.304 0 0 0 13.901 6.1 L 13.901 70.9 A 5.183 5.183 0 0 0 14.079 72.325 Q 14.537 73.922 16.167 74.347 A 5.304 5.304 0 0 0 17.501 74.5 Z M 374.101 74.5 L 425.001 74.5 A 5.183 5.183 0 0 0 426.425 74.322 Q 428.023 73.864 428.447 72.233 A 5.304 5.304 0 0 0 428.601 70.9 L 428.601 39.4 A 5.183 5.183 0 0 0 428.422 37.976 Q 427.964 36.378 426.334 35.954 A 5.304 5.304 0 0 0 425.001 35.8 L 410.501 35.8 A 5.183 5.183 0 0 0 409.076 35.979 Q 407.478 36.436 407.054 38.067 A 5.304 5.304 0 0 0 406.901 39.4 L 406.901 55.6 L 393.201 55.6 L 393.201 6.1 A 5.183 5.183 0 0 0 393.022 4.676 Q 392.564 3.078 390.934 2.654 A 5.304 5.304 0 0 0 389.601 2.5 L 374.101 2.5 A 5.183 5.183 0 0 0 372.676 2.679 Q 371.078 3.136 370.654 4.767 A 5.304 5.304 0 0 0 370.501 6.1 L 370.501 70.9 A 5.183 5.183 0 0 0 370.679 72.325 Q 371.137 73.922 372.767 74.347 A 5.304 5.304 0 0 0 374.101 74.5 Z M 615.401 64.5 L 648.101 64.5 L 648.101 65.5 L 614.401 65.5 L 614.401 11.5 L 648.101 11.5 L 648.101 12.5 L 615.401 12.5 L 615.401 37.6 L 640.001 37.6 L 640.001 38.6 L 615.401 38.6 L 615.401 64.5 Z M 452.001 74.5 L 494.601 74.5 A 5.183 5.183 0 0 0 496.025 74.322 Q 497.623 73.864 498.047 72.233 A 5.304 5.304 0 0 0 498.201 70.9 L 498.201 59 A 5.183 5.183 0 0 0 498.022 57.576 Q 497.564 55.978 495.934 55.554 A 5.304 5.304 0 0 0 494.601 55.4 L 484.901 55.4 L 484.901 21.8 L 494.601 21.8 A 5.183 5.183 0 0 0 496.025 21.622 Q 497.623 21.164 498.047 19.533 A 5.304 5.304 0 0 0 498.201 18.2 L 498.201 6.1 A 5.183 5.183 0 0 0 498.022 4.676 Q 497.564 3.078 495.934 2.654 A 5.304 5.304 0 0 0 494.601 2.5 L 452.001 2.5 A 5.183 5.183 0 0 0 450.576 2.679 Q 448.978 3.136 448.554 4.767 A 5.304 5.304 0 0 0 448.401 6.1 L 448.401 18.2 A 5.183 5.183 0 0 0 448.579 19.625 Q 449.037 21.222 450.667 21.647 A 5.304 5.304 0 0 0 452.001 21.8 L 461.901 21.8 L 461.901 55.4 L 452.001 55.4 A 5.183 5.183 0 0 0 450.576 55.579 Q 448.978 56.036 448.554 57.667 A 5.304 5.304 0 0 0 448.401 59 L 448.401 70.9 A 5.183 5.183 0 0 0 448.579 72.325 Q 449.037 73.922 450.667 74.347 A 5.304 5.304 0 0 0 452.001 74.5 Z M 149.401 70.8 L 136.501 81.6 A 18.253 18.253 0 0 1 132.985 83.929 Q 130.315 85.309 126.751 86.25 A 42.521 42.521 0 0 1 121.774 87.223 Q 116.907 87.9 110.501 87.9 A 79.534 79.534 0 0 1 104.177 87.664 Q 98.535 87.213 94.401 85.9 A 32.45 32.45 0 0 1 90.069 84.196 Q 86.788 82.606 84.601 80.45 A 19.119 19.119 0 0 1 80.695 75.032 A 17.851 17.851 0 0 1 79.751 72.6 Q 78.401 68.2 78.401 63.5 L 78.401 32.4 A 29.564 29.564 0 0 1 78.835 27.233 A 24.212 24.212 0 0 1 79.701 23.8 A 14.38 14.38 0 0 1 83.882 17.544 A 17.344 17.344 0 0 1 84.401 17.1 L 97.401 6.3 A 18.253 18.253 0 0 1 100.916 3.971 Q 103.586 2.591 107.151 1.65 A 42.521 42.521 0 0 1 112.127 0.677 Q 116.994 0 123.401 0 A 102.521 102.521 0 0 1 129.724 0.183 Q 132.81 0.375 135.444 0.765 A 44.115 44.115 0 0 1 139.501 1.55 A 34.733 34.733 0 0 1 143.495 2.775 Q 146.986 4.097 149.251 6 A 16.132 16.132 0 0 1 152.734 10.021 A 14.636 14.636 0 0 1 154.051 12.85 A 25.241 25.241 0 0 1 155.288 18.846 A 30.607 30.607 0 0 1 155.401 21.5 L 155.401 55.6 A 28.427 28.427 0 0 1 154.942 60.798 A 23.66 23.66 0 0 1 154.101 64.05 Q 152.801 67.9 149.401 70.8 Z M 233.101 70.8 L 220.201 81.6 A 18.253 18.253 0 0 1 216.685 83.929 Q 214.015 85.309 210.451 86.25 A 42.521 42.521 0 0 1 205.474 87.223 Q 200.607 87.9 194.201 87.9 A 79.534 79.534 0 0 1 187.877 87.664 Q 182.235 87.213 178.101 85.9 A 32.45 32.45 0 0 1 173.769 84.196 Q 170.488 82.606 168.301 80.45 A 19.119 19.119 0 0 1 164.395 75.032 A 17.851 17.851 0 0 1 163.451 72.6 Q 162.101 68.2 162.101 63.5 L 162.101 32.4 A 29.564 29.564 0 0 1 162.535 27.233 A 24.212 24.212 0 0 1 163.401 23.8 A 14.38 14.38 0 0 1 167.582 17.544 A 17.344 17.344 0 0 1 168.101 17.1 L 181.101 6.3 A 18.253 18.253 0 0 1 184.616 3.971 Q 187.286 2.591 190.851 1.65 A 42.521 42.521 0 0 1 195.827 0.677 Q 200.694 0 207.101 0 A 102.521 102.521 0 0 1 213.424 0.183 Q 216.51 0.375 219.144 0.765 A 44.115 44.115 0 0 1 223.201 1.55 A 34.733 34.733 0 0 1 227.195 2.775 Q 230.686 4.097 232.951 6 A 16.132 16.132 0 0 1 236.434 10.021 A 14.636 14.636 0 0 1 237.751 12.85 A 25.241 25.241 0 0 1 238.988 18.846 A 30.607 30.607 0 0 1 239.101 21.5 L 239.101 55.6 A 28.427 28.427 0 0 1 238.642 60.798 A 23.66 23.66 0 0 1 237.801 64.05 Q 236.501 67.9 233.101 70.8 Z M 267.001 86.4 L 251.501 86.4 A 6.622 6.622 0 0 1 249.68 86.172 Q 247.639 85.587 247.097 83.504 A 6.777 6.777 0 0 1 246.901 81.8 L 246.901 17 A 7.067 7.067 0 0 1 247.03 15.597 Q 247.327 14.135 248.301 13.3 L 261.201 2.4 A 3.559 3.559 0 0 1 262.354 1.785 Q 263.219 1.5 264.401 1.5 L 295.001 1.5 A 57.312 57.312 0 0 1 300.585 1.754 Q 306.272 2.313 309.951 4.1 A 18.212 18.212 0 0 1 313.879 6.636 A 13.804 13.804 0 0 1 317.451 11.3 A 22.379 22.379 0 0 1 319.246 17.291 A 29.965 29.965 0 0 1 319.601 22 L 319.601 34.8 A 29.629 29.629 0 0 1 319.173 39.931 A 24.033 24.033 0 0 1 318.251 43.55 Q 316.901 47.5 313.601 50.3 L 300.601 61.1 Q 298.101 63.2 294.151 64.55 Q 290.201 65.9 284.501 66.1 L 284.501 70.9 A 7.067 7.067 0 0 1 284.371 72.303 Q 284.074 73.766 283.101 74.6 L 270.101 85.4 A 3.065 3.065 0 0 1 268.945 86.11 Q 268.463 86.282 267.868 86.352 A 7.422 7.422 0 0 1 267.001 86.4 Z M 530.301 11.5 L 531.301 11.5 L 531.301 33.1 Q 531.301 37.915 532.572 41.537 A 17.888 17.888 0 0 0 532.901 42.4 L 539.501 58.4 Q 540.442 60.624 541.456 62.227 A 17.074 17.074 0 0 0 541.801 62.75 Q 543.001 64.5 545.801 64.5 L 554.601 64.5 Q 557.501 64.5 558.701 62.75 A 16.738 16.738 0 0 0 559.712 61.056 Q 560.182 60.161 560.615 59.115 A 29.87 29.87 0 0 0 560.901 58.4 L 567.501 42.4 Q 569.101 38.5 569.101 33.1 L 569.101 11.5 L 570.101 11.5 L 570.101 33.1 A 39.078 39.078 0 0 1 569.99 36.103 A 30.524 30.524 0 0 1 569.751 38.25 Q 569.401 40.6 568.501 42.8 L 561.901 58.8 Q 560.874 61.281 559.664 63.03 A 15.042 15.042 0 0 1 559.251 63.6 Q 557.948 65.307 555.232 65.481 A 9.921 9.921 0 0 1 554.601 65.5 L 545.801 65.5 A 8.002 8.002 0 0 1 544.019 65.315 Q 542.232 64.906 541.201 63.6 A 16.388 16.388 0 0 1 539.86 61.599 Q 539.273 60.577 538.743 59.368 A 28.736 28.736 0 0 1 538.501 58.8 L 531.901 42.8 Q 531.001 40.6 530.651 38.25 Q 530.301 35.9 530.301 33.1 L 530.301 11.5 Z M 264.401 74.5 L 279.901 74.5 A 5.183 5.183 0 0 0 281.325 74.322 Q 282.923 73.864 283.347 72.233 A 5.304 5.304 0 0 0 283.501 70.9 L 283.501 54.3 L 295.001 54.3 Q 304.075 54.3 309.221 51.864 A 16.682 16.682 0 0 0 309.251 51.85 A 17.435 17.435 0 0 0 313.045 49.442 A 13.249 13.249 0 0 0 316.501 45 A 21.156 21.156 0 0 0 318.28 39.118 A 27.975 27.975 0 0 0 318.601 34.8 L 318.601 22 Q 318.601 16.2 316.501 11.8 A 13.568 13.568 0 0 0 311.906 6.483 A 18.515 18.515 0 0 0 309.251 4.95 A 21.346 21.346 0 0 0 305.039 3.506 Q 300.847 2.504 295.046 2.5 A 66.376 66.376 0 0 0 295.001 2.5 L 264.401 2.5 A 5.183 5.183 0 0 0 262.976 2.679 Q 261.378 3.136 260.954 4.767 A 5.304 5.304 0 0 0 260.801 6.1 L 260.801 70.9 A 5.183 5.183 0 0 0 260.979 72.325 Q 261.437 73.922 263.067 74.347 A 5.304 5.304 0 0 0 264.401 74.5 Z M 154.401 55.6 L 154.401 21.5 Q 154.401 16.9 153.051 13.15 Q 151.701 9.4 148.301 6.7 A 17.828 17.828 0 0 0 145.101 4.704 Q 143.439 3.883 141.413 3.228 A 38.108 38.108 0 0 0 138.851 2.5 A 44.103 44.103 0 0 0 133.956 1.601 Q 129.349 1 123.401 1 A 97.51 97.51 0 0 0 117.334 1.177 Q 114.374 1.362 111.845 1.741 A 42.094 42.094 0 0 0 107.951 2.5 Q 103.575 3.585 100.586 5.297 A 16.67 16.67 0 0 0 98.501 6.7 A 15.601 15.601 0 0 0 95.108 10.368 A 14.01 14.01 0 0 0 93.701 13.15 A 22.068 22.068 0 0 0 92.466 18.438 A 27.574 27.574 0 0 0 92.301 21.5 L 92.301 55.6 A 26.128 26.128 0 0 0 92.74 60.49 A 21.213 21.213 0 0 0 93.701 63.95 A 14.486 14.486 0 0 0 97.682 69.709 A 17.565 17.565 0 0 0 98.501 70.4 A 17.504 17.504 0 0 0 101.7 72.388 Q 103.362 73.201 105.388 73.843 A 37.315 37.315 0 0 0 107.951 74.55 A 45.474 45.474 0 0 0 112.845 75.42 Q 115.437 75.746 118.452 75.889 A 104.738 104.738 0 0 0 123.401 76 A 100.863 100.863 0 0 0 129.467 75.829 Q 134.88 75.502 138.851 74.55 A 34.867 34.867 0 0 0 142.697 73.406 Q 146.069 72.172 148.301 70.4 A 15.325 15.325 0 0 0 151.581 66.876 A 13.62 13.62 0 0 0 153.051 63.95 A 22.736 22.736 0 0 0 154.237 58.696 A 28.556 28.556 0 0 0 154.401 55.6 Z M 238.101 55.6 L 238.101 21.5 Q 238.101 16.9 236.751 13.15 Q 235.401 9.4 232.001 6.7 A 17.828 17.828 0 0 0 228.801 4.704 Q 227.139 3.883 225.113 3.228 A 38.108 38.108 0 0 0 222.551 2.5 A 44.103 44.103 0 0 0 217.656 1.601 Q 213.049 1 207.101 1 A 97.51 97.51 0 0 0 201.034 1.177 Q 198.074 1.362 195.545 1.741 A 42.094 42.094 0 0 0 191.651 2.5 Q 187.275 3.585 184.286 5.297 A 16.67 16.67 0 0 0 182.201 6.7 A 15.601 15.601 0 0 0 178.808 10.368 A 14.01 14.01 0 0 0 177.401 13.15 A 22.068 22.068 0 0 0 176.166 18.438 A 27.574 27.574 0 0 0 176.001 21.5 L 176.001 55.6 A 26.128 26.128 0 0 0 176.44 60.49 A 21.213 21.213 0 0 0 177.401 63.95 A 14.486 14.486 0 0 0 181.382 69.709 A 17.565 17.565 0 0 0 182.201 70.4 A 17.504 17.504 0 0 0 185.4 72.388 Q 187.062 73.201 189.088 73.843 A 37.315 37.315 0 0 0 191.651 74.55 A 45.474 45.474 0 0 0 196.545 75.42 Q 199.137 75.746 202.152 75.889 A 104.738 104.738 0 0 0 207.101 76 A 100.863 100.863 0 0 0 213.167 75.829 Q 218.58 75.502 222.551 74.55 A 34.867 34.867 0 0 0 226.397 73.406 Q 229.769 72.172 232.001 70.4 A 15.325 15.325 0 0 0 235.281 66.876 A 13.62 13.62 0 0 0 236.751 63.95 A 22.736 22.736 0 0 0 237.937 58.696 A 28.556 28.556 0 0 0 238.101 55.6 Z M 457.401 12.5 L 457.401 11.5 L 489.201 11.5 L 489.201 12.5 L 473.901 12.5 L 473.901 64.5 L 489.201 64.5 L 489.201 65.5 L 457.401 65.5 L 457.401 64.5 L 472.901 64.5 L 472.901 12.5 L 457.401 12.5 Z M 60.601 44.8 L 61.601 44.8 L 61.601 65.5 L 24.801 65.5 L 24.801 11.5 L 25.801 11.5 L 25.801 64.5 L 60.601 64.5 L 60.601 44.8 Z M 417.201 44.8 L 418.201 44.8 L 418.201 65.5 L 381.401 65.5 L 381.401 11.5 L 382.401 11.5 L 382.401 64.5 L 417.201 64.5 L 417.201 44.8 Z M 293.601 45.8 L 273.001 45.8 L 273.001 65.5 L 272.001 65.5 L 272.001 11.5 L 293.601 11.5 Q 299.901 11.5 303.151 13.3 A 10.626 10.626 0 0 1 305.51 15.041 A 8.308 8.308 0 0 1 307.501 18.15 A 18.086 18.086 0 0 1 308.39 21.85 A 24.05 24.05 0 0 1 308.601 25.1 L 308.601 32.5 A 23.593 23.593 0 0 1 308.359 35.959 A 17.379 17.379 0 0 1 307.501 39.4 A 8.17 8.17 0 0 1 304.513 43.263 A 11.162 11.162 0 0 1 303.151 44.1 Q 300.204 45.641 294.751 45.785 A 43.606 43.606 0 0 1 293.601 45.8 Z M 103.101 53.3 L 103.101 23.8 A 16.142 16.142 0 0 1 103.479 20.226 A 12.382 12.382 0 0 1 104.851 16.7 Q 106.354 14.122 109.815 12.504 A 18.777 18.777 0 0 1 111.001 12 A 20.932 20.932 0 0 1 114.416 11.034 Q 117.958 10.323 122.877 10.301 A 70.613 70.613 0 0 1 123.201 10.3 A 59.348 59.348 0 0 1 127.77 10.464 Q 132.095 10.799 135.01 11.82 A 16.366 16.366 0 0 1 135.501 12 A 16.772 16.772 0 0 1 138.218 13.323 Q 139.692 14.225 140.707 15.357 A 8.779 8.779 0 0 1 141.701 16.7 A 12.496 12.496 0 0 1 143.307 21.228 A 16.476 16.476 0 0 1 143.501 23.8 L 143.501 53.3 A 15.1 15.1 0 0 1 143.022 57.173 A 12.512 12.512 0 0 1 141.701 60.35 Q 140.115 63.037 136.512 64.676 A 18.833 18.833 0 0 1 135.501 65.1 A 20.744 20.744 0 0 1 132.149 66.051 Q 128.692 66.75 123.89 66.797 A 71.291 71.291 0 0 1 123.201 66.8 A 57.989 57.989 0 0 1 118.658 66.634 Q 114.189 66.282 111.216 65.182 A 16.146 16.146 0 0 1 111.001 65.1 Q 107.616 63.792 105.799 61.686 A 8.586 8.586 0 0 1 104.851 60.35 Q 103.101 57.3 103.101 53.3 Z M 186.801 53.3 L 186.801 23.8 A 16.142 16.142 0 0 1 187.179 20.226 A 12.382 12.382 0 0 1 188.551 16.7 Q 190.054 14.122 193.515 12.504 A 18.777 18.777 0 0 1 194.701 12 A 20.932 20.932 0 0 1 198.116 11.034 Q 201.658 10.323 206.577 10.301 A 70.613 70.613 0 0 1 206.901 10.3 A 59.348 59.348 0 0 1 211.47 10.464 Q 215.795 10.799 218.71 11.82 A 16.366 16.366 0 0 1 219.201 12 A 16.772 16.772 0 0 1 221.918 13.323 Q 223.392 14.225 224.407 15.357 A 8.779 8.779 0 0 1 225.401 16.7 A 12.496 12.496 0 0 1 227.007 21.228 A 16.476 16.476 0 0 1 227.201 23.8 L 227.201 53.3 A 15.1 15.1 0 0 1 226.722 57.173 A 12.512 12.512 0 0 1 225.401 60.35 Q 223.815 63.037 220.212 64.676 A 18.833 18.833 0 0 1 219.201 65.1 A 20.744 20.744 0 0 1 215.849 66.051 Q 212.392 66.75 207.59 66.797 A 71.291 71.291 0 0 1 206.901 66.8 A 57.989 57.989 0 0 1 202.358 66.634 Q 197.889 66.282 194.916 65.182 A 16.146 16.146 0 0 1 194.701 65.1 Q 191.316 63.792 189.499 61.686 A 8.586 8.586 0 0 1 188.551 60.35 Q 186.801 57.3 186.801 53.3 Z M 142.501 53.3 L 142.501 23.8 A 14.338 14.338 0 0 0 142.127 20.457 A 11.296 11.296 0 0 0 140.801 17.2 Q 139.366 14.838 136.152 13.365 A 17.8 17.8 0 0 0 134.901 12.85 A 20.553 20.553 0 0 0 131.706 11.984 Q 128.415 11.346 123.856 11.303 A 70.493 70.493 0 0 0 123.201 11.3 Q 115.801 11.3 111.601 12.85 Q 107.401 14.4 105.751 17.2 A 11.794 11.794 0 0 0 104.278 21.414 A 15.477 15.477 0 0 0 104.101 23.8 L 104.101 53.3 A 14.12 14.12 0 0 0 104.566 56.992 A 11.829 11.829 0 0 0 105.751 59.85 A 8.508 8.508 0 0 0 108.084 62.409 Q 109.126 63.184 110.487 63.796 A 17.43 17.43 0 0 0 111.601 64.25 A 20.727 20.727 0 0 0 114.845 65.129 Q 118.219 65.779 122.893 65.8 A 69.707 69.707 0 0 0 123.201 65.8 A 58.685 58.685 0 0 0 127.559 65.649 Q 131.659 65.343 134.434 64.414 A 16.175 16.175 0 0 0 134.901 64.25 A 15.53 15.53 0 0 0 137.48 63.039 Q 138.856 62.218 139.809 61.178 A 8.124 8.124 0 0 0 140.801 59.85 A 12.056 12.056 0 0 0 142.419 54.878 A 14.99 14.99 0 0 0 142.501 53.3 Z M 226.201 53.3 L 226.201 23.8 A 14.338 14.338 0 0 0 225.827 20.457 A 11.296 11.296 0 0 0 224.501 17.2 Q 223.066 14.838 219.852 13.365 A 17.8 17.8 0 0 0 218.601 12.85 A 20.553 20.553 0 0 0 215.406 11.984 Q 212.115 11.346 207.556 11.303 A 70.493 70.493 0 0 0 206.901 11.3 Q 199.501 11.3 195.301 12.85 Q 191.101 14.4 189.451 17.2 A 11.794 11.794 0 0 0 187.978 21.414 A 15.477 15.477 0 0 0 187.801 23.8 L 187.801 53.3 A 14.12 14.12 0 0 0 188.266 56.992 A 11.829 11.829 0 0 0 189.451 59.85 A 8.508 8.508 0 0 0 191.784 62.409 Q 192.826 63.184 194.187 63.796 A 17.43 17.43 0 0 0 195.301 64.25 A 20.727 20.727 0 0 0 198.545 65.129 Q 201.919 65.779 206.593 65.8 A 69.707 69.707 0 0 0 206.901 65.8 A 58.685 58.685 0 0 0 211.259 65.649 Q 215.359 65.343 218.134 64.414 A 16.175 16.175 0 0 0 218.601 64.25 A 15.53 15.53 0 0 0 221.18 63.039 Q 222.556 62.218 223.509 61.178 A 8.124 8.124 0 0 0 224.501 59.85 A 12.056 12.056 0 0 0 226.119 54.878 A 14.99 14.99 0 0 0 226.201 53.3 Z M 273.001 44.8 L 293.601 44.8 Q 298.871 44.8 301.827 43.563 A 9.213 9.213 0 0 0 302.501 43.25 A 9.337 9.337 0 0 0 304.719 41.687 A 7.478 7.478 0 0 0 306.551 38.9 A 16.073 16.073 0 0 0 307.4 35.497 A 21.416 21.416 0 0 0 307.601 32.5 L 307.601 25.1 Q 307.601 21.5 306.551 18.65 A 8.071 8.071 0 0 0 303.567 14.818 A 10.763 10.763 0 0 0 302.501 14.15 Q 299.698 12.609 294.364 12.507 A 40.184 40.184 0 0 0 293.601 12.5 L 273.001 12.5 L 273.001 44.8 Z M 115.001 52 L 115.001 25.1 A 4.342 4.342 0 0 1 115.399 23.224 A 4.32 4.32 0 0 1 116.501 21.8 A 3.499 3.499 0 0 1 117.553 21.209 Q 119.414 20.5 123.401 20.5 A 36.169 36.169 0 0 1 125.611 20.562 Q 128.809 20.759 130.062 21.58 A 2.408 2.408 0 0 1 130.351 21.8 A 4.207 4.207 0 0 1 131.795 24.853 A 5.343 5.343 0 0 1 131.801 25.1 L 131.801 52 Q 131.801 54 130.351 55.35 A 3.291 3.291 0 0 1 129.314 55.964 Q 127.461 56.7 123.401 56.7 A 33.743 33.743 0 0 1 121.225 56.636 Q 118.051 56.429 116.778 55.566 A 2.567 2.567 0 0 1 116.501 55.35 A 4.471 4.471 0 0 1 115.319 53.706 A 4.486 4.486 0 0 1 115.001 52 Z M 198.701 52 L 198.701 25.1 A 4.342 4.342 0 0 1 199.099 23.224 A 4.32 4.32 0 0 1 200.201 21.8 A 3.499 3.499 0 0 1 201.253 21.209 Q 203.114 20.5 207.101 20.5 A 36.169 36.169 0 0 1 209.311 20.562 Q 212.509 20.759 213.762 21.58 A 2.408 2.408 0 0 1 214.051 21.8 A 4.207 4.207 0 0 1 215.495 24.853 A 5.343 5.343 0 0 1 215.501 25.1 L 215.501 52 Q 215.501 54 214.051 55.35 A 3.291 3.291 0 0 1 213.014 55.964 Q 211.161 56.7 207.101 56.7 A 33.743 33.743 0 0 1 204.925 56.636 Q 201.751 56.429 200.478 55.566 A 2.567 2.567 0 0 1 200.201 55.35 A 4.471 4.471 0 0 1 199.019 53.706 A 4.486 4.486 0 0 1 198.701 52 Z M 283.301 36.3 L 283.301 21.2 L 292.301 21.2 Q 295.201 21.2 296.101 22.65 A 5.915 5.915 0 0 1 296.904 24.847 A 7.818 7.818 0 0 1 297.001 26.1 L 297.001 31.4 A 6.863 6.863 0 0 1 296.675 33.541 A 6.142 6.142 0 0 1 296.101 34.8 A 2.663 2.663 0 0 1 294.874 35.852 Q 293.948 36.272 292.496 36.298 A 10.823 10.823 0 0 1 292.301 36.3 L 283.301 36.3 Z M 116.001 33.1 L 116.001 52 A 4.243 4.243 0 0 0 116.088 52.883 A 3.281 3.281 0 0 0 116.401 53.75 A 2.282 2.282 0 0 0 116.918 54.388 Q 117.308 54.731 117.901 55 L 117.901 36 A 4.243 4.243 0 0 0 117.813 35.118 A 3.281 3.281 0 0 0 117.501 34.25 Q 117.101 33.5 116.001 33.1 Z M 199.701 33.1 L 199.701 52 A 4.243 4.243 0 0 0 199.788 52.883 A 3.281 3.281 0 0 0 200.101 53.75 A 2.282 2.282 0 0 0 200.618 54.388 Q 201.008 54.731 201.601 55 L 201.601 36 A 4.243 4.243 0 0 0 201.513 35.118 A 3.281 3.281 0 0 0 201.201 34.25 Q 200.801 33.5 199.701 33.1 Z" vector-effect="non-scaling-stroke"/></g></svg>