<svg width="394.861" height="52.74" viewBox="0 0 394.861 52.74" xmlns="http://www.w3.org/2000/svg"><g id="svgGroup" stroke-linecap="round" fill-rule="evenodd" font-size="9pt" stroke="#000000" stroke-width="1" fill="#000000" style="stroke:#000000;stroke-width:1;fill:#000000"><path d="M 364.26 44.7 L 392.1 44.7 A 3.11 3.11 0 0 0 392.955 44.593 Q 393.914 44.318 394.168 43.34 A 3.182 3.182 0 0 0 394.26 42.54 L 394.26 35.52 A 3.11 3.11 0 0 0 394.153 34.665 Q 393.879 33.707 392.9 33.452 A 3.182 3.182 0 0 0 392.1 33.36 L 375.54 33.36 L 375.54 28.2 L 387.24 28.2 A 3.11 3.11 0 0 0 388.095 28.093 Q 389.054 27.818 389.308 26.84 A 3.182 3.182 0 0 0 389.4 26.04 L 389.4 19.62 A 3.11 3.11 0 0 0 389.293 18.765 Q 389.019 17.807 388.04 17.552 A 3.182 3.182 0 0 0 387.24 17.46 L 375.54 17.46 L 375.54 12.84 L 392.1 12.84 A 3.11 3.11 0 0 0 392.955 12.733 Q 393.914 12.458 394.168 11.48 A 3.182 3.182 0 0 0 394.26 10.68 L 394.26 3.66 A 3.11 3.11 0 0 0 394.153 2.805 Q 393.879 1.847 392.9 1.592 A 3.182 3.182 0 0 0 392.1 1.5 L 364.26 1.5 A 3.11 3.11 0 0 0 363.406 1.607 Q 362.447 1.882 362.192 2.86 A 3.182 3.182 0 0 0 362.1 3.66 L 362.1 42.54 A 3.11 3.11 0 0 0 362.207 43.395 Q 362.482 44.353 363.46 44.608 A 3.182 3.182 0 0 0 364.26 44.7 Z M 330.12 51.84 L 314.52 51.84 A 6.104 6.104 0 0 1 313.635 51.78 Q 312.852 51.665 312.3 51.33 A 2.68 2.68 0 0 1 311.623 50.729 Q 311.377 50.429 311.167 50.031 A 6.025 6.025 0 0 1 310.92 49.5 L 305.04 34.8 Q 304.32 32.94 303.87 31.71 Q 303.42 30.48 303.24 29.22 A 15.402 15.402 0 0 1 303.134 28.229 Q 303.093 27.69 303.074 27.065 A 35.311 35.311 0 0 1 303.06 26.04 L 303.06 10.2 A 4.24 4.24 0 0 1 303.138 9.358 Q 303.238 8.868 303.464 8.496 A 2.128 2.128 0 0 1 303.9 7.98 L 311.64 1.44 A 2.135 2.135 0 0 1 312.333 1.071 Q 312.641 0.97 313.016 0.928 A 4.992 4.992 0 0 1 313.56 0.9 L 323.1 0.9 A 4.532 4.532 0 0 1 324.237 1.03 Q 326.04 1.498 326.04 3.66 L 326.04 20.22 A 5.267 5.267 0 0 0 326.083 20.901 A 4.3 4.3 0 0 0 326.16 21.33 A 27.684 27.684 0 0 0 326.277 21.805 Q 326.338 22.048 326.411 22.317 A 48.361 48.361 0 0 0 326.46 22.5 L 326.64 22.92 L 326.64 10.2 A 4.24 4.24 0 0 1 326.718 9.358 Q 326.818 8.868 327.044 8.496 A 2.128 2.128 0 0 1 327.48 7.98 L 335.22 1.44 A 2.135 2.135 0 0 1 335.913 1.071 Q 336.221 0.97 336.596 0.928 A 4.992 4.992 0 0 1 337.14 0.9 L 346.56 0.9 Q 347.978 0.9 348.619 1.49 A 1.555 1.555 0 0 1 348.69 1.56 A 1.981 1.981 0 0 1 349.107 2.248 Q 349.32 2.822 349.32 3.66 L 349.32 19.5 A 33.812 33.812 0 0 1 349.297 20.795 Q 349.274 21.401 349.227 21.922 A 14.586 14.586 0 0 1 349.14 22.68 Q 348.96 23.94 348.54 25.17 A 32.24 32.24 0 0 1 348.209 26.09 Q 348.031 26.565 347.813 27.107 A 76.764 76.764 0 0 1 347.34 28.26 L 341.46 42.96 A 3.476 3.476 0 0 1 341.224 43.513 A 2.792 2.792 0 0 1 340.98 43.89 A 7.799 7.799 0 0 1 340.643 44.3 A 6.241 6.241 0 0 1 340.38 44.58 L 332.64 51 A 2.96 2.96 0 0 1 331.4 51.679 Q 330.941 51.809 330.392 51.834 A 5.904 5.904 0 0 1 330.12 51.84 Z M 322.26 44.7 L 337.86 44.7 A 5.579 5.579 0 0 0 338.625 44.651 Q 339.008 44.598 339.326 44.487 A 2.592 2.592 0 0 0 339.78 44.28 A 2.094 2.094 0 0 0 340.371 43.752 Q 340.69 43.344 340.92 42.72 L 346.8 28.02 Q 347.484 26.31 347.898 25.141 A 39.57 39.57 0 0 0 347.94 25.02 Q 348.36 23.82 348.54 22.59 A 14.797 14.797 0 0 0 348.648 21.602 Q 348.689 21.082 348.707 20.482 A 33.274 33.274 0 0 0 348.72 19.5 L 348.72 3.66 A 3.11 3.11 0 0 0 348.613 2.805 Q 348.339 1.847 347.36 1.592 A 3.182 3.182 0 0 0 346.56 1.5 L 337.14 1.5 A 3.11 3.11 0 0 0 336.286 1.607 Q 335.327 1.882 335.072 2.86 A 3.182 3.182 0 0 0 334.98 3.66 L 334.98 20.16 Q 334.98 20.76 334.86 21.36 A 8.035 8.035 0 0 1 334.663 22.134 A 9.887 9.887 0 0 1 334.5 22.62 L 331.68 31.08 A 2.12 2.12 0 0 1 331.503 31.514 Q 331.366 31.761 331.173 31.904 A 1.033 1.033 0 0 1 330.54 32.1 L 329.88 32.1 A 1.02 1.02 0 0 1 328.999 31.645 Q 328.84 31.419 328.74 31.08 L 325.92 22.68 Q 325.68 22.02 325.56 21.42 Q 325.44 20.82 325.44 20.22 L 325.44 3.66 A 2.854 2.854 0 0 0 325.316 2.779 Q 324.901 1.5 323.1 1.5 L 313.56 1.5 A 3.11 3.11 0 0 0 312.706 1.607 Q 311.747 1.882 311.492 2.86 A 3.182 3.182 0 0 0 311.4 3.66 L 311.4 19.5 A 31.826 31.826 0 0 0 311.424 20.756 Q 311.447 21.344 311.494 21.851 A 13.958 13.958 0 0 0 311.58 22.59 Q 311.76 23.82 312.18 25.02 Q 312.6 26.22 313.32 28.02 L 319.2 42.72 A 4.918 4.918 0 0 0 319.524 43.362 Q 319.715 43.677 319.934 43.906 A 2.134 2.134 0 0 0 320.4 44.28 Q 321.12 44.7 322.26 44.7 Z M 289.02 51.84 L 263.46 51.84 A 3.973 3.973 0 0 1 262.368 51.703 Q 261.143 51.352 260.818 50.102 A 4.066 4.066 0 0 1 260.7 49.08 L 260.7 41.94 A 4.24 4.24 0 0 1 260.778 41.098 Q 260.878 40.608 261.104 40.236 A 2.128 2.128 0 0 1 261.54 39.72 L 268.8 33.6 L 268.8 20.22 L 263.46 20.22 A 3.973 3.973 0 0 1 262.368 20.083 Q 261.143 19.732 260.818 18.482 A 4.066 4.066 0 0 1 260.7 17.46 L 260.7 10.2 A 4.24 4.24 0 0 1 260.778 9.358 Q 260.878 8.868 261.104 8.496 A 2.128 2.128 0 0 1 261.54 7.98 L 269.28 1.44 A 2.135 2.135 0 0 1 269.973 1.071 Q 270.281 0.97 270.656 0.928 A 4.992 4.992 0 0 1 271.2 0.9 L 296.76 0.9 A 3.973 3.973 0 0 1 297.853 1.037 Q 299.077 1.388 299.403 2.638 A 4.066 4.066 0 0 1 299.52 3.66 L 299.52 10.92 A 4.24 4.24 0 0 1 299.442 11.762 Q 299.343 12.252 299.117 12.625 A 2.128 2.128 0 0 1 298.68 13.14 L 291.54 19.14 L 291.54 32.64 L 296.76 32.64 A 3.973 3.973 0 0 1 297.853 32.777 Q 299.077 33.128 299.403 34.378 A 4.066 4.066 0 0 1 299.52 35.4 L 299.52 42.54 A 4.24 4.24 0 0 1 299.442 43.382 Q 299.343 43.872 299.117 44.245 A 2.128 2.128 0 0 1 298.68 44.76 L 290.88 51.24 Q 290.412 51.709 289.541 51.811 A 4.453 4.453 0 0 1 289.02 51.84 Z M 384.36 51.84 L 356.52 51.84 A 3.973 3.973 0 0 1 355.428 51.703 Q 354.203 51.352 353.878 50.102 A 4.066 4.066 0 0 1 353.76 49.08 L 353.76 10.2 A 4.24 4.24 0 0 1 353.838 9.358 Q 353.938 8.868 354.164 8.496 A 2.128 2.128 0 0 1 354.6 7.98 L 362.34 1.44 A 2.135 2.135 0 0 1 363.033 1.071 Q 363.341 0.97 363.716 0.928 A 4.992 4.992 0 0 1 364.26 0.9 L 392.1 0.9 A 3.973 3.973 0 0 1 393.193 1.037 Q 394.417 1.388 394.743 2.638 A 4.066 4.066 0 0 1 394.86 3.66 L 394.86 10.68 A 4.24 4.24 0 0 1 394.782 11.522 Q 394.683 12.012 394.457 12.385 A 2.128 2.128 0 0 1 394.02 12.9 L 388.86 17.16 A 1.953 1.953 0 0 1 389.796 18.27 Q 389.93 18.638 389.976 19.102 A 5.227 5.227 0 0 1 390 19.62 L 390 26.04 A 4.24 4.24 0 0 1 389.922 26.882 Q 389.823 27.372 389.597 27.745 A 2.128 2.128 0 0 1 389.16 28.26 L 383.82 32.76 L 392.1 32.76 A 3.973 3.973 0 0 1 393.193 32.897 Q 394.417 33.248 394.743 34.498 A 4.066 4.066 0 0 1 394.86 35.52 L 394.86 42.54 A 4.24 4.24 0 0 1 394.782 43.382 Q 394.683 43.872 394.457 44.245 A 2.128 2.128 0 0 1 394.02 44.76 L 386.22 51.24 Q 385.752 51.709 384.881 51.811 A 4.453 4.453 0 0 1 384.36 51.84 Z M 33.3 51.84 L 2.76 51.84 A 3.973 3.973 0 0 1 1.668 51.703 Q 0.443 51.352 0.118 50.102 A 4.066 4.066 0 0 1 0 49.08 L 0 10.2 A 4.24 4.24 0 0 1 0.078 9.358 Q 0.178 8.868 0.404 8.496 A 2.128 2.128 0 0 1 0.84 7.98 L 8.58 1.44 A 2.135 2.135 0 0 1 9.273 1.071 Q 9.581 0.97 9.956 0.928 A 4.992 4.992 0 0 1 10.5 0.9 L 19.8 0.9 A 3.973 3.973 0 0 1 20.893 1.037 Q 22.117 1.388 22.443 2.638 A 4.066 4.066 0 0 1 22.56 3.66 L 22.56 28.08 L 22.68 27.96 L 30.42 21.42 A 2.135 2.135 0 0 1 31.113 21.051 Q 31.421 20.95 31.796 20.908 A 4.992 4.992 0 0 1 32.34 20.88 L 41.04 20.88 A 3.973 3.973 0 0 1 42.133 21.017 Q 43.357 21.368 43.683 22.618 A 4.066 4.066 0 0 1 43.8 23.64 L 43.8 42.54 A 4.24 4.24 0 0 1 43.722 43.382 Q 43.623 43.872 43.397 44.245 A 2.128 2.128 0 0 1 42.96 44.76 L 35.16 51.24 Q 34.692 51.709 33.821 51.811 A 4.453 4.453 0 0 1 33.3 51.84 Z M 247.26 51.84 L 216.72 51.84 A 3.973 3.973 0 0 1 215.628 51.703 Q 214.403 51.352 214.078 50.102 A 4.066 4.066 0 0 1 213.96 49.08 L 213.96 10.2 A 4.24 4.24 0 0 1 214.038 9.358 Q 214.138 8.868 214.364 8.496 A 2.128 2.128 0 0 1 214.8 7.98 L 222.54 1.44 A 2.135 2.135 0 0 1 223.233 1.071 Q 223.541 0.97 223.916 0.928 A 4.992 4.992 0 0 1 224.46 0.9 L 233.76 0.9 A 3.973 3.973 0 0 1 234.853 1.037 Q 236.077 1.388 236.403 2.638 A 4.066 4.066 0 0 1 236.52 3.66 L 236.52 28.08 L 236.64 27.96 L 244.38 21.42 A 2.135 2.135 0 0 1 245.073 21.051 Q 245.381 20.95 245.756 20.908 A 4.992 4.992 0 0 1 246.3 20.88 L 255 20.88 A 3.973 3.973 0 0 1 256.093 21.017 Q 257.317 21.368 257.643 22.618 A 4.066 4.066 0 0 1 257.76 23.64 L 257.76 42.54 A 4.24 4.24 0 0 1 257.682 43.382 Q 257.583 43.872 257.357 44.245 A 2.128 2.128 0 0 1 256.92 44.76 L 249.12 51.24 Q 248.652 51.709 247.781 51.811 A 4.453 4.453 0 0 1 247.26 51.84 Z M 10.5 44.7 L 41.04 44.7 A 3.11 3.11 0 0 0 41.895 44.593 Q 42.854 44.318 43.108 43.34 A 3.182 3.182 0 0 0 43.2 42.54 L 43.2 23.64 A 3.11 3.11 0 0 0 43.093 22.785 Q 42.819 21.827 41.84 21.572 A 3.182 3.182 0 0 0 41.04 21.48 L 32.34 21.48 A 3.11 3.11 0 0 0 31.486 21.587 Q 30.527 21.862 30.272 22.84 A 3.182 3.182 0 0 0 30.18 23.64 L 30.18 33.36 L 21.96 33.36 L 21.96 3.66 A 3.11 3.11 0 0 0 21.853 2.805 Q 21.579 1.847 20.6 1.592 A 3.182 3.182 0 0 0 19.8 1.5 L 10.5 1.5 A 3.11 3.11 0 0 0 9.646 1.607 Q 8.687 1.882 8.432 2.86 A 3.182 3.182 0 0 0 8.34 3.66 L 8.34 42.54 A 3.11 3.11 0 0 0 8.447 43.395 Q 8.722 44.353 9.7 44.608 A 3.182 3.182 0 0 0 10.5 44.7 Z M 224.46 44.7 L 255 44.7 A 3.11 3.11 0 0 0 255.855 44.593 Q 256.814 44.318 257.068 43.34 A 3.182 3.182 0 0 0 257.16 42.54 L 257.16 23.64 A 3.11 3.11 0 0 0 257.053 22.785 Q 256.779 21.827 255.8 21.572 A 3.182 3.182 0 0 0 255 21.48 L 246.3 21.48 A 3.11 3.11 0 0 0 245.446 21.587 Q 244.487 21.862 244.232 22.84 A 3.182 3.182 0 0 0 244.14 23.64 L 244.14 33.36 L 235.92 33.36 L 235.92 3.66 A 3.11 3.11 0 0 0 235.813 2.805 Q 235.539 1.847 234.56 1.592 A 3.182 3.182 0 0 0 233.76 1.5 L 224.46 1.5 A 3.11 3.11 0 0 0 223.606 1.607 Q 222.647 1.882 222.392 2.86 A 3.182 3.182 0 0 0 222.3 3.66 L 222.3 42.54 A 3.11 3.11 0 0 0 222.407 43.395 Q 222.682 44.353 223.66 44.608 A 3.182 3.182 0 0 0 224.46 44.7 Z M 369.24 38.7 L 388.86 38.7 L 388.86 39.3 L 368.64 39.3 L 368.64 6.9 L 388.86 6.9 L 388.86 7.5 L 369.24 7.5 L 369.24 22.56 L 384 22.56 L 384 23.16 L 369.24 23.16 L 369.24 38.7 Z M 271.2 44.7 L 296.76 44.7 A 3.11 3.11 0 0 0 297.615 44.593 Q 298.574 44.318 298.828 43.34 A 3.182 3.182 0 0 0 298.92 42.54 L 298.92 35.4 A 3.11 3.11 0 0 0 298.813 34.545 Q 298.539 33.587 297.56 33.332 A 3.182 3.182 0 0 0 296.76 33.24 L 290.94 33.24 L 290.94 13.08 L 296.76 13.08 A 3.11 3.11 0 0 0 297.615 12.973 Q 298.574 12.698 298.828 11.72 A 3.182 3.182 0 0 0 298.92 10.92 L 298.92 3.66 A 3.11 3.11 0 0 0 298.813 2.805 Q 298.539 1.847 297.56 1.592 A 3.182 3.182 0 0 0 296.76 1.5 L 271.2 1.5 A 3.11 3.11 0 0 0 270.346 1.607 Q 269.387 1.882 269.132 2.86 A 3.182 3.182 0 0 0 269.04 3.66 L 269.04 10.92 A 3.11 3.11 0 0 0 269.147 11.775 Q 269.422 12.733 270.4 12.988 A 3.182 3.182 0 0 0 271.2 13.08 L 277.14 13.08 L 277.14 33.24 L 271.2 33.24 A 3.11 3.11 0 0 0 270.346 33.347 Q 269.387 33.622 269.132 34.6 A 3.182 3.182 0 0 0 269.04 35.4 L 269.04 42.54 A 3.11 3.11 0 0 0 269.147 43.395 Q 269.422 44.353 270.4 44.608 A 3.182 3.182 0 0 0 271.2 44.7 Z M 89.64 42.48 L 81.9 48.96 Q 80.212 50.407 77.457 51.331 A 22.474 22.474 0 0 1 76.05 51.75 A 25.513 25.513 0 0 1 73.064 52.334 Q 71.604 52.537 69.913 52.639 A 60.42 60.42 0 0 1 66.3 52.74 Q 60.42 52.74 56.64 51.54 Q 53.599 50.574 51.645 49.046 A 10.3 10.3 0 0 1 50.76 48.27 A 11.471 11.471 0 0 1 48.417 45.019 A 10.711 10.711 0 0 1 47.85 43.56 Q 47.04 40.92 47.04 38.1 L 47.04 19.44 A 17.738 17.738 0 0 1 47.301 16.34 A 14.527 14.527 0 0 1 47.82 14.28 A 8.628 8.628 0 0 1 50.329 10.527 A 10.406 10.406 0 0 1 50.64 10.26 L 58.44 3.78 Q 60.129 2.333 62.883 1.409 A 22.474 22.474 0 0 1 64.29 0.99 A 25.513 25.513 0 0 1 67.276 0.406 Q 68.736 0.203 70.427 0.102 A 60.42 60.42 0 0 1 74.04 0 A 61.513 61.513 0 0 1 77.835 0.11 Q 79.686 0.225 81.267 0.459 A 26.469 26.469 0 0 1 83.7 0.93 A 20.84 20.84 0 0 1 86.097 1.665 Q 87.308 2.124 88.273 2.699 A 9.686 9.686 0 0 1 89.55 3.6 A 9.679 9.679 0 0 1 91.641 6.013 A 8.782 8.782 0 0 1 92.43 7.71 A 15.144 15.144 0 0 1 93.173 11.307 A 18.364 18.364 0 0 1 93.24 12.9 L 93.24 33.36 A 17.056 17.056 0 0 1 92.965 36.479 A 14.196 14.196 0 0 1 92.46 38.43 A 8.877 8.877 0 0 1 90.276 41.894 A 10.909 10.909 0 0 1 89.64 42.48 Z M 139.86 42.48 L 132.12 48.96 Q 130.432 50.407 127.677 51.331 A 22.474 22.474 0 0 1 126.27 51.75 A 25.513 25.513 0 0 1 123.284 52.334 Q 121.824 52.537 120.133 52.639 A 60.42 60.42 0 0 1 116.52 52.74 Q 110.64 52.74 106.86 51.54 Q 103.819 50.574 101.865 49.046 A 10.3 10.3 0 0 1 100.98 48.27 A 11.471 11.471 0 0 1 98.637 45.019 A 10.711 10.711 0 0 1 98.07 43.56 Q 97.26 40.92 97.26 38.1 L 97.26 19.44 A 17.738 17.738 0 0 1 97.521 16.34 A 14.527 14.527 0 0 1 98.04 14.28 A 8.628 8.628 0 0 1 100.549 10.527 A 10.406 10.406 0 0 1 100.86 10.26 L 108.66 3.78 Q 110.349 2.333 113.103 1.409 A 22.474 22.474 0 0 1 114.51 0.99 A 25.513 25.513 0 0 1 117.496 0.406 Q 118.956 0.203 120.647 0.102 A 60.42 60.42 0 0 1 124.26 0 A 61.513 61.513 0 0 1 128.055 0.11 Q 129.906 0.225 131.487 0.459 A 26.469 26.469 0 0 1 133.92 0.93 A 20.84 20.84 0 0 1 136.317 1.665 Q 137.528 2.124 138.493 2.699 A 9.686 9.686 0 0 1 139.77 3.6 A 9.679 9.679 0 0 1 141.861 6.013 A 8.782 8.782 0 0 1 142.65 7.71 A 15.144 15.144 0 0 1 143.393 11.307 A 18.364 18.364 0 0 1 143.46 12.9 L 143.46 33.36 A 17.056 17.056 0 0 1 143.185 36.479 A 14.196 14.196 0 0 1 142.68 38.43 A 8.877 8.877 0 0 1 140.496 41.894 A 10.909 10.909 0 0 1 139.86 42.48 Z M 160.2 51.84 L 150.9 51.84 A 3.973 3.973 0 0 1 149.808 51.703 Q 148.583 51.352 148.258 50.102 A 4.066 4.066 0 0 1 148.14 49.08 L 148.14 10.2 A 4.24 4.24 0 0 1 148.218 9.358 Q 148.318 8.868 148.544 8.496 A 2.128 2.128 0 0 1 148.98 7.98 L 156.72 1.44 A 2.135 2.135 0 0 1 157.413 1.071 Q 157.721 0.97 158.096 0.928 A 4.992 4.992 0 0 1 158.64 0.9 L 177 0.9 A 34.387 34.387 0 0 1 180.351 1.052 Q 183.763 1.388 185.97 2.46 A 10.927 10.927 0 0 1 188.328 3.982 A 8.283 8.283 0 0 1 190.47 6.78 A 13.427 13.427 0 0 1 191.547 10.375 A 17.979 17.979 0 0 1 191.76 13.2 L 191.76 20.88 A 17.777 17.777 0 0 1 191.504 23.959 A 14.42 14.42 0 0 1 190.95 26.13 Q 190.14 28.5 188.16 30.18 L 180.36 36.66 A 9.963 9.963 0 0 1 178.65 37.804 Q 177.68 38.324 176.49 38.73 A 15.467 15.467 0 0 1 174.26 39.299 Q 173.154 39.5 171.886 39.595 A 29.744 29.744 0 0 1 170.7 39.66 L 170.7 42.54 A 4.24 4.24 0 0 1 170.622 43.382 Q 170.523 43.872 170.297 44.245 A 2.128 2.128 0 0 1 169.86 44.76 L 162.06 51.24 Q 161.592 51.709 160.721 51.811 A 4.453 4.453 0 0 1 160.2 51.84 Z M 318.18 6.9 L 318.78 6.9 L 318.78 19.86 Q 318.78 23.1 319.74 25.44 L 323.7 35.04 A 19.055 19.055 0 0 0 324.268 36.266 Q 324.565 36.849 324.873 37.336 A 10.244 10.244 0 0 0 325.08 37.65 A 2.28 2.28 0 0 0 326.355 38.552 Q 326.85 38.7 327.48 38.7 L 332.76 38.7 A 4.516 4.516 0 0 0 333.658 38.617 Q 334.703 38.405 335.22 37.65 Q 335.94 36.6 336.54 35.04 L 340.5 25.44 Q 341.393 23.265 341.456 20.311 A 21.24 21.24 0 0 0 341.46 19.86 L 341.46 6.9 L 342.06 6.9 L 342.06 19.86 A 23.447 23.447 0 0 1 341.994 21.662 A 18.314 18.314 0 0 1 341.85 22.95 Q 341.64 24.36 341.1 25.68 L 337.14 35.28 Q 336.42 37.02 335.55 38.16 A 2.726 2.726 0 0 1 334.147 39.112 Q 333.692 39.253 333.139 39.288 A 5.952 5.952 0 0 1 332.76 39.3 L 327.48 39.3 A 4.801 4.801 0 0 1 326.412 39.189 Q 325.339 38.944 324.72 38.16 A 9.833 9.833 0 0 1 323.916 36.96 Q 323.564 36.346 323.246 35.621 A 17.242 17.242 0 0 1 323.1 35.28 L 319.14 25.68 Q 318.6 24.36 318.39 22.95 A 18.887 18.887 0 0 1 318.22 21.278 A 24.17 24.17 0 0 1 318.18 19.86 L 318.18 6.9 Z M 158.64 44.7 L 167.94 44.7 A 3.11 3.11 0 0 0 168.795 44.593 Q 169.754 44.318 170.008 43.34 A 3.182 3.182 0 0 0 170.1 42.54 L 170.1 32.58 L 177 32.58 A 32.933 32.933 0 0 0 180.181 32.437 Q 183.412 32.122 185.533 31.118 A 10.203 10.203 0 0 0 185.55 31.11 A 10.461 10.461 0 0 0 187.827 29.665 A 7.949 7.949 0 0 0 189.9 27 A 12.694 12.694 0 0 0 190.968 23.471 A 16.785 16.785 0 0 0 191.16 20.88 L 191.16 13.2 A 16.363 16.363 0 0 0 190.883 10.122 A 12.473 12.473 0 0 0 189.9 7.08 A 8.141 8.141 0 0 0 187.144 3.89 A 11.109 11.109 0 0 0 185.55 2.97 Q 182.468 1.504 177.028 1.5 A 40.518 40.518 0 0 0 177 1.5 L 158.64 1.5 A 3.11 3.11 0 0 0 157.786 1.607 Q 156.827 1.882 156.572 2.86 A 3.182 3.182 0 0 0 156.48 3.66 L 156.48 42.54 A 3.11 3.11 0 0 0 156.587 43.395 Q 156.862 44.353 157.84 44.608 A 3.182 3.182 0 0 0 158.64 44.7 Z M 92.64 33.36 L 92.64 12.9 A 16.264 16.264 0 0 0 92.391 9.995 A 13.112 13.112 0 0 0 91.83 7.89 A 8.458 8.458 0 0 0 89.5 4.462 A 10.34 10.34 0 0 0 88.98 4.02 A 10.697 10.697 0 0 0 87.06 2.823 Q 85.466 2.034 83.31 1.5 A 26.462 26.462 0 0 0 80.374 0.961 Q 77.609 0.6 74.04 0.6 A 58.506 58.506 0 0 0 70.4 0.706 Q 68.624 0.817 67.107 1.044 A 25.257 25.257 0 0 0 64.77 1.5 A 21.367 21.367 0 0 0 62.463 2.204 Q 61.293 2.639 60.352 3.178 A 10.002 10.002 0 0 0 59.1 4.02 A 9.36 9.36 0 0 0 57.065 6.221 A 8.406 8.406 0 0 0 56.22 7.89 Q 55.38 10.14 55.38 12.9 L 55.38 33.36 A 15.677 15.677 0 0 0 55.644 36.294 A 12.728 12.728 0 0 0 56.22 38.37 Q 57.06 40.62 59.1 42.24 A 10.502 10.502 0 0 0 61.02 43.433 Q 62.017 43.921 63.233 44.306 A 22.389 22.389 0 0 0 64.77 44.73 A 27.284 27.284 0 0 0 67.707 45.252 Q 70.471 45.6 74.04 45.6 A 60.518 60.518 0 0 0 77.68 45.497 Q 80.928 45.301 83.31 44.73 Q 86.94 43.86 88.98 42.24 Q 91.02 40.62 91.83 38.37 A 13.642 13.642 0 0 0 92.542 35.218 A 17.134 17.134 0 0 0 92.64 33.36 Z M 142.86 33.36 L 142.86 12.9 A 16.264 16.264 0 0 0 142.611 9.995 A 13.112 13.112 0 0 0 142.05 7.89 A 8.458 8.458 0 0 0 139.72 4.462 A 10.34 10.34 0 0 0 139.2 4.02 A 10.697 10.697 0 0 0 137.28 2.823 Q 135.686 2.034 133.53 1.5 A 26.462 26.462 0 0 0 130.594 0.961 Q 127.829 0.6 124.26 0.6 A 58.506 58.506 0 0 0 120.62 0.706 Q 118.844 0.817 117.327 1.044 A 25.257 25.257 0 0 0 114.99 1.5 A 21.367 21.367 0 0 0 112.683 2.204 Q 111.513 2.639 110.572 3.178 A 10.002 10.002 0 0 0 109.32 4.02 A 9.36 9.36 0 0 0 107.285 6.221 A 8.406 8.406 0 0 0 106.44 7.89 Q 105.6 10.14 105.6 12.9 L 105.6 33.36 A 15.677 15.677 0 0 0 105.864 36.294 A 12.728 12.728 0 0 0 106.44 38.37 Q 107.28 40.62 109.32 42.24 A 10.502 10.502 0 0 0 111.24 43.433 Q 112.237 43.921 113.453 44.306 A 22.389 22.389 0 0 0 114.99 44.73 A 27.284 27.284 0 0 0 117.927 45.252 Q 120.691 45.6 124.26 45.6 A 60.518 60.518 0 0 0 127.9 45.497 Q 131.148 45.301 133.53 44.73 Q 137.16 43.86 139.2 42.24 Q 141.24 40.62 142.05 38.37 A 13.642 13.642 0 0 0 142.762 35.218 A 17.134 17.134 0 0 0 142.86 33.36 Z M 274.44 7.5 L 274.44 6.9 L 293.52 6.9 L 293.52 7.5 L 284.34 7.5 L 284.34 38.7 L 293.52 38.7 L 293.52 39.3 L 274.44 39.3 L 274.44 38.7 L 283.74 38.7 L 283.74 7.5 L 274.44 7.5 Z M 36.36 26.88 L 36.96 26.88 L 36.96 39.3 L 14.88 39.3 L 14.88 6.9 L 15.48 6.9 L 15.48 38.7 L 36.36 38.7 L 36.36 26.88 Z M 250.32 26.88 L 250.92 26.88 L 250.92 39.3 L 228.84 39.3 L 228.84 6.9 L 229.44 6.9 L 229.44 38.7 L 250.32 38.7 L 250.32 26.88 Z M 176.16 27.48 L 163.8 27.48 L 163.8 39.3 L 163.2 39.3 L 163.2 6.9 L 176.16 6.9 Q 179.707 6.9 181.642 7.851 A 5.679 5.679 0 0 1 181.89 7.98 Q 183.84 9.06 184.5 10.89 A 10.852 10.852 0 0 1 185.034 13.11 A 14.43 14.43 0 0 1 185.16 15.06 L 185.16 19.5 A 14.156 14.156 0 0 1 185.015 21.575 A 10.427 10.427 0 0 1 184.5 23.64 A 4.902 4.902 0 0 1 182.708 25.958 A 6.697 6.697 0 0 1 181.89 26.46 A 7.282 7.282 0 0 1 180.374 27.03 Q 178.67 27.48 176.16 27.48 Z M 61.86 31.98 L 61.86 14.28 A 9.685 9.685 0 0 1 62.087 12.136 A 7.429 7.429 0 0 1 62.91 10.02 Q 63.813 8.473 65.889 7.502 A 11.266 11.266 0 0 1 66.6 7.2 A 12.559 12.559 0 0 1 68.65 6.621 Q 70.844 6.18 73.92 6.18 A 35.609 35.609 0 0 1 76.662 6.278 Q 79.257 6.48 81.006 7.092 A 9.819 9.819 0 0 1 81.3 7.2 A 10.063 10.063 0 0 1 82.931 7.994 Q 84.312 8.839 85.02 10.02 A 7.498 7.498 0 0 1 85.984 12.737 A 9.886 9.886 0 0 1 86.1 14.28 L 86.1 31.98 A 9.06 9.06 0 0 1 85.813 34.304 A 7.507 7.507 0 0 1 85.02 36.21 A 5.751 5.751 0 0 1 83.462 37.904 Q 82.558 38.574 81.3 39.06 Q 78.777 40.035 74.334 40.078 A 42.775 42.775 0 0 1 73.92 40.08 Q 69.354 40.08 66.73 39.109 A 9.688 9.688 0 0 1 66.6 39.06 A 9.744 9.744 0 0 1 64.973 38.263 Q 64.082 37.711 63.479 37.011 A 5.152 5.152 0 0 1 62.91 36.21 A 7.907 7.907 0 0 1 61.934 33.215 A 10.027 10.027 0 0 1 61.86 31.98 Z M 112.08 31.98 L 112.08 14.28 A 9.685 9.685 0 0 1 112.307 12.136 A 7.429 7.429 0 0 1 113.13 10.02 Q 114.033 8.473 116.109 7.502 A 11.266 11.266 0 0 1 116.82 7.2 A 12.559 12.559 0 0 1 118.87 6.621 Q 121.064 6.18 124.14 6.18 A 35.609 35.609 0 0 1 126.882 6.278 Q 129.477 6.48 131.226 7.092 A 9.819 9.819 0 0 1 131.52 7.2 A 10.063 10.063 0 0 1 133.151 7.994 Q 134.532 8.839 135.24 10.02 A 7.498 7.498 0 0 1 136.204 12.737 A 9.886 9.886 0 0 1 136.32 14.28 L 136.32 31.98 A 9.06 9.06 0 0 1 136.033 34.304 A 7.507 7.507 0 0 1 135.24 36.21 A 5.751 5.751 0 0 1 133.682 37.904 Q 132.778 38.574 131.52 39.06 Q 128.997 40.035 124.554 40.078 A 42.775 42.775 0 0 1 124.14 40.08 Q 119.574 40.08 116.95 39.109 A 9.688 9.688 0 0 1 116.82 39.06 A 9.744 9.744 0 0 1 115.193 38.263 Q 114.302 37.711 113.699 37.011 A 5.152 5.152 0 0 1 113.13 36.21 A 7.907 7.907 0 0 1 112.154 33.215 A 10.027 10.027 0 0 1 112.08 31.98 Z M 85.5 31.98 L 85.5 14.28 A 8.603 8.603 0 0 0 85.276 12.274 A 6.777 6.777 0 0 0 84.48 10.32 Q 83.62 8.903 81.691 8.019 A 10.68 10.68 0 0 0 80.94 7.71 A 12.332 12.332 0 0 0 79.024 7.19 Q 77.049 6.807 74.313 6.782 A 42.296 42.296 0 0 0 73.92 6.78 A 34.401 34.401 0 0 0 71.333 6.871 Q 68.791 7.063 67.091 7.663 A 9.591 9.591 0 0 0 66.96 7.71 Q 65.131 8.385 64.108 9.455 A 4.713 4.713 0 0 0 63.45 10.32 A 7.076 7.076 0 0 0 62.567 12.848 A 9.286 9.286 0 0 0 62.46 14.28 L 62.46 31.98 A 8.472 8.472 0 0 0 62.74 34.195 A 7.098 7.098 0 0 0 63.45 35.91 Q 64.303 37.383 66.292 38.278 A 10.458 10.458 0 0 0 66.96 38.55 Q 69.428 39.461 73.736 39.48 A 41.808 41.808 0 0 0 73.92 39.48 A 35.211 35.211 0 0 0 76.536 39.39 Q 78.995 39.206 80.66 38.649 A 9.705 9.705 0 0 0 80.94 38.55 A 9.318 9.318 0 0 0 82.488 37.823 Q 83.313 37.331 83.885 36.707 A 4.875 4.875 0 0 0 84.48 35.91 Q 85.5 34.2 85.5 31.98 Z M 135.72 31.98 L 135.72 14.28 A 8.603 8.603 0 0 0 135.496 12.274 A 6.777 6.777 0 0 0 134.7 10.32 Q 133.84 8.903 131.911 8.019 A 10.68 10.68 0 0 0 131.16 7.71 A 12.332 12.332 0 0 0 129.244 7.19 Q 127.269 6.807 124.533 6.782 A 42.296 42.296 0 0 0 124.14 6.78 A 34.401 34.401 0 0 0 121.553 6.871 Q 119.011 7.063 117.311 7.663 A 9.591 9.591 0 0 0 117.18 7.71 Q 115.351 8.385 114.328 9.455 A 4.713 4.713 0 0 0 113.67 10.32 A 7.076 7.076 0 0 0 112.787 12.848 A 9.286 9.286 0 0 0 112.68 14.28 L 112.68 31.98 A 8.472 8.472 0 0 0 112.96 34.195 A 7.098 7.098 0 0 0 113.67 35.91 Q 114.523 37.383 116.512 38.278 A 10.458 10.458 0 0 0 117.18 38.55 Q 119.648 39.461 123.956 39.48 A 41.808 41.808 0 0 0 124.14 39.48 A 35.211 35.211 0 0 0 126.756 39.39 Q 129.215 39.206 130.88 38.649 A 9.705 9.705 0 0 0 131.16 38.55 A 9.318 9.318 0 0 0 132.708 37.823 Q 133.533 37.331 134.105 36.707 A 4.875 4.875 0 0 0 134.7 35.91 Q 135.72 34.2 135.72 31.98 Z M 163.8 26.88 L 176.16 26.88 A 21.771 21.771 0 0 0 178.014 26.807 Q 179.881 26.646 181.096 26.138 A 5.527 5.527 0 0 0 181.5 25.95 A 5.602 5.602 0 0 0 182.831 25.012 A 4.487 4.487 0 0 0 183.93 23.34 A 9.644 9.644 0 0 0 184.44 21.298 A 12.85 12.85 0 0 0 184.56 19.5 L 184.56 15.06 Q 184.56 12.9 183.93 11.19 Q 183.3 9.48 181.5 8.49 A 6.517 6.517 0 0 0 180.076 7.932 Q 178.497 7.5 176.16 7.5 L 163.8 7.5 L 163.8 26.88 Z M 69 31.2 L 69 15.06 A 2.605 2.605 0 0 1 69.24 13.934 A 2.592 2.592 0 0 1 69.9 13.08 Q 70.8 12.3 74.04 12.3 Q 77.34 12.3 78.21 13.08 A 2.524 2.524 0 0 1 79.077 14.912 A 3.206 3.206 0 0 1 79.08 15.06 L 79.08 31.2 A 2.708 2.708 0 0 1 78.805 32.427 A 2.742 2.742 0 0 1 78.21 33.21 A 1.975 1.975 0 0 1 77.588 33.579 Q 76.584 33.977 74.499 34.016 A 24.822 24.822 0 0 1 74.04 34.02 Q 70.8 34.02 69.9 33.21 A 2.682 2.682 0 0 1 69.192 32.224 A 2.691 2.691 0 0 1 69 31.2 Z M 119.22 31.2 L 119.22 15.06 A 2.605 2.605 0 0 1 119.46 13.934 A 2.592 2.592 0 0 1 120.12 13.08 Q 121.02 12.3 124.26 12.3 Q 127.56 12.3 128.43 13.08 A 2.524 2.524 0 0 1 129.297 14.912 A 3.206 3.206 0 0 1 129.3 15.06 L 129.3 31.2 A 2.708 2.708 0 0 1 129.025 32.427 A 2.742 2.742 0 0 1 128.43 33.21 A 1.975 1.975 0 0 1 127.808 33.579 Q 126.804 33.977 124.719 34.016 A 24.822 24.822 0 0 1 124.26 34.02 Q 121.02 34.02 120.12 33.21 A 2.682 2.682 0 0 1 119.412 32.224 A 2.691 2.691 0 0 1 119.22 31.2 Z M 169.98 21.78 L 169.98 12.72 L 175.38 12.72 A 5.39 5.39 0 0 1 176.153 12.771 Q 177.056 12.903 177.494 13.372 A 1.412 1.412 0 0 1 177.66 13.59 A 3.549 3.549 0 0 1 178.142 14.908 A 4.691 4.691 0 0 1 178.2 15.66 L 178.2 18.84 A 4.118 4.118 0 0 1 178.005 20.125 A 3.685 3.685 0 0 1 177.66 20.88 Q 177.12 21.78 175.38 21.78 L 169.98 21.78 Z M 69.6 19.86 L 69.6 31.2 A 2.546 2.546 0 0 0 69.653 31.73 A 1.969 1.969 0 0 0 69.84 32.25 Q 70.032 32.609 70.491 32.873 A 2.963 2.963 0 0 0 70.74 33 L 70.74 21.6 A 2.546 2.546 0 0 0 70.688 21.071 A 1.969 1.969 0 0 0 70.5 20.55 Q 70.26 20.1 69.6 19.86 Z M 119.82 19.86 L 119.82 31.2 A 2.546 2.546 0 0 0 119.873 31.73 A 1.969 1.969 0 0 0 120.06 32.25 Q 120.252 32.609 120.711 32.873 A 2.963 2.963 0 0 0 120.96 33 L 120.96 21.6 A 2.546 2.546 0 0 0 120.908 21.071 A 1.969 1.969 0 0 0 120.72 20.55 Q 120.48 20.1 119.82 19.86 Z" vector-effect="non-scaling-stroke"/></g></svg>