<svg width="263.24" height="35.16" viewBox="0 0 263.24 35.16" xmlns="http://www.w3.org/2000/svg"><g id="svgGroup" stroke-linecap="round" fill-rule="evenodd" font-size="9pt" stroke="#000000" stroke-width="1" fill="#000000" style="stroke:#000000;stroke-width:1;fill:#000000"><path d="M 242.84 29.8 L 261.4 29.8 A 2.073 2.073 0 0 0 261.97 29.729 Q 262.609 29.546 262.779 28.893 A 2.122 2.122 0 0 0 262.84 28.36 L 262.84 23.68 A 2.073 2.073 0 0 0 262.769 23.11 Q 262.586 22.471 261.933 22.301 A 2.122 2.122 0 0 0 261.4 22.24 L 250.36 22.24 L 250.36 18.8 L 258.16 18.8 A 2.073 2.073 0 0 0 258.73 18.729 Q 259.369 18.546 259.539 17.893 A 2.122 2.122 0 0 0 259.6 17.36 L 259.6 13.08 A 2.073 2.073 0 0 0 259.529 12.51 Q 259.346 11.871 258.693 11.701 A 2.122 2.122 0 0 0 258.16 11.64 L 250.36 11.64 L 250.36 8.56 L 261.4 8.56 A 2.073 2.073 0 0 0 261.97 8.489 Q 262.609 8.306 262.779 7.653 A 2.122 2.122 0 0 0 262.84 7.12 L 262.84 2.44 A 2.073 2.073 0 0 0 262.769 1.87 Q 262.586 1.231 261.933 1.061 A 2.122 2.122 0 0 0 261.4 1 L 242.84 1 A 2.073 2.073 0 0 0 242.27 1.071 Q 241.631 1.254 241.462 1.907 A 2.122 2.122 0 0 0 241.4 2.44 L 241.4 28.36 A 2.073 2.073 0 0 0 241.472 28.93 Q 241.655 29.569 242.307 29.739 A 2.122 2.122 0 0 0 242.84 29.8 Z M 220.08 34.56 L 209.68 34.56 Q 209.005 34.56 208.524 34.377 A 1.976 1.976 0 0 1 208.2 34.22 A 1.786 1.786 0 0 1 207.748 33.819 Q 207.584 33.619 207.445 33.354 A 4.017 4.017 0 0 1 207.28 33 L 203.36 23.2 Q 202.904 22.022 202.611 21.223 A 64.232 64.232 0 0 1 202.58 21.14 Q 202.28 20.32 202.16 19.48 A 10.268 10.268 0 0 1 202.089 18.819 Q 202.04 18.18 202.04 17.36 L 202.04 6.8 A 2.827 2.827 0 0 1 202.092 6.239 Q 202.211 5.654 202.6 5.32 L 207.76 0.96 Q 208.1 0.682 208.677 0.619 A 3.328 3.328 0 0 1 209.04 0.6 L 215.4 0.6 A 3.021 3.021 0 0 1 216.158 0.687 Q 217.36 0.999 217.36 2.44 L 217.36 13.48 A 3.511 3.511 0 0 0 217.388 13.934 A 2.867 2.867 0 0 0 217.44 14.22 Q 217.52 14.56 217.64 15 L 217.76 15.28 L 217.76 6.8 A 2.827 2.827 0 0 1 217.812 6.239 Q 217.931 5.654 218.32 5.32 L 223.48 0.96 Q 223.82 0.682 224.397 0.619 A 3.328 3.328 0 0 1 224.76 0.6 L 231.04 0.6 A 3.594 3.594 0 0 1 231.531 0.631 Q 232.106 0.711 232.413 0.993 A 1.036 1.036 0 0 1 232.46 1.04 A 1.321 1.321 0 0 1 232.738 1.499 Q 232.814 1.702 232.849 1.955 A 3.507 3.507 0 0 1 232.88 2.44 L 232.88 13 A 22.542 22.542 0 0 1 232.865 13.863 Q 232.849 14.268 232.818 14.615 A 9.724 9.724 0 0 1 232.76 15.12 Q 232.64 15.96 232.36 16.78 Q 232.172 17.331 231.876 18.072 A 51.178 51.178 0 0 1 231.56 18.84 L 227.64 28.64 A 2.317 2.317 0 0 1 227.482 29.009 A 1.861 1.861 0 0 1 227.32 29.26 A 5.2 5.2 0 0 1 227.095 29.534 A 4.161 4.161 0 0 1 226.92 29.72 L 221.76 34 A 1.973 1.973 0 0 1 220.933 34.453 Q 220.627 34.539 220.261 34.556 A 3.936 3.936 0 0 1 220.08 34.56 Z M 214.84 29.8 L 225.24 29.8 Q 225.81 29.8 226.217 29.658 A 1.728 1.728 0 0 0 226.52 29.52 A 1.396 1.396 0 0 0 226.914 29.168 Q 227.127 28.896 227.28 28.48 L 231.2 18.68 Q 231.68 17.48 231.96 16.68 Q 232.24 15.88 232.36 15.06 A 9.864 9.864 0 0 0 232.432 14.401 Q 232.459 14.054 232.471 13.654 A 22.183 22.183 0 0 0 232.48 13 L 232.48 2.44 A 2.073 2.073 0 0 0 232.409 1.87 Q 232.226 1.231 231.573 1.061 A 2.122 2.122 0 0 0 231.04 1 L 224.76 1 A 2.073 2.073 0 0 0 224.19 1.071 Q 223.551 1.254 223.382 1.907 A 2.122 2.122 0 0 0 223.32 2.44 L 223.32 13.44 Q 223.32 13.84 223.24 14.24 Q 223.16 14.64 223 15.08 L 221.12 20.72 A 1.413 1.413 0 0 1 221.002 21.01 Q 220.91 21.174 220.782 21.27 A 0.689 0.689 0 0 1 220.36 21.4 L 219.92 21.4 A 0.68 0.68 0 0 1 219.333 21.097 Q 219.251 20.98 219.192 20.819 A 1.713 1.713 0 0 1 219.16 20.72 L 217.28 15.12 A 6.278 6.278 0 0 1 217.115 14.599 A 5.104 5.104 0 0 1 217.04 14.28 Q 216.96 13.88 216.96 13.48 L 216.96 2.44 A 1.903 1.903 0 0 0 216.877 1.853 Q 216.677 1.237 215.995 1.066 A 2.456 2.456 0 0 0 215.4 1 L 209.04 1 A 2.073 2.073 0 0 0 208.47 1.071 Q 207.831 1.254 207.662 1.907 A 2.122 2.122 0 0 0 207.6 2.44 L 207.6 13 A 21.218 21.218 0 0 0 207.616 13.837 Q 207.643 14.535 207.72 15.06 Q 207.84 15.88 208.12 16.68 Q 208.4 17.48 208.88 18.68 L 212.8 28.48 Q 213.01 28.979 213.289 29.271 A 1.423 1.423 0 0 0 213.6 29.52 Q 214.08 29.8 214.84 29.8 Z M 192.68 34.56 L 175.64 34.56 Q 173.8 34.56 173.8 32.72 L 173.8 27.96 A 2.827 2.827 0 0 1 173.852 27.399 Q 173.971 26.814 174.36 26.48 L 179.2 22.4 L 179.2 13.48 L 175.64 13.48 Q 173.8 13.48 173.8 11.64 L 173.8 6.8 A 2.827 2.827 0 0 1 173.852 6.239 Q 173.971 5.654 174.36 5.32 L 179.52 0.96 Q 179.86 0.682 180.437 0.619 A 3.328 3.328 0 0 1 180.8 0.6 L 197.84 0.6 Q 199.68 0.6 199.68 2.44 L 199.68 7.28 A 2.827 2.827 0 0 1 199.628 7.841 Q 199.51 8.426 199.12 8.76 L 194.36 12.76 L 194.36 21.76 L 197.84 21.76 Q 199.68 21.76 199.68 23.6 L 199.68 28.36 A 2.827 2.827 0 0 1 199.628 28.921 Q 199.51 29.506 199.12 29.84 L 193.92 34.16 A 1.226 1.226 0 0 1 193.458 34.444 Q 193.133 34.56 192.68 34.56 Z M 256.24 34.56 L 237.68 34.56 Q 235.84 34.56 235.84 32.72 L 235.84 6.8 A 2.827 2.827 0 0 1 235.892 6.239 Q 236.011 5.654 236.4 5.32 L 241.56 0.96 Q 241.9 0.682 242.477 0.619 A 3.328 3.328 0 0 1 242.84 0.6 L 261.4 0.6 Q 263.24 0.6 263.24 2.44 L 263.24 7.12 A 2.827 2.827 0 0 1 263.188 7.681 Q 263.07 8.266 262.68 8.6 L 259.24 11.44 A 1.302 1.302 0 0 1 259.864 12.18 Q 259.953 12.425 259.984 12.735 A 3.485 3.485 0 0 1 260 13.08 L 260 17.36 A 2.827 2.827 0 0 1 259.948 17.921 Q 259.83 18.506 259.44 18.84 L 255.88 21.84 L 261.4 21.84 Q 263.24 21.84 263.24 23.68 L 263.24 28.36 A 2.827 2.827 0 0 1 263.188 28.921 Q 263.07 29.506 262.68 29.84 L 257.48 34.16 A 1.226 1.226 0 0 1 257.018 34.444 Q 256.693 34.56 256.24 34.56 Z M 22.2 34.56 L 1.84 34.56 Q 0 34.56 0 32.72 L 0 6.8 A 2.827 2.827 0 0 1 0.052 6.239 Q 0.171 5.654 0.56 5.32 L 5.72 0.96 Q 6.06 0.682 6.637 0.619 A 3.328 3.328 0 0 1 7 0.6 L 13.2 0.6 Q 15.04 0.6 15.04 2.44 L 15.04 18.72 L 15.12 18.64 L 20.28 14.28 Q 20.62 14.002 21.197 13.939 A 3.328 3.328 0 0 1 21.56 13.92 L 27.36 13.92 Q 29.2 13.92 29.2 15.76 L 29.2 28.36 A 2.827 2.827 0 0 1 29.148 28.921 Q 29.03 29.506 28.64 29.84 L 23.44 34.16 A 1.226 1.226 0 0 1 22.978 34.444 Q 22.653 34.56 22.2 34.56 Z M 164.84 34.56 L 144.48 34.56 Q 142.64 34.56 142.64 32.72 L 142.64 6.8 A 2.827 2.827 0 0 1 142.692 6.239 Q 142.811 5.654 143.2 5.32 L 148.36 0.96 Q 148.7 0.682 149.277 0.619 A 3.328 3.328 0 0 1 149.64 0.6 L 155.84 0.6 Q 157.68 0.6 157.68 2.44 L 157.68 18.72 L 157.76 18.64 L 162.92 14.28 Q 163.26 14.002 163.837 13.939 A 3.328 3.328 0 0 1 164.2 13.92 L 170 13.92 Q 171.84 13.92 171.84 15.76 L 171.84 28.36 A 2.827 2.827 0 0 1 171.788 28.921 Q 171.67 29.506 171.28 29.84 L 166.08 34.16 A 1.226 1.226 0 0 1 165.618 34.444 Q 165.293 34.56 164.84 34.56 Z M 7 29.8 L 27.36 29.8 A 2.073 2.073 0 0 0 27.93 29.729 Q 28.569 29.546 28.739 28.893 A 2.122 2.122 0 0 0 28.8 28.36 L 28.8 15.76 A 2.073 2.073 0 0 0 28.729 15.19 Q 28.546 14.551 27.893 14.381 A 2.122 2.122 0 0 0 27.36 14.32 L 21.56 14.32 A 2.073 2.073 0 0 0 20.99 14.391 Q 20.351 14.574 20.182 15.227 A 2.122 2.122 0 0 0 20.12 15.76 L 20.12 22.24 L 14.64 22.24 L 14.64 2.44 A 2.073 2.073 0 0 0 14.569 1.87 Q 14.386 1.231 13.733 1.061 A 2.122 2.122 0 0 0 13.2 1 L 7 1 A 2.073 2.073 0 0 0 6.43 1.071 Q 5.791 1.254 5.622 1.907 A 2.122 2.122 0 0 0 5.56 2.44 L 5.56 28.36 A 2.073 2.073 0 0 0 5.632 28.93 Q 5.815 29.569 6.467 29.739 A 2.122 2.122 0 0 0 7 29.8 Z M 149.64 29.8 L 170 29.8 A 2.073 2.073 0 0 0 170.57 29.729 Q 171.209 29.546 171.379 28.893 A 2.122 2.122 0 0 0 171.44 28.36 L 171.44 15.76 A 2.073 2.073 0 0 0 171.369 15.19 Q 171.186 14.551 170.533 14.381 A 2.122 2.122 0 0 0 170 14.32 L 164.2 14.32 A 2.073 2.073 0 0 0 163.63 14.391 Q 162.991 14.574 162.822 15.227 A 2.122 2.122 0 0 0 162.76 15.76 L 162.76 22.24 L 157.28 22.24 L 157.28 2.44 A 2.073 2.073 0 0 0 157.209 1.87 Q 157.026 1.231 156.373 1.061 A 2.122 2.122 0 0 0 155.84 1 L 149.64 1 A 2.073 2.073 0 0 0 149.07 1.071 Q 148.431 1.254 148.262 1.907 A 2.122 2.122 0 0 0 148.2 2.44 L 148.2 28.36 A 2.073 2.073 0 0 0 148.272 28.93 Q 148.455 29.569 149.107 29.739 A 2.122 2.122 0 0 0 149.64 29.8 Z M 246.16 25.8 L 259.24 25.8 L 259.24 26.2 L 245.76 26.2 L 245.76 4.6 L 259.24 4.6 L 259.24 5 L 246.16 5 L 246.16 15.04 L 256 15.04 L 256 15.44 L 246.16 15.44 L 246.16 25.8 Z M 180.8 29.8 L 197.84 29.8 A 2.073 2.073 0 0 0 198.41 29.729 Q 199.049 29.546 199.219 28.893 A 2.122 2.122 0 0 0 199.28 28.36 L 199.28 23.6 A 2.073 2.073 0 0 0 199.209 23.03 Q 199.026 22.391 198.373 22.221 A 2.122 2.122 0 0 0 197.84 22.16 L 193.96 22.16 L 193.96 8.72 L 197.84 8.72 A 2.073 2.073 0 0 0 198.41 8.649 Q 199.049 8.466 199.219 7.813 A 2.122 2.122 0 0 0 199.28 7.28 L 199.28 2.44 A 2.073 2.073 0 0 0 199.209 1.87 Q 199.026 1.231 198.373 1.061 A 2.122 2.122 0 0 0 197.84 1 L 180.8 1 A 2.073 2.073 0 0 0 180.23 1.071 Q 179.591 1.254 179.422 1.907 A 2.122 2.122 0 0 0 179.36 2.44 L 179.36 7.28 A 2.073 2.073 0 0 0 179.432 7.85 Q 179.615 8.489 180.267 8.659 A 2.122 2.122 0 0 0 180.8 8.72 L 184.76 8.72 L 184.76 22.16 L 180.8 22.16 A 2.073 2.073 0 0 0 180.23 22.231 Q 179.591 22.414 179.422 23.067 A 2.122 2.122 0 0 0 179.36 23.6 L 179.36 28.36 A 2.073 2.073 0 0 0 179.432 28.93 Q 179.615 29.569 180.267 29.739 A 2.122 2.122 0 0 0 180.8 29.8 Z M 59.76 28.32 L 54.6 32.64 Q 53.2 33.84 50.7 34.5 A 17.008 17.008 0 0 1 48.71 34.889 Q 47.736 35.025 46.609 35.092 A 40.28 40.28 0 0 1 44.2 35.16 A 31.814 31.814 0 0 1 41.671 35.066 Q 40.406 34.964 39.33 34.755 A 14.099 14.099 0 0 1 37.76 34.36 A 12.98 12.98 0 0 1 36.028 33.679 Q 34.715 33.043 33.84 32.18 A 7.648 7.648 0 0 1 32.278 30.013 A 7.141 7.141 0 0 1 31.9 29.04 Q 31.36 27.28 31.36 25.4 L 31.36 12.96 A 11.826 11.826 0 0 1 31.534 10.893 A 9.685 9.685 0 0 1 31.88 9.52 A 5.752 5.752 0 0 1 33.553 7.018 A 6.938 6.938 0 0 1 33.76 6.84 L 38.96 2.52 Q 40.36 1.32 42.86 0.66 A 17.008 17.008 0 0 1 44.851 0.271 Q 45.824 0.136 46.952 0.068 A 40.28 40.28 0 0 1 49.36 0 A 41.008 41.008 0 0 1 51.89 0.073 Q 54.146 0.213 55.8 0.62 A 13.893 13.893 0 0 1 57.398 1.11 Q 58.205 1.416 58.849 1.799 A 6.457 6.457 0 0 1 59.7 2.4 A 6.453 6.453 0 0 1 61.094 4.009 A 5.854 5.854 0 0 1 61.62 5.14 Q 62.16 6.72 62.16 8.6 L 62.16 22.24 A 11.371 11.371 0 0 1 61.977 24.319 A 9.464 9.464 0 0 1 61.64 25.62 Q 61.12 27.16 59.76 28.32 Z M 93.24 28.32 L 88.08 32.64 Q 86.68 33.84 84.18 34.5 A 17.008 17.008 0 0 1 82.19 34.889 Q 81.216 35.025 80.089 35.092 A 40.28 40.28 0 0 1 77.68 35.16 A 31.814 31.814 0 0 1 75.151 35.066 Q 73.886 34.964 72.81 34.755 A 14.099 14.099 0 0 1 71.24 34.36 A 12.98 12.98 0 0 1 69.508 33.679 Q 68.195 33.043 67.32 32.18 A 7.648 7.648 0 0 1 65.758 30.013 A 7.141 7.141 0 0 1 65.38 29.04 Q 64.84 27.28 64.84 25.4 L 64.84 12.96 A 11.826 11.826 0 0 1 65.014 10.893 A 9.685 9.685 0 0 1 65.36 9.52 A 5.752 5.752 0 0 1 67.033 7.018 A 6.938 6.938 0 0 1 67.24 6.84 L 72.44 2.52 Q 73.84 1.32 76.34 0.66 A 17.008 17.008 0 0 1 78.331 0.271 Q 79.304 0.136 80.432 0.068 A 40.28 40.28 0 0 1 82.84 0 A 41.008 41.008 0 0 1 85.37 0.073 Q 87.626 0.213 89.28 0.62 A 13.893 13.893 0 0 1 90.878 1.11 Q 91.685 1.416 92.329 1.799 A 6.457 6.457 0 0 1 93.18 2.4 A 6.453 6.453 0 0 1 94.574 4.009 A 5.854 5.854 0 0 1 95.1 5.14 Q 95.64 6.72 95.64 8.6 L 95.64 22.24 A 11.371 11.371 0 0 1 95.457 24.319 A 9.464 9.464 0 0 1 95.12 25.62 Q 94.6 27.16 93.24 28.32 Z M 106.8 34.56 L 100.6 34.56 Q 98.76 34.56 98.76 32.72 L 98.76 6.8 A 2.827 2.827 0 0 1 98.812 6.239 Q 98.931 5.654 99.32 5.32 L 104.48 0.96 Q 104.82 0.682 105.397 0.619 A 3.328 3.328 0 0 1 105.76 0.6 L 118 0.6 A 22.925 22.925 0 0 1 120.234 0.702 Q 122.509 0.925 123.98 1.64 Q 126.12 2.68 126.98 4.52 A 8.952 8.952 0 0 1 127.698 6.917 A 11.986 11.986 0 0 1 127.84 8.8 L 127.84 13.92 A 11.852 11.852 0 0 1 127.669 15.972 A 9.613 9.613 0 0 1 127.3 17.42 Q 126.76 19 125.44 20.12 L 120.24 24.44 Q 119.305 25.226 117.862 25.749 A 11.522 11.522 0 0 1 117.66 25.82 A 10.311 10.311 0 0 1 116.173 26.199 Q 115.436 26.333 114.591 26.397 A 19.829 19.829 0 0 1 113.8 26.44 L 113.8 28.36 A 2.827 2.827 0 0 1 113.748 28.921 Q 113.63 29.506 113.24 29.84 L 108.04 34.16 A 1.226 1.226 0 0 1 107.578 34.444 Q 107.253 34.56 106.8 34.56 Z M 212.12 4.6 L 212.52 4.6 L 212.52 13.24 Q 212.52 15.166 213.029 16.615 A 7.155 7.155 0 0 0 213.16 16.96 L 215.8 23.36 A 12.703 12.703 0 0 0 216.179 24.177 Q 216.377 24.566 216.582 24.891 A 6.83 6.83 0 0 0 216.72 25.1 A 1.52 1.52 0 0 0 217.57 25.702 Q 217.838 25.782 218.166 25.797 A 3.375 3.375 0 0 0 218.32 25.8 L 221.84 25.8 A 3.011 3.011 0 0 0 222.439 25.745 Q 223.135 25.603 223.48 25.1 A 6.695 6.695 0 0 0 223.885 24.422 Q 224.073 24.064 224.246 23.646 A 11.948 11.948 0 0 0 224.36 23.36 L 227 16.96 Q 227.64 15.4 227.64 13.24 L 227.64 4.6 L 228.04 4.6 L 228.04 13.24 Q 228.04 14.36 227.9 15.3 Q 227.76 16.24 227.4 17.12 L 224.76 23.52 A 10.847 10.847 0 0 1 224.337 24.428 Q 224.111 24.857 223.866 25.212 A 6.017 6.017 0 0 1 223.7 25.44 A 1.818 1.818 0 0 1 222.765 26.075 Q 222.36 26.2 221.84 26.2 L 218.32 26.2 A 3.201 3.201 0 0 1 217.608 26.126 Q 217.133 26.017 216.791 25.751 A 1.837 1.837 0 0 1 216.48 25.44 Q 215.88 24.68 215.4 23.52 L 212.76 17.12 Q 212.4 16.24 212.26 15.3 A 12.592 12.592 0 0 1 212.147 14.186 A 16.113 16.113 0 0 1 212.12 13.24 L 212.12 4.6 Z M 105.76 29.8 L 111.96 29.8 A 2.073 2.073 0 0 0 112.53 29.729 Q 113.169 29.546 113.339 28.893 A 2.122 2.122 0 0 0 113.4 28.36 L 113.4 21.72 L 118 21.72 A 21.955 21.955 0 0 0 120.121 21.624 Q 122.275 21.415 123.688 20.746 A 6.673 6.673 0 0 0 123.7 20.74 A 6.974 6.974 0 0 0 125.218 19.777 A 5.3 5.3 0 0 0 126.6 18 Q 127.44 16.24 127.44 13.92 L 127.44 8.8 A 10.909 10.909 0 0 0 127.256 6.748 A 8.315 8.315 0 0 0 126.6 4.72 Q 125.76 2.96 123.7 1.98 A 8.538 8.538 0 0 0 122.016 1.402 Q 120.332 1 118 1 L 105.76 1 A 2.073 2.073 0 0 0 105.19 1.071 Q 104.551 1.254 104.382 1.907 A 2.122 2.122 0 0 0 104.32 2.44 L 104.32 28.36 A 2.073 2.073 0 0 0 104.392 28.93 Q 104.575 29.569 105.227 29.739 A 2.122 2.122 0 0 0 105.76 29.8 Z M 61.76 22.24 L 61.76 8.6 A 10.843 10.843 0 0 0 61.594 6.663 A 8.741 8.741 0 0 0 61.22 5.26 A 5.638 5.638 0 0 0 59.667 2.974 A 6.894 6.894 0 0 0 59.32 2.68 A 7.131 7.131 0 0 0 58.04 1.882 Q 57.376 1.553 56.565 1.291 A 15.243 15.243 0 0 0 55.54 1 A 17.641 17.641 0 0 0 53.582 0.64 Q 52.546 0.505 51.339 0.446 A 40.502 40.502 0 0 0 49.36 0.4 A 39.004 39.004 0 0 0 46.934 0.471 Q 45.749 0.545 44.738 0.696 A 16.838 16.838 0 0 0 43.18 1 A 14.244 14.244 0 0 0 41.642 1.469 Q 40.293 1.971 39.4 2.68 Q 38.04 3.76 37.48 5.26 A 8.827 8.827 0 0 0 36.986 7.375 A 11.03 11.03 0 0 0 36.92 8.6 L 36.92 22.24 Q 36.92 24.08 37.48 25.58 A 5.795 5.795 0 0 0 39.073 27.884 A 7.026 7.026 0 0 0 39.4 28.16 A 7.001 7.001 0 0 0 40.68 28.955 Q 41.743 29.476 43.18 29.82 Q 44.93 30.239 47.381 30.356 A 41.895 41.895 0 0 0 49.36 30.4 Q 52.002 30.4 53.982 30.114 A 17.355 17.355 0 0 0 55.54 29.82 A 13.947 13.947 0 0 0 57.079 29.362 Q 58.428 28.869 59.32 28.16 A 6.13 6.13 0 0 0 60.632 26.75 A 5.448 5.448 0 0 0 61.22 25.58 Q 61.76 24.08 61.76 22.24 Z M 95.24 22.24 L 95.24 8.6 A 10.843 10.843 0 0 0 95.074 6.663 A 8.741 8.741 0 0 0 94.7 5.26 A 5.638 5.638 0 0 0 93.147 2.974 A 6.894 6.894 0 0 0 92.8 2.68 A 7.131 7.131 0 0 0 91.52 1.882 Q 90.856 1.553 90.045 1.291 A 15.243 15.243 0 0 0 89.02 1 A 17.641 17.641 0 0 0 87.062 0.64 Q 86.026 0.505 84.819 0.446 A 40.502 40.502 0 0 0 82.84 0.4 A 39.004 39.004 0 0 0 80.414 0.471 Q 79.229 0.545 78.218 0.696 A 16.838 16.838 0 0 0 76.66 1 A 14.244 14.244 0 0 0 75.122 1.469 Q 73.773 1.971 72.88 2.68 Q 71.52 3.76 70.96 5.26 A 8.827 8.827 0 0 0 70.466 7.375 A 11.03 11.03 0 0 0 70.4 8.6 L 70.4 22.24 Q 70.4 24.08 70.96 25.58 A 5.795 5.795 0 0 0 72.553 27.884 A 7.026 7.026 0 0 0 72.88 28.16 A 7.001 7.001 0 0 0 74.16 28.955 Q 75.223 29.476 76.66 29.82 Q 78.41 30.239 80.861 30.356 A 41.895 41.895 0 0 0 82.84 30.4 Q 85.482 30.4 87.462 30.114 A 17.355 17.355 0 0 0 89.02 29.82 A 13.947 13.947 0 0 0 90.559 29.362 Q 91.908 28.869 92.8 28.16 A 6.13 6.13 0 0 0 94.112 26.75 A 5.448 5.448 0 0 0 94.7 25.58 Q 95.24 24.08 95.24 22.24 Z M 182.96 5 L 182.96 4.6 L 195.68 4.6 L 195.68 5 L 189.56 5 L 189.56 25.8 L 195.68 25.8 L 195.68 26.2 L 182.96 26.2 L 182.96 25.8 L 189.16 25.8 L 189.16 5 L 182.96 5 Z M 24.24 17.92 L 24.64 17.92 L 24.64 26.2 L 9.92 26.2 L 9.92 4.6 L 10.32 4.6 L 10.32 25.8 L 24.24 25.8 L 24.24 17.92 Z M 166.88 17.92 L 167.28 17.92 L 167.28 26.2 L 152.56 26.2 L 152.56 4.6 L 152.96 4.6 L 152.96 25.8 L 166.88 25.8 L 166.88 17.92 Z M 117.44 18.32 L 109.2 18.32 L 109.2 26.2 L 108.8 26.2 L 108.8 4.6 L 117.44 4.6 Q 119.804 4.6 121.095 5.234 A 3.786 3.786 0 0 1 121.26 5.32 A 4.25 4.25 0 0 1 122.204 6.017 A 3.323 3.323 0 0 1 123 7.26 A 7.234 7.234 0 0 1 123.356 8.74 A 9.62 9.62 0 0 1 123.44 10.04 L 123.44 13 A 9.437 9.437 0 0 1 123.344 14.383 A 6.952 6.952 0 0 1 123 15.76 A 3.268 3.268 0 0 1 121.805 17.305 A 4.465 4.465 0 0 1 121.26 17.64 A 4.855 4.855 0 0 1 120.249 18.02 Q 119.273 18.278 117.9 18.314 A 17.442 17.442 0 0 1 117.44 18.32 Z M 41.24 21.32 L 41.24 9.52 Q 41.24 7.88 41.94 6.68 Q 42.542 5.649 43.926 5.002 A 7.511 7.511 0 0 1 44.4 4.8 Q 46.123 4.134 49.151 4.12 A 28.23 28.23 0 0 1 49.28 4.12 A 23.739 23.739 0 0 1 51.108 4.186 Q 52.838 4.32 54.004 4.728 A 6.547 6.547 0 0 1 54.2 4.8 A 6.709 6.709 0 0 1 55.287 5.329 Q 55.877 5.69 56.283 6.143 A 3.512 3.512 0 0 1 56.68 6.68 A 4.999 4.999 0 0 1 57.323 8.491 A 6.59 6.59 0 0 1 57.4 9.52 L 57.4 21.32 A 6.04 6.04 0 0 1 57.209 22.869 A 5.005 5.005 0 0 1 56.68 24.14 A 3.834 3.834 0 0 1 55.642 25.269 Q 55.19 25.604 54.605 25.87 A 7.533 7.533 0 0 1 54.2 26.04 A 8.298 8.298 0 0 1 52.86 26.42 Q 51.477 26.7 49.556 26.719 A 28.516 28.516 0 0 1 49.28 26.72 Q 46.16 26.72 44.4 26.04 Q 42.64 25.36 41.94 24.14 A 5.271 5.271 0 0 1 41.29 22.143 A 6.685 6.685 0 0 1 41.24 21.32 Z M 74.72 21.32 L 74.72 9.52 Q 74.72 7.88 75.42 6.68 Q 76.022 5.649 77.406 5.002 A 7.511 7.511 0 0 1 77.88 4.8 Q 79.603 4.134 82.631 4.12 A 28.23 28.23 0 0 1 82.76 4.12 A 23.739 23.739 0 0 1 84.588 4.186 Q 86.318 4.32 87.484 4.728 A 6.547 6.547 0 0 1 87.68 4.8 A 6.709 6.709 0 0 1 88.767 5.329 Q 89.357 5.69 89.763 6.143 A 3.512 3.512 0 0 1 90.16 6.68 A 4.999 4.999 0 0 1 90.803 8.491 A 6.59 6.59 0 0 1 90.88 9.52 L 90.88 21.32 A 6.04 6.04 0 0 1 90.689 22.869 A 5.005 5.005 0 0 1 90.16 24.14 A 3.834 3.834 0 0 1 89.122 25.269 Q 88.67 25.604 88.085 25.87 A 7.533 7.533 0 0 1 87.68 26.04 A 8.298 8.298 0 0 1 86.34 26.42 Q 84.957 26.7 83.036 26.719 A 28.516 28.516 0 0 1 82.76 26.72 Q 79.64 26.72 77.88 26.04 Q 76.12 25.36 75.42 24.14 A 5.271 5.271 0 0 1 74.77 22.143 A 6.685 6.685 0 0 1 74.72 21.32 Z M 57 21.32 L 57 9.52 A 5.735 5.735 0 0 0 56.851 8.183 A 4.518 4.518 0 0 0 56.32 6.88 Q 55.64 5.76 53.96 5.14 Q 52.354 4.547 49.542 4.521 A 28.197 28.197 0 0 0 49.28 4.52 A 22.934 22.934 0 0 0 47.555 4.581 Q 45.795 4.714 44.64 5.14 Q 43.421 5.59 42.739 6.303 A 3.142 3.142 0 0 0 42.3 6.88 A 4.718 4.718 0 0 0 41.711 8.566 A 6.191 6.191 0 0 0 41.64 9.52 L 41.64 21.32 A 5.648 5.648 0 0 0 41.826 22.797 A 4.732 4.732 0 0 0 42.3 23.94 A 3.403 3.403 0 0 0 43.234 24.964 Q 43.65 25.274 44.195 25.518 A 6.972 6.972 0 0 0 44.64 25.7 A 8.291 8.291 0 0 0 45.938 26.051 Q 47.288 26.312 49.157 26.32 A 27.858 27.858 0 0 0 49.28 26.32 A 23.474 23.474 0 0 0 51.024 26.26 Q 52.804 26.127 53.96 25.7 A 6.212 6.212 0 0 0 54.992 25.215 Q 55.542 24.887 55.924 24.471 A 3.25 3.25 0 0 0 56.32 23.94 A 4.822 4.822 0 0 0 56.968 21.951 A 5.996 5.996 0 0 0 57 21.32 Z M 90.48 21.32 L 90.48 9.52 A 5.735 5.735 0 0 0 90.331 8.183 A 4.518 4.518 0 0 0 89.8 6.88 Q 89.12 5.76 87.44 5.14 Q 85.834 4.547 83.022 4.521 A 28.197 28.197 0 0 0 82.76 4.52 A 22.934 22.934 0 0 0 81.035 4.581 Q 79.275 4.714 78.12 5.14 Q 76.901 5.59 76.219 6.303 A 3.142 3.142 0 0 0 75.78 6.88 A 4.718 4.718 0 0 0 75.191 8.566 A 6.191 6.191 0 0 0 75.12 9.52 L 75.12 21.32 A 5.648 5.648 0 0 0 75.306 22.797 A 4.732 4.732 0 0 0 75.78 23.94 A 3.403 3.403 0 0 0 76.714 24.964 Q 77.13 25.274 77.675 25.518 A 6.972 6.972 0 0 0 78.12 25.7 A 8.291 8.291 0 0 0 79.418 26.051 Q 80.768 26.312 82.637 26.32 A 27.858 27.858 0 0 0 82.76 26.32 A 23.474 23.474 0 0 0 84.504 26.26 Q 86.284 26.127 87.44 25.7 A 6.212 6.212 0 0 0 88.472 25.215 Q 89.022 24.887 89.404 24.471 A 3.25 3.25 0 0 0 89.8 23.94 A 4.822 4.822 0 0 0 90.448 21.951 A 5.996 5.996 0 0 0 90.48 21.32 Z M 109.2 17.92 L 117.44 17.92 Q 119.8 17.92 121 17.3 A 3.735 3.735 0 0 0 121.887 16.675 A 2.991 2.991 0 0 0 122.62 15.56 A 6.429 6.429 0 0 0 122.96 14.199 A 8.567 8.567 0 0 0 123.04 13 L 123.04 10.04 Q 123.04 8.6 122.62 7.46 A 3.228 3.228 0 0 0 121.427 5.927 A 4.305 4.305 0 0 0 121 5.66 Q 119.879 5.043 117.746 5.003 A 16.073 16.073 0 0 0 117.44 5 L 109.2 5 L 109.2 17.92 Z M 46 20.8 L 46 10.04 A 1.737 1.737 0 0 1 46.16 9.29 A 1.728 1.728 0 0 1 46.6 8.72 A 1.4 1.4 0 0 1 47.021 8.484 Q 47.694 8.227 49.06 8.203 A 16.592 16.592 0 0 1 49.36 8.2 A 14.468 14.468 0 0 1 50.244 8.225 Q 51.523 8.304 52.025 8.632 A 0.963 0.963 0 0 1 52.14 8.72 Q 52.72 9.24 52.72 10.04 L 52.72 20.8 A 1.806 1.806 0 0 1 52.537 21.618 A 1.828 1.828 0 0 1 52.14 22.14 Q 51.56 22.68 49.36 22.68 Q 47.38 22.68 46.711 22.226 A 1.027 1.027 0 0 1 46.6 22.14 A 1.788 1.788 0 0 1 46.128 21.482 A 1.794 1.794 0 0 1 46 20.8 Z M 79.48 20.8 L 79.48 10.04 A 1.737 1.737 0 0 1 79.64 9.29 A 1.728 1.728 0 0 1 80.08 8.72 A 1.4 1.4 0 0 1 80.501 8.484 Q 81.174 8.227 82.54 8.203 A 16.592 16.592 0 0 1 82.84 8.2 A 14.468 14.468 0 0 1 83.724 8.225 Q 85.003 8.304 85.505 8.632 A 0.963 0.963 0 0 1 85.62 8.72 Q 86.2 9.24 86.2 10.04 L 86.2 20.8 A 1.806 1.806 0 0 1 86.017 21.618 A 1.828 1.828 0 0 1 85.62 22.14 Q 85.04 22.68 82.84 22.68 Q 80.86 22.68 80.191 22.226 A 1.027 1.027 0 0 1 80.08 22.14 A 1.788 1.788 0 0 1 79.608 21.482 A 1.794 1.794 0 0 1 79.48 20.8 Z M 113.32 14.52 L 113.32 8.48 L 116.92 8.48 Q 118.08 8.48 118.44 9.06 Q 118.8 9.64 118.8 10.44 L 118.8 12.56 A 2.745 2.745 0 0 1 118.67 13.417 A 2.457 2.457 0 0 1 118.44 13.92 Q 118.093 14.5 116.999 14.519 A 4.328 4.328 0 0 1 116.92 14.52 L 113.32 14.52 Z M 46.4 13.24 L 46.4 20.8 A 1.697 1.697 0 0 0 46.435 21.153 A 1.313 1.313 0 0 0 46.56 21.5 A 0.913 0.913 0 0 0 46.767 21.755 Q 46.865 21.841 46.994 21.915 A 1.975 1.975 0 0 0 47.16 22 L 47.16 14.4 A 1.697 1.697 0 0 0 47.125 14.047 A 1.313 1.313 0 0 0 47 13.7 Q 46.84 13.4 46.4 13.24 Z M 79.88 13.24 L 79.88 20.8 A 1.697 1.697 0 0 0 79.915 21.153 A 1.313 1.313 0 0 0 80.04 21.5 A 0.913 0.913 0 0 0 80.247 21.755 Q 80.345 21.841 80.474 21.915 A 1.975 1.975 0 0 0 80.64 22 L 80.64 14.4 A 1.697 1.697 0 0 0 80.605 14.047 A 1.313 1.313 0 0 0 80.48 13.7 Q 80.32 13.4 79.88 13.24 Z" vector-effect="non-scaling-stroke"/></g></svg>