<svg width="460.671" height="61.53" viewBox="0 0 460.671 61.53" xmlns="http://www.w3.org/2000/svg"><g id="svgGroup" stroke-linecap="round" fill-rule="evenodd" font-size="9pt" stroke="#000000" stroke-width="1" fill="#000000" style="stroke:#000000;stroke-width:1;fill:#000000"><path d="M 424.97 52.15 L 457.45 52.15 Q 459.45 52.15 459.863 50.563 A 3.713 3.713 0 0 0 459.97 49.63 L 459.97 41.44 Q 459.97 39.44 458.384 39.028 A 3.713 3.713 0 0 0 457.45 38.92 L 438.13 38.92 L 438.13 32.9 L 451.78 32.9 Q 453.78 32.9 454.193 31.313 A 3.713 3.713 0 0 0 454.3 30.38 L 454.3 22.89 Q 454.3 20.89 452.714 20.478 A 3.713 3.713 0 0 0 451.78 20.37 L 438.13 20.37 L 438.13 14.98 L 457.45 14.98 Q 459.45 14.98 459.863 13.393 A 3.713 3.713 0 0 0 459.97 12.46 L 459.97 4.27 Q 459.97 2.27 458.384 1.858 A 3.713 3.713 0 0 0 457.45 1.75 L 424.97 1.75 Q 422.971 1.75 422.558 3.337 A 3.713 3.713 0 0 0 422.45 4.27 L 422.45 49.63 Q 422.45 51.63 424.037 52.043 A 3.713 3.713 0 0 0 424.97 52.15 Z M 385.14 60.48 L 366.94 60.48 A 7.121 7.121 0 0 1 365.908 60.41 Q 364.993 60.276 364.35 59.885 A 3.126 3.126 0 0 1 363.56 59.184 Q 363.273 58.834 363.028 58.37 A 7.03 7.03 0 0 1 362.74 57.75 L 355.88 40.6 A 333.765 333.765 0 0 1 355.48 39.561 Q 354.947 38.17 354.568 37.14 A 112.296 112.296 0 0 1 354.515 36.995 Q 353.99 35.56 353.78 34.09 A 17.969 17.969 0 0 1 353.657 32.934 Q 353.608 32.305 353.587 31.575 A 41.195 41.195 0 0 1 353.57 30.38 L 353.57 11.9 A 4.947 4.947 0 0 1 353.661 10.918 Q 353.777 10.346 354.041 9.911 A 2.483 2.483 0 0 1 354.55 9.31 L 363.58 1.68 A 2.491 2.491 0 0 1 364.388 1.249 Q 364.993 1.05 365.82 1.05 L 376.95 1.05 A 5.287 5.287 0 0 1 378.276 1.201 Q 380.38 1.748 380.38 4.27 L 380.38 23.59 A 6.145 6.145 0 0 0 380.43 24.384 A 5.017 5.017 0 0 0 380.52 24.885 A 32.299 32.299 0 0 0 380.656 25.439 Q 380.752 25.817 380.87 26.25 L 381.08 26.74 L 381.08 11.9 A 4.947 4.947 0 0 1 381.171 10.918 Q 381.287 10.346 381.551 9.911 A 2.483 2.483 0 0 1 382.06 9.31 L 391.09 1.68 A 2.491 2.491 0 0 1 391.898 1.249 Q 392.503 1.05 393.33 1.05 L 404.32 1.05 Q 405.975 1.05 406.722 1.738 A 1.814 1.814 0 0 1 406.805 1.82 A 2.312 2.312 0 0 1 407.291 2.623 Q 407.424 2.978 407.486 3.421 A 6.137 6.137 0 0 1 407.54 4.27 L 407.54 22.75 Q 407.54 24.362 407.432 25.576 A 17.017 17.017 0 0 1 407.33 26.46 Q 407.12 27.93 406.63 29.365 A 37.614 37.614 0 0 1 406.244 30.439 Q 405.828 31.546 405.23 32.97 L 398.37 50.12 A 4.055 4.055 0 0 1 398.094 50.765 A 3.257 3.257 0 0 1 397.81 51.205 A 9.099 9.099 0 0 1 397.417 51.684 A 7.282 7.282 0 0 1 397.11 52.01 L 388.08 59.5 A 3.453 3.453 0 0 1 386.633 60.293 Q 386.097 60.443 385.457 60.473 A 6.888 6.888 0 0 1 385.14 60.48 Z M 375.97 52.15 L 394.17 52.15 A 6.509 6.509 0 0 0 395.062 52.093 Q 395.857 51.983 396.41 51.66 A 2.443 2.443 0 0 0 397.099 51.044 Q 397.472 50.568 397.74 49.84 L 404.6 32.69 A 137.87 137.87 0 0 0 404.998 31.684 Q 405.525 30.336 405.881 29.331 A 46.191 46.191 0 0 0 405.93 29.19 Q 406.42 27.79 406.63 26.355 A 17.263 17.263 0 0 0 406.756 25.202 Q 406.804 24.595 406.824 23.895 A 38.82 38.82 0 0 0 406.84 22.75 L 406.84 4.27 Q 406.84 2.27 405.254 1.858 A 3.713 3.713 0 0 0 404.32 1.75 L 393.33 1.75 Q 391.331 1.75 390.918 3.337 A 3.713 3.713 0 0 0 390.81 4.27 L 390.81 23.52 Q 390.81 24.22 390.67 24.92 A 9.374 9.374 0 0 1 390.441 25.822 A 11.535 11.535 0 0 1 390.25 26.39 L 386.96 36.26 Q 386.61 37.45 385.63 37.45 L 384.86 37.45 Q 383.88 37.45 383.53 36.26 L 380.24 26.46 A 10.986 10.986 0 0 1 379.951 25.548 A 8.932 8.932 0 0 1 379.82 24.99 Q 379.68 24.29 379.68 23.59 L 379.68 4.27 Q 379.68 1.75 376.95 1.75 L 365.82 1.75 Q 363.821 1.75 363.408 3.337 A 3.713 3.713 0 0 0 363.3 4.27 L 363.3 22.75 Q 363.3 24.312 363.409 25.493 A 16.284 16.284 0 0 0 363.51 26.355 Q 363.72 27.79 364.21 29.19 A 53.653 53.653 0 0 0 364.477 29.934 Q 364.882 31.037 365.458 32.483 A 153.566 153.566 0 0 0 365.54 32.69 L 372.4 49.84 Q 372.768 50.713 373.256 51.224 A 2.489 2.489 0 0 0 373.8 51.66 Q 374.5 52.068 375.539 52.136 A 6.583 6.583 0 0 0 375.97 52.15 Z M 337.19 60.48 L 307.37 60.48 A 4.635 4.635 0 0 1 306.096 60.32 Q 304.15 59.763 304.15 57.26 L 304.15 48.93 A 4.947 4.947 0 0 1 304.241 47.948 Q 304.357 47.376 304.621 46.941 A 2.483 2.483 0 0 1 305.13 46.34 L 313.6 39.2 L 313.6 23.59 L 307.37 23.59 A 4.635 4.635 0 0 1 306.096 23.43 Q 304.15 22.873 304.15 20.37 L 304.15 11.9 A 4.947 4.947 0 0 1 304.241 10.918 Q 304.357 10.346 304.621 9.911 A 2.483 2.483 0 0 1 305.13 9.31 L 314.16 1.68 A 2.491 2.491 0 0 1 314.968 1.249 Q 315.573 1.05 316.4 1.05 L 346.22 1.05 A 4.635 4.635 0 0 1 347.495 1.21 Q 349.44 1.767 349.44 4.27 L 349.44 12.74 A 4.947 4.947 0 0 1 349.349 13.722 Q 349.233 14.294 348.97 14.729 A 2.483 2.483 0 0 1 348.46 15.33 L 340.13 22.33 L 340.13 38.08 L 346.22 38.08 A 4.635 4.635 0 0 1 347.495 38.24 Q 349.44 38.797 349.44 41.3 L 349.44 49.63 A 4.947 4.947 0 0 1 349.349 50.612 Q 349.233 51.184 348.97 51.619 A 2.483 2.483 0 0 1 348.46 52.22 L 339.36 59.78 A 2.146 2.146 0 0 1 338.551 60.277 Q 338.214 60.397 337.797 60.447 A 5.195 5.195 0 0 1 337.19 60.48 Z M 448.42 60.48 L 415.94 60.48 A 4.635 4.635 0 0 1 414.666 60.32 Q 412.72 59.763 412.72 57.26 L 412.72 11.9 A 4.947 4.947 0 0 1 412.811 10.918 Q 412.927 10.346 413.191 9.911 A 2.483 2.483 0 0 1 413.7 9.31 L 422.73 1.68 A 2.491 2.491 0 0 1 423.538 1.249 Q 424.143 1.05 424.97 1.05 L 457.45 1.05 A 4.635 4.635 0 0 1 458.725 1.21 Q 460.67 1.767 460.67 4.27 L 460.67 12.46 A 4.947 4.947 0 0 1 460.579 13.442 Q 460.463 14.014 460.2 14.449 A 2.483 2.483 0 0 1 459.69 15.05 L 453.67 20.02 A 2.278 2.278 0 0 1 454.761 21.315 Q 454.918 21.744 454.972 22.286 A 6.099 6.099 0 0 1 455 22.89 L 455 30.38 A 4.947 4.947 0 0 1 454.909 31.362 Q 454.793 31.934 454.53 32.369 A 2.483 2.483 0 0 1 454.02 32.97 L 447.79 38.22 L 457.45 38.22 A 4.635 4.635 0 0 1 458.725 38.38 Q 460.67 38.937 460.67 41.44 L 460.67 49.63 A 4.947 4.947 0 0 1 460.579 50.612 Q 460.463 51.184 460.2 51.619 A 2.483 2.483 0 0 1 459.69 52.22 L 450.59 59.78 A 2.146 2.146 0 0 1 449.781 60.277 Q 449.444 60.397 449.027 60.447 A 5.195 5.195 0 0 1 448.42 60.48 Z M 38.85 60.48 L 3.22 60.48 A 4.635 4.635 0 0 1 1.946 60.32 Q 0 59.763 0 57.26 L 0 11.9 A 4.947 4.947 0 0 1 0.091 10.918 Q 0.207 10.346 0.471 9.911 A 2.483 2.483 0 0 1 0.98 9.31 L 10.01 1.68 A 2.491 2.491 0 0 1 10.818 1.249 Q 11.423 1.05 12.25 1.05 L 23.1 1.05 A 4.635 4.635 0 0 1 24.375 1.21 Q 26.32 1.767 26.32 4.27 L 26.32 32.76 L 26.46 32.62 L 35.49 24.99 A 2.491 2.491 0 0 1 36.298 24.559 Q 36.903 24.36 37.73 24.36 L 47.88 24.36 A 4.635 4.635 0 0 1 49.155 24.52 Q 51.1 25.077 51.1 27.58 L 51.1 49.63 A 4.947 4.947 0 0 1 51.009 50.612 Q 50.893 51.184 50.63 51.619 A 2.483 2.483 0 0 1 50.12 52.22 L 41.02 59.78 A 2.146 2.146 0 0 1 40.211 60.277 Q 39.874 60.397 39.457 60.447 A 5.195 5.195 0 0 1 38.85 60.48 Z M 288.47 60.48 L 252.84 60.48 A 4.635 4.635 0 0 1 251.566 60.32 Q 249.62 59.763 249.62 57.26 L 249.62 11.9 A 4.947 4.947 0 0 1 249.711 10.918 Q 249.827 10.346 250.091 9.911 A 2.483 2.483 0 0 1 250.6 9.31 L 259.63 1.68 A 2.491 2.491 0 0 1 260.438 1.249 Q 261.043 1.05 261.87 1.05 L 272.72 1.05 A 4.635 4.635 0 0 1 273.995 1.21 Q 275.94 1.767 275.94 4.27 L 275.94 32.76 L 276.08 32.62 L 285.11 24.99 A 2.491 2.491 0 0 1 285.918 24.559 Q 286.523 24.36 287.35 24.36 L 297.5 24.36 A 4.635 4.635 0 0 1 298.775 24.52 Q 300.72 25.077 300.72 27.58 L 300.72 49.63 A 4.947 4.947 0 0 1 300.629 50.612 Q 300.513 51.184 300.25 51.619 A 2.483 2.483 0 0 1 299.74 52.22 L 290.64 59.78 A 2.146 2.146 0 0 1 289.831 60.277 Q 289.494 60.397 289.077 60.447 A 5.195 5.195 0 0 1 288.47 60.48 Z M 12.25 52.15 L 47.88 52.15 Q 49.88 52.15 50.293 50.563 A 3.713 3.713 0 0 0 50.4 49.63 L 50.4 27.58 Q 50.4 25.58 48.814 25.168 A 3.713 3.713 0 0 0 47.88 25.06 L 37.73 25.06 Q 35.731 25.06 35.318 26.647 A 3.713 3.713 0 0 0 35.21 27.58 L 35.21 38.92 L 25.62 38.92 L 25.62 4.27 Q 25.62 2.27 24.034 1.858 A 3.713 3.713 0 0 0 23.1 1.75 L 12.25 1.75 Q 10.251 1.75 9.838 3.337 A 3.713 3.713 0 0 0 9.73 4.27 L 9.73 49.63 Q 9.73 51.63 11.317 52.043 A 3.713 3.713 0 0 0 12.25 52.15 Z M 261.87 52.15 L 297.5 52.15 Q 299.5 52.15 299.913 50.563 A 3.713 3.713 0 0 0 300.02 49.63 L 300.02 27.58 Q 300.02 25.58 298.434 25.168 A 3.713 3.713 0 0 0 297.5 25.06 L 287.35 25.06 Q 285.351 25.06 284.938 26.647 A 3.713 3.713 0 0 0 284.83 27.58 L 284.83 38.92 L 275.24 38.92 L 275.24 4.27 Q 275.24 2.27 273.654 1.858 A 3.713 3.713 0 0 0 272.72 1.75 L 261.87 1.75 Q 259.871 1.75 259.458 3.337 A 3.713 3.713 0 0 0 259.35 4.27 L 259.35 49.63 Q 259.35 51.63 260.937 52.043 A 3.713 3.713 0 0 0 261.87 52.15 Z M 430.78 45.15 L 453.67 45.15 L 453.67 45.85 L 430.08 45.85 L 430.08 8.05 L 453.67 8.05 L 453.67 8.75 L 430.78 8.75 L 430.78 26.32 L 448 26.32 L 448 27.02 L 430.78 27.02 L 430.78 45.15 Z M 316.4 52.15 L 346.22 52.15 Q 348.22 52.15 348.633 50.563 A 3.713 3.713 0 0 0 348.74 49.63 L 348.74 41.3 Q 348.74 39.3 347.154 38.888 A 3.713 3.713 0 0 0 346.22 38.78 L 339.43 38.78 L 339.43 15.26 L 346.22 15.26 Q 348.22 15.26 348.633 13.673 A 3.713 3.713 0 0 0 348.74 12.74 L 348.74 4.27 Q 348.74 2.27 347.154 1.858 A 3.713 3.713 0 0 0 346.22 1.75 L 316.4 1.75 Q 314.401 1.75 313.988 3.337 A 3.713 3.713 0 0 0 313.88 4.27 L 313.88 12.74 Q 313.88 14.74 315.467 15.153 A 3.713 3.713 0 0 0 316.4 15.26 L 323.33 15.26 L 323.33 38.78 L 316.4 38.78 Q 314.401 38.78 313.988 40.367 A 3.713 3.713 0 0 0 313.88 41.3 L 313.88 49.63 Q 313.88 51.63 315.467 52.043 A 3.713 3.713 0 0 0 316.4 52.15 Z M 104.58 49.56 L 95.55 57.12 Q 93.1 59.22 88.725 60.375 Q 85.752 61.16 81.565 61.412 A 70.49 70.49 0 0 1 77.35 61.53 A 55.674 55.674 0 0 1 72.924 61.365 Q 70.71 61.188 68.828 60.821 A 24.674 24.674 0 0 1 66.08 60.13 Q 62.532 59.004 60.252 57.22 A 12.016 12.016 0 0 1 59.22 56.315 A 13.383 13.383 0 0 1 56.487 52.523 A 12.496 12.496 0 0 1 55.825 50.82 Q 54.88 47.74 54.88 44.45 L 54.88 22.68 A 20.695 20.695 0 0 1 55.185 19.063 A 16.949 16.949 0 0 1 55.79 16.66 A 10.066 10.066 0 0 1 58.717 12.281 A 12.141 12.141 0 0 1 59.08 11.97 L 68.18 4.41 Q 70.63 2.31 75.005 1.155 Q 77.979 0.37 82.165 0.119 A 70.49 70.49 0 0 1 86.38 0 Q 91.2 0 94.811 0.536 A 30.88 30.88 0 0 1 97.65 1.085 Q 100.839 1.87 102.985 3.149 A 11.3 11.3 0 0 1 104.475 4.2 A 11.292 11.292 0 0 1 106.914 7.015 A 10.245 10.245 0 0 1 107.835 8.995 A 17.668 17.668 0 0 1 108.701 13.192 A 21.425 21.425 0 0 1 108.78 15.05 L 108.78 38.92 A 19.899 19.899 0 0 1 108.46 42.559 A 16.562 16.562 0 0 1 107.87 44.835 A 10.356 10.356 0 0 1 105.322 48.876 A 12.727 12.727 0 0 1 104.58 49.56 Z M 163.17 49.56 L 154.14 57.12 Q 151.69 59.22 147.315 60.375 Q 144.342 61.16 140.155 61.412 A 70.49 70.49 0 0 1 135.94 61.53 A 55.674 55.674 0 0 1 131.514 61.365 Q 129.3 61.188 127.418 60.821 A 24.674 24.674 0 0 1 124.67 60.13 Q 121.122 59.004 118.842 57.22 A 12.016 12.016 0 0 1 117.81 56.315 A 13.383 13.383 0 0 1 115.077 52.523 A 12.496 12.496 0 0 1 114.415 50.82 Q 113.47 47.74 113.47 44.45 L 113.47 22.68 A 20.695 20.695 0 0 1 113.775 19.063 A 16.949 16.949 0 0 1 114.38 16.66 A 10.066 10.066 0 0 1 117.307 12.281 A 12.141 12.141 0 0 1 117.67 11.97 L 126.77 4.41 Q 129.22 2.31 133.595 1.155 Q 136.569 0.37 140.755 0.119 A 70.49 70.49 0 0 1 144.97 0 Q 149.79 0 153.401 0.536 A 30.88 30.88 0 0 1 156.24 1.085 Q 159.429 1.87 161.575 3.149 A 11.3 11.3 0 0 1 163.065 4.2 A 11.292 11.292 0 0 1 165.504 7.015 A 10.245 10.245 0 0 1 166.425 8.995 A 17.668 17.668 0 0 1 167.291 13.192 A 21.425 21.425 0 0 1 167.37 15.05 L 167.37 38.92 A 19.899 19.899 0 0 1 167.05 42.559 A 16.562 16.562 0 0 1 166.46 44.835 A 10.356 10.356 0 0 1 163.912 48.876 A 12.727 12.727 0 0 1 163.17 49.56 Z M 186.9 60.48 L 176.05 60.48 A 4.635 4.635 0 0 1 174.776 60.32 Q 172.83 59.763 172.83 57.26 L 172.83 11.9 A 4.947 4.947 0 0 1 172.921 10.918 Q 173.037 10.346 173.301 9.911 A 2.483 2.483 0 0 1 173.81 9.31 L 182.84 1.68 A 2.491 2.491 0 0 1 183.648 1.249 Q 184.253 1.05 185.08 1.05 L 206.5 1.05 Q 213.144 1.05 216.879 2.829 A 11.899 11.899 0 0 1 216.965 2.87 A 12.749 12.749 0 0 1 219.716 4.646 A 9.663 9.663 0 0 1 222.215 7.91 Q 223.72 11.13 223.72 15.4 L 223.72 24.36 A 20.74 20.74 0 0 1 223.421 27.952 A 16.823 16.823 0 0 1 222.775 30.485 Q 221.83 33.25 219.52 35.21 L 210.42 42.77 A 11.624 11.624 0 0 1 208.425 44.104 Q 207.293 44.711 205.905 45.185 A 18.044 18.044 0 0 1 203.303 45.849 Q 201.426 46.19 199.15 46.27 L 199.15 49.63 A 4.947 4.947 0 0 1 199.059 50.612 Q 198.943 51.184 198.68 51.619 A 2.483 2.483 0 0 1 198.17 52.22 L 189.07 59.78 A 2.146 2.146 0 0 1 188.261 60.277 Q 187.924 60.397 187.507 60.447 A 5.195 5.195 0 0 1 186.9 60.48 Z M 371.21 8.05 L 371.91 8.05 L 371.91 23.17 A 21.437 21.437 0 0 0 372.11 26.173 Q 372.383 28.102 373.03 29.68 L 377.65 40.88 A 22.231 22.231 0 0 0 378.313 42.31 Q 378.775 43.217 379.26 43.925 A 2.66 2.66 0 0 0 380.748 44.978 Q 381.325 45.15 382.06 45.15 L 388.22 45.15 Q 389.518 45.15 390.329 44.65 A 2.511 2.511 0 0 0 391.09 43.925 Q 391.93 42.7 392.63 40.88 L 397.25 29.68 Q 398.292 27.142 398.365 23.697 A 24.779 24.779 0 0 0 398.37 23.17 L 398.37 8.05 L 399.07 8.05 L 399.07 23.17 Q 399.07 25.13 398.825 26.775 Q 398.58 28.42 397.95 29.96 L 393.33 41.16 A 18.982 18.982 0 0 1 392.59 42.748 Q 392.194 43.501 391.765 44.121 A 10.53 10.53 0 0 1 391.475 44.52 A 3.181 3.181 0 0 1 389.838 45.631 Q 389.307 45.795 388.663 45.836 A 6.944 6.944 0 0 1 388.22 45.85 L 382.06 45.85 A 5.602 5.602 0 0 1 380.813 45.72 Q 379.983 45.53 379.385 45.064 A 3.215 3.215 0 0 1 378.84 44.52 Q 377.895 43.323 377.12 41.558 A 20.116 20.116 0 0 1 376.95 41.16 L 372.33 29.96 Q 371.7 28.42 371.455 26.775 A 22.035 22.035 0 0 1 371.257 24.825 A 28.199 28.199 0 0 1 371.21 23.17 L 371.21 8.05 Z M 185.08 52.15 L 195.93 52.15 Q 197.93 52.15 198.343 50.563 A 3.713 3.713 0 0 0 198.45 49.63 L 198.45 38.01 L 206.5 38.01 A 38.422 38.422 0 0 0 210.212 37.843 Q 213.981 37.476 216.455 36.305 A 11.678 11.678 0 0 0 216.475 36.295 Q 220.08 34.58 221.55 31.5 Q 223.02 28.42 223.02 24.36 L 223.02 15.4 A 19.091 19.091 0 0 0 222.697 11.809 A 14.552 14.552 0 0 0 221.55 8.26 A 9.498 9.498 0 0 0 218.334 4.538 A 12.96 12.96 0 0 0 216.475 3.465 A 14.942 14.942 0 0 0 213.527 2.454 Q 210.593 1.753 206.532 1.75 A 46.98 46.98 0 0 0 206.5 1.75 L 185.08 1.75 Q 183.081 1.75 182.668 3.337 A 3.713 3.713 0 0 0 182.56 4.27 L 182.56 49.63 Q 182.56 51.63 184.147 52.043 A 3.713 3.713 0 0 0 185.08 52.15 Z M 108.08 38.92 L 108.08 15.05 A 18.975 18.975 0 0 0 107.79 11.661 A 15.298 15.298 0 0 0 107.135 9.205 A 9.867 9.867 0 0 0 104.417 5.205 A 12.064 12.064 0 0 0 103.81 4.69 A 12.48 12.48 0 0 0 101.57 3.293 Q 99.71 2.374 97.195 1.75 A 30.872 30.872 0 0 0 93.769 1.121 Q 90.544 0.7 86.38 0.7 Q 79.8 0.7 75.565 1.75 A 24.928 24.928 0 0 0 72.873 2.571 Q 71.508 3.079 70.41 3.708 A 11.669 11.669 0 0 0 68.95 4.69 A 10.921 10.921 0 0 0 66.576 7.257 A 9.807 9.807 0 0 0 65.59 9.205 A 15.447 15.447 0 0 0 64.726 12.907 A 19.302 19.302 0 0 0 64.61 15.05 L 64.61 38.92 A 18.29 18.29 0 0 0 64.918 42.343 A 14.849 14.849 0 0 0 65.59 44.765 A 10.14 10.14 0 0 0 68.377 48.796 A 12.295 12.295 0 0 0 68.95 49.28 A 12.253 12.253 0 0 0 71.19 50.671 Q 73.051 51.582 75.565 52.185 A 31.832 31.832 0 0 0 78.992 52.794 Q 80.806 53.022 82.917 53.122 A 73.317 73.317 0 0 0 86.38 53.2 A 70.604 70.604 0 0 0 90.627 53.08 Q 94.416 52.851 97.195 52.185 Q 101.43 51.17 103.81 49.28 A 10.727 10.727 0 0 0 106.107 46.813 A 9.534 9.534 0 0 0 107.135 44.765 A 15.915 15.915 0 0 0 107.966 41.087 A 19.99 19.99 0 0 0 108.08 38.92 Z M 166.67 38.92 L 166.67 15.05 A 18.975 18.975 0 0 0 166.38 11.661 A 15.298 15.298 0 0 0 165.725 9.205 A 9.867 9.867 0 0 0 163.007 5.205 A 12.064 12.064 0 0 0 162.4 4.69 A 12.48 12.48 0 0 0 160.16 3.293 Q 158.3 2.374 155.785 1.75 A 30.872 30.872 0 0 0 152.359 1.121 Q 149.134 0.7 144.97 0.7 Q 138.39 0.7 134.155 1.75 A 24.928 24.928 0 0 0 131.463 2.571 Q 130.098 3.079 129 3.708 A 11.669 11.669 0 0 0 127.54 4.69 A 10.921 10.921 0 0 0 125.166 7.257 A 9.807 9.807 0 0 0 124.18 9.205 A 15.447 15.447 0 0 0 123.316 12.907 A 19.302 19.302 0 0 0 123.2 15.05 L 123.2 38.92 A 18.29 18.29 0 0 0 123.508 42.343 A 14.849 14.849 0 0 0 124.18 44.765 A 10.14 10.14 0 0 0 126.967 48.796 A 12.295 12.295 0 0 0 127.54 49.28 A 12.253 12.253 0 0 0 129.78 50.671 Q 131.641 51.582 134.155 52.185 A 31.832 31.832 0 0 0 137.582 52.794 Q 139.396 53.022 141.507 53.122 A 73.317 73.317 0 0 0 144.97 53.2 A 70.604 70.604 0 0 0 149.217 53.08 Q 153.006 52.851 155.785 52.185 Q 160.02 51.17 162.4 49.28 A 10.727 10.727 0 0 0 164.697 46.813 A 9.534 9.534 0 0 0 165.725 44.765 A 15.915 15.915 0 0 0 166.556 41.087 A 19.99 19.99 0 0 0 166.67 38.92 Z M 320.18 8.75 L 320.18 8.05 L 342.44 8.05 L 342.44 8.75 L 331.73 8.75 L 331.73 45.15 L 342.44 45.15 L 342.44 45.85 L 320.18 45.85 L 320.18 45.15 L 331.03 45.15 L 331.03 8.75 L 320.18 8.75 Z M 42.42 31.36 L 43.12 31.36 L 43.12 45.85 L 17.36 45.85 L 17.36 8.05 L 18.06 8.05 L 18.06 45.15 L 42.42 45.15 L 42.42 31.36 Z M 292.04 31.36 L 292.74 31.36 L 292.74 45.85 L 266.98 45.85 L 266.98 8.05 L 267.68 8.05 L 267.68 45.15 L 292.04 45.15 L 292.04 31.36 Z M 205.52 32.06 L 191.1 32.06 L 191.1 45.85 L 190.4 45.85 L 190.4 8.05 L 205.52 8.05 Q 209.93 8.05 212.205 9.31 A 7.438 7.438 0 0 1 213.857 10.529 A 5.816 5.816 0 0 1 215.25 12.705 A 12.66 12.66 0 0 1 215.873 15.295 A 16.835 16.835 0 0 1 216.02 17.57 L 216.02 22.75 A 16.515 16.515 0 0 1 215.851 25.171 A 12.165 12.165 0 0 1 215.25 27.58 A 5.719 5.719 0 0 1 213.159 30.284 A 7.813 7.813 0 0 1 212.205 30.87 A 8.496 8.496 0 0 1 210.436 31.535 Q 208.449 32.06 205.52 32.06 Z M 72.17 37.31 L 72.17 16.66 A 11.299 11.299 0 0 1 72.435 14.158 A 8.668 8.668 0 0 1 73.395 11.69 A 6.457 6.457 0 0 1 75.084 9.818 Q 75.858 9.226 76.871 8.753 A 13.144 13.144 0 0 1 77.7 8.4 Q 80.78 7.21 86.24 7.21 A 41.543 41.543 0 0 1 89.439 7.325 Q 92.467 7.56 94.507 8.274 A 11.456 11.456 0 0 1 94.85 8.4 Q 97.204 9.309 98.495 10.75 A 6.146 6.146 0 0 1 99.19 11.69 Q 100.45 13.79 100.45 16.66 L 100.45 37.31 A 10.57 10.57 0 0 1 100.115 40.021 A 8.758 8.758 0 0 1 99.19 42.245 A 6.71 6.71 0 0 1 97.373 44.221 Q 96.582 44.808 95.558 45.273 A 13.183 13.183 0 0 1 94.85 45.57 Q 91.906 46.708 86.723 46.758 A 49.908 49.908 0 0 1 86.24 46.76 A 40.592 40.592 0 0 1 83.06 46.644 Q 79.818 46.388 77.7 45.57 Q 74.62 44.38 73.395 42.245 A 9.225 9.225 0 0 1 72.257 38.751 A 11.698 11.698 0 0 1 72.17 37.31 Z M 130.76 37.31 L 130.76 16.66 A 11.299 11.299 0 0 1 131.025 14.158 A 8.668 8.668 0 0 1 131.985 11.69 A 6.457 6.457 0 0 1 133.674 9.818 Q 134.448 9.226 135.461 8.753 A 13.144 13.144 0 0 1 136.29 8.4 Q 139.37 7.21 144.83 7.21 A 41.543 41.543 0 0 1 148.029 7.325 Q 151.057 7.56 153.097 8.274 A 11.456 11.456 0 0 1 153.44 8.4 Q 155.794 9.309 157.085 10.75 A 6.146 6.146 0 0 1 157.78 11.69 Q 159.04 13.79 159.04 16.66 L 159.04 37.31 A 10.57 10.57 0 0 1 158.705 40.021 A 8.758 8.758 0 0 1 157.78 42.245 A 6.71 6.71 0 0 1 155.963 44.221 Q 155.172 44.808 154.148 45.273 A 13.183 13.183 0 0 1 153.44 45.57 Q 150.496 46.708 145.313 46.758 A 49.908 49.908 0 0 1 144.83 46.76 A 40.592 40.592 0 0 1 141.65 46.644 Q 138.408 46.388 136.29 45.57 Q 133.21 44.38 131.985 42.245 A 9.225 9.225 0 0 1 130.847 38.751 A 11.698 11.698 0 0 1 130.76 37.31 Z M 99.75 37.31 L 99.75 16.66 A 10.037 10.037 0 0 0 99.489 14.32 A 7.907 7.907 0 0 0 98.56 12.04 A 6.11 6.11 0 0 0 96.933 10.299 Q 95.9 9.538 94.43 8.995 Q 91.62 7.958 86.699 7.912 A 49.341 49.341 0 0 0 86.24 7.91 A 40.134 40.134 0 0 0 83.222 8.016 Q 80.257 8.24 78.273 8.94 A 11.187 11.187 0 0 0 78.12 8.995 Q 75.987 9.783 74.793 11.031 A 5.499 5.499 0 0 0 74.025 12.04 A 8.256 8.256 0 0 0 72.995 14.99 A 10.834 10.834 0 0 0 72.87 16.66 L 72.87 37.31 A 9.884 9.884 0 0 0 73.196 39.894 A 8.281 8.281 0 0 0 74.025 41.895 Q 75.02 43.614 77.341 44.657 A 12.201 12.201 0 0 0 78.12 44.975 A 14.509 14.509 0 0 0 80.392 45.59 Q 82.753 46.045 86.025 46.06 A 48.783 48.783 0 0 0 86.24 46.06 Q 91.205 46.06 94.104 45.09 A 11.322 11.322 0 0 0 94.43 44.975 A 10.871 10.871 0 0 0 96.236 44.127 Q 97.777 43.208 98.56 41.895 A 8.439 8.439 0 0 0 99.693 38.415 A 10.493 10.493 0 0 0 99.75 37.31 Z M 158.34 37.31 L 158.34 16.66 A 10.037 10.037 0 0 0 158.079 14.32 A 7.907 7.907 0 0 0 157.15 12.04 A 6.11 6.11 0 0 0 155.523 10.299 Q 154.49 9.538 153.02 8.995 Q 150.21 7.958 145.289 7.912 A 49.341 49.341 0 0 0 144.83 7.91 A 40.134 40.134 0 0 0 141.812 8.016 Q 138.847 8.24 136.863 8.94 A 11.187 11.187 0 0 0 136.71 8.995 Q 134.577 9.783 133.383 11.031 A 5.499 5.499 0 0 0 132.615 12.04 A 8.256 8.256 0 0 0 131.585 14.99 A 10.834 10.834 0 0 0 131.46 16.66 L 131.46 37.31 A 9.884 9.884 0 0 0 131.786 39.894 A 8.281 8.281 0 0 0 132.615 41.895 Q 133.61 43.614 135.931 44.657 A 12.201 12.201 0 0 0 136.71 44.975 A 14.509 14.509 0 0 0 138.982 45.59 Q 141.343 46.045 144.615 46.06 A 48.783 48.783 0 0 0 144.83 46.06 Q 149.795 46.06 152.694 45.09 A 11.322 11.322 0 0 0 153.02 44.975 A 10.871 10.871 0 0 0 154.826 44.127 Q 156.367 43.208 157.15 41.895 A 8.439 8.439 0 0 0 158.283 38.415 A 10.493 10.493 0 0 0 158.34 37.31 Z M 191.1 31.36 L 205.52 31.36 A 25.4 25.4 0 0 0 207.683 31.274 Q 210.241 31.055 211.75 30.275 A 6.536 6.536 0 0 0 213.303 29.181 A 5.234 5.234 0 0 0 214.585 27.23 A 11.251 11.251 0 0 0 215.18 24.848 A 14.991 14.991 0 0 0 215.32 22.75 L 215.32 17.57 A 14.864 14.864 0 0 0 215.137 15.181 A 11.466 11.466 0 0 0 214.585 13.055 A 5.649 5.649 0 0 0 212.497 10.373 A 7.534 7.534 0 0 0 211.75 9.905 Q 209.788 8.826 206.055 8.755 A 28.129 28.129 0 0 0 205.52 8.75 L 191.1 8.75 L 191.1 31.36 Z M 80.5 36.4 L 80.5 17.57 A 3.039 3.039 0 0 1 80.78 16.257 A 3.024 3.024 0 0 1 81.55 15.26 Q 82.525 14.415 85.855 14.355 A 29.037 29.037 0 0 1 86.38 14.35 Q 89.889 14.35 91.043 15.106 A 1.686 1.686 0 0 1 91.245 15.26 A 2.945 2.945 0 0 1 92.256 17.397 A 3.74 3.74 0 0 1 92.26 17.57 L 92.26 36.4 A 3.16 3.16 0 0 1 91.939 37.831 A 3.199 3.199 0 0 1 91.245 38.745 Q 90.303 39.623 86.916 39.685 A 28.961 28.961 0 0 1 86.38 39.69 A 23.62 23.62 0 0 1 84.857 39.645 Q 82.636 39.501 81.744 38.896 A 1.797 1.797 0 0 1 81.55 38.745 Q 80.5 37.8 80.5 36.4 Z M 139.09 36.4 L 139.09 17.57 A 3.039 3.039 0 0 1 139.37 16.257 A 3.024 3.024 0 0 1 140.14 15.26 Q 141.115 14.415 144.445 14.355 A 29.037 29.037 0 0 1 144.97 14.35 Q 148.479 14.35 149.633 15.106 A 1.686 1.686 0 0 1 149.835 15.26 A 2.945 2.945 0 0 1 150.846 17.397 A 3.74 3.74 0 0 1 150.85 17.57 L 150.85 36.4 A 3.16 3.16 0 0 1 150.529 37.831 A 3.199 3.199 0 0 1 149.835 38.745 Q 148.893 39.623 145.506 39.685 A 28.961 28.961 0 0 1 144.97 39.69 A 23.62 23.62 0 0 1 143.447 39.645 Q 141.226 39.501 140.334 38.896 A 1.797 1.797 0 0 1 140.14 38.745 Q 139.09 37.8 139.09 36.4 Z M 198.31 25.41 L 198.31 14.84 L 204.61 14.84 A 6.288 6.288 0 0 1 205.512 14.9 Q 206.793 15.086 207.27 15.855 A 4.141 4.141 0 0 1 207.833 17.393 A 5.473 5.473 0 0 1 207.9 18.27 L 207.9 21.98 A 4.804 4.804 0 0 1 207.672 23.479 A 4.299 4.299 0 0 1 207.27 24.36 Q 206.662 25.374 204.747 25.409 A 7.575 7.575 0 0 1 204.61 25.41 L 198.31 25.41 Z M 81.2 23.17 L 81.2 36.4 A 2.97 2.97 0 0 0 81.262 37.018 A 2.297 2.297 0 0 0 81.48 37.625 A 1.598 1.598 0 0 0 81.843 38.072 Q 82.013 38.222 82.239 38.351 A 3.456 3.456 0 0 0 82.53 38.5 L 82.53 25.2 A 2.97 2.97 0 0 0 82.469 24.582 A 2.297 2.297 0 0 0 82.25 23.975 A 1.441 1.441 0 0 0 81.84 23.505 Q 81.661 23.37 81.426 23.262 A 3.037 3.037 0 0 0 81.2 23.17 Z M 139.79 23.17 L 139.79 36.4 A 2.97 2.97 0 0 0 139.852 37.018 A 2.297 2.297 0 0 0 140.07 37.625 A 1.598 1.598 0 0 0 140.433 38.072 Q 140.603 38.222 140.829 38.351 A 3.456 3.456 0 0 0 141.12 38.5 L 141.12 25.2 A 2.97 2.97 0 0 0 141.059 24.582 A 2.297 2.297 0 0 0 140.84 23.975 A 1.441 1.441 0 0 0 140.43 23.505 Q 140.251 23.37 140.016 23.262 A 3.037 3.037 0 0 0 139.79 23.17 Z" vector-effect="non-scaling-stroke"/></g></svg>