<svg width="164.525" height="21.975" viewBox="0 0 164.525 21.975" xmlns="http://www.w3.org/2000/svg"><g id="svgGroup" stroke-linecap="round" fill-rule="evenodd" font-size="9pt" stroke="#000000" stroke-width="1" fill="#000000" style="stroke:#000000;stroke-width:1;fill:#000000"><path d="M 151.775 18.625 L 163.375 18.625 A 1.296 1.296 0 0 0 163.731 18.58 Q 164.131 18.466 164.237 18.058 A 1.326 1.326 0 0 0 164.275 17.725 L 164.275 14.8 A 1.296 1.296 0 0 0 164.231 14.444 Q 164.116 14.045 163.708 13.938 A 1.326 1.326 0 0 0 163.375 13.9 L 156.475 13.9 L 156.475 11.75 L 161.35 11.75 A 1.296 1.296 0 0 0 161.706 11.705 Q 162.106 11.591 162.212 11.183 A 1.326 1.326 0 0 0 162.25 10.85 L 162.25 8.175 A 1.296 1.296 0 0 0 162.206 7.819 Q 162.091 7.42 161.683 7.313 A 1.326 1.326 0 0 0 161.35 7.275 L 156.475 7.275 L 156.475 5.35 L 163.375 5.35 A 1.296 1.296 0 0 0 163.731 5.305 Q 164.131 5.191 164.237 4.783 A 1.326 1.326 0 0 0 164.275 4.45 L 164.275 1.525 A 1.296 1.296 0 0 0 164.231 1.169 Q 164.116 0.77 163.708 0.663 A 1.326 1.326 0 0 0 163.375 0.625 L 151.775 0.625 A 1.296 1.296 0 0 0 151.419 0.67 Q 151.02 0.784 150.913 1.192 A 1.326 1.326 0 0 0 150.875 1.525 L 150.875 17.725 A 1.296 1.296 0 0 0 150.92 18.081 Q 151.034 18.481 151.442 18.587 A 1.326 1.326 0 0 0 151.775 18.625 Z M 137.55 21.6 L 131.05 21.6 Q 130.628 21.6 130.328 21.486 A 1.235 1.235 0 0 1 130.125 21.388 A 1.116 1.116 0 0 1 129.843 21.137 Q 129.677 20.934 129.55 20.625 L 127.1 14.5 A 119.197 119.197 0 0 1 126.957 14.129 Q 126.767 13.632 126.632 13.264 A 40.328 40.328 0 0 1 126.613 13.213 Q 126.425 12.7 126.35 12.175 Q 126.296 11.797 126.281 11.277 A 14.713 14.713 0 0 1 126.275 10.85 L 126.275 4.25 Q 126.275 3.817 126.443 3.54 A 0.887 0.887 0 0 1 126.625 3.325 L 129.85 0.6 A 0.89 0.89 0 0 1 130.139 0.446 Q 130.355 0.375 130.65 0.375 L 134.625 0.375 A 1.888 1.888 0 0 1 135.099 0.429 Q 135.705 0.587 135.822 1.203 A 1.725 1.725 0 0 1 135.85 1.525 L 135.85 8.425 A 2.195 2.195 0 0 0 135.868 8.709 A 1.792 1.792 0 0 0 135.9 8.888 A 11.535 11.535 0 0 0 135.949 9.085 Q 135.974 9.187 136.005 9.299 A 20.128 20.128 0 0 0 136.025 9.375 L 136.1 9.55 L 136.1 4.25 Q 136.1 3.817 136.268 3.54 A 0.887 0.887 0 0 1 136.45 3.325 L 139.675 0.6 A 0.89 0.89 0 0 1 139.964 0.446 Q 140.18 0.375 140.475 0.375 L 144.4 0.375 A 2.246 2.246 0 0 1 144.707 0.394 Q 145.066 0.444 145.258 0.621 A 0.648 0.648 0 0 1 145.288 0.65 Q 145.479 0.85 145.531 1.222 A 2.192 2.192 0 0 1 145.55 1.525 L 145.55 8.125 A 14.088 14.088 0 0 1 145.54 8.665 Q 145.531 8.917 145.511 9.134 A 6.078 6.078 0 0 1 145.475 9.45 Q 145.4 9.975 145.225 10.488 A 13.433 13.433 0 0 1 145.087 10.871 Q 144.938 11.266 144.725 11.775 L 142.275 17.9 A 1.448 1.448 0 0 1 142.177 18.13 A 1.163 1.163 0 0 1 142.075 18.288 A 3.25 3.25 0 0 1 141.935 18.458 A 2.601 2.601 0 0 1 141.825 18.575 L 138.6 21.25 A 1.233 1.233 0 0 1 138.083 21.533 Q 137.892 21.587 137.663 21.597 A 2.46 2.46 0 0 1 137.55 21.6 Z M 134.275 18.625 L 140.775 18.625 A 2.325 2.325 0 0 0 141.094 18.605 Q 141.378 18.565 141.575 18.45 A 0.872 0.872 0 0 0 141.821 18.23 Q 141.954 18.06 142.05 17.8 L 144.5 11.675 A 49.242 49.242 0 0 0 144.642 11.316 Q 144.83 10.834 144.957 10.475 A 16.488 16.488 0 0 0 144.975 10.425 Q 145.15 9.925 145.225 9.413 A 6.165 6.165 0 0 0 145.27 9.001 Q 145.287 8.784 145.294 8.534 A 13.864 13.864 0 0 0 145.3 8.125 L 145.3 1.525 A 1.296 1.296 0 0 0 145.256 1.169 Q 145.141 0.77 144.733 0.663 A 1.326 1.326 0 0 0 144.4 0.625 L 140.475 0.625 A 1.296 1.296 0 0 0 140.119 0.67 Q 139.72 0.784 139.613 1.192 A 1.326 1.326 0 0 0 139.575 1.525 L 139.575 8.4 Q 139.575 8.65 139.525 8.9 A 3.348 3.348 0 0 1 139.443 9.222 A 4.12 4.12 0 0 1 139.375 9.425 L 138.2 12.95 Q 138.13 13.189 137.989 13.293 A 0.43 0.43 0 0 1 137.725 13.375 L 137.45 13.375 A 0.425 0.425 0 0 1 137.083 13.185 Q 137.017 13.091 136.975 12.95 L 135.8 9.45 A 3.924 3.924 0 0 1 135.697 9.124 A 3.19 3.19 0 0 1 135.65 8.925 Q 135.6 8.675 135.6 8.425 L 135.6 1.525 Q 135.6 0.817 134.997 0.666 A 1.535 1.535 0 0 0 134.625 0.625 L 130.65 0.625 A 1.296 1.296 0 0 0 130.294 0.67 Q 129.895 0.784 129.788 1.192 A 1.326 1.326 0 0 0 129.75 1.525 L 129.75 8.125 A 13.261 13.261 0 0 0 129.76 8.648 Q 129.77 8.893 129.789 9.105 A 5.816 5.816 0 0 0 129.825 9.413 Q 129.9 9.925 130.075 10.425 A 19.163 19.163 0 0 0 130.17 10.691 Q 130.315 11.085 130.521 11.601 A 54.795 54.795 0 0 0 130.55 11.675 L 133 17.8 Q 133.131 18.112 133.306 18.294 A 0.889 0.889 0 0 0 133.5 18.45 Q 133.8 18.625 134.275 18.625 Z M 120.425 21.6 L 109.775 21.6 Q 108.863 21.6 108.674 20.876 A 1.694 1.694 0 0 1 108.625 20.45 L 108.625 17.475 Q 108.625 17.042 108.793 16.765 A 0.887 0.887 0 0 1 108.975 16.55 L 112 14 L 112 8.425 L 109.775 8.425 Q 108.863 8.425 108.674 7.701 A 1.694 1.694 0 0 1 108.625 7.275 L 108.625 4.25 Q 108.625 3.817 108.793 3.54 A 0.887 0.887 0 0 1 108.975 3.325 L 112.2 0.6 A 0.89 0.89 0 0 1 112.489 0.446 Q 112.705 0.375 113 0.375 L 123.65 0.375 Q 124.563 0.375 124.751 1.099 A 1.694 1.694 0 0 1 124.8 1.525 L 124.8 4.55 Q 124.8 4.983 124.632 5.26 A 0.887 0.887 0 0 1 124.45 5.475 L 121.475 7.975 L 121.475 13.6 L 123.65 13.6 Q 124.563 13.6 124.751 14.324 A 1.694 1.694 0 0 1 124.8 14.75 L 124.8 17.725 Q 124.8 18.158 124.632 18.435 A 0.887 0.887 0 0 1 124.45 18.65 L 121.2 21.35 A 0.766 0.766 0 0 1 120.911 21.527 Q 120.708 21.6 120.425 21.6 Z M 160.15 21.6 L 148.55 21.6 Q 147.638 21.6 147.449 20.876 A 1.694 1.694 0 0 1 147.4 20.45 L 147.4 4.25 Q 147.4 3.817 147.568 3.54 A 0.887 0.887 0 0 1 147.75 3.325 L 150.975 0.6 A 0.89 0.89 0 0 1 151.264 0.446 Q 151.48 0.375 151.775 0.375 L 163.375 0.375 Q 164.288 0.375 164.476 1.099 A 1.694 1.694 0 0 1 164.525 1.525 L 164.525 4.45 Q 164.525 4.883 164.357 5.16 A 0.887 0.887 0 0 1 164.175 5.375 L 162.025 7.15 A 0.814 0.814 0 0 1 162.415 7.612 Q 162.471 7.766 162.49 7.959 A 2.178 2.178 0 0 1 162.5 8.175 L 162.5 10.85 Q 162.5 11.283 162.332 11.56 A 0.887 0.887 0 0 1 162.15 11.775 L 159.925 13.65 L 163.375 13.65 Q 164.288 13.65 164.476 14.374 A 1.694 1.694 0 0 1 164.525 14.8 L 164.525 17.725 Q 164.525 18.158 164.357 18.435 A 0.887 0.887 0 0 1 164.175 18.65 L 160.925 21.35 A 0.766 0.766 0 0 1 160.636 21.527 Q 160.433 21.6 160.15 21.6 Z M 13.875 21.6 L 1.15 21.6 Q 0.238 21.6 0.049 20.876 A 1.694 1.694 0 0 1 0 20.45 L 0 4.25 Q 0 3.817 0.168 3.54 A 0.887 0.887 0 0 1 0.35 3.325 L 3.575 0.6 A 0.89 0.89 0 0 1 3.864 0.446 Q 4.08 0.375 4.375 0.375 L 8.25 0.375 Q 9.163 0.375 9.351 1.099 A 1.694 1.694 0 0 1 9.4 1.525 L 9.4 11.7 L 9.45 11.65 L 12.675 8.925 A 0.89 0.89 0 0 1 12.964 8.771 Q 13.18 8.7 13.475 8.7 L 17.1 8.7 Q 18.013 8.7 18.201 9.424 A 1.694 1.694 0 0 1 18.25 9.85 L 18.25 17.725 Q 18.25 18.158 18.082 18.435 A 0.887 0.887 0 0 1 17.9 18.65 L 14.65 21.35 A 0.766 0.766 0 0 1 14.361 21.527 Q 14.158 21.6 13.875 21.6 Z M 103.025 21.6 L 90.3 21.6 Q 89.388 21.6 89.199 20.876 A 1.694 1.694 0 0 1 89.15 20.45 L 89.15 4.25 Q 89.15 3.817 89.318 3.54 A 0.887 0.887 0 0 1 89.5 3.325 L 92.725 0.6 A 0.89 0.89 0 0 1 93.014 0.446 Q 93.23 0.375 93.525 0.375 L 97.4 0.375 Q 98.313 0.375 98.501 1.099 A 1.694 1.694 0 0 1 98.55 1.525 L 98.55 11.7 L 98.6 11.65 L 101.825 8.925 A 0.89 0.89 0 0 1 102.114 8.771 Q 102.33 8.7 102.625 8.7 L 106.25 8.7 Q 107.163 8.7 107.351 9.424 A 1.694 1.694 0 0 1 107.4 9.85 L 107.4 17.725 Q 107.4 18.158 107.232 18.435 A 0.887 0.887 0 0 1 107.05 18.65 L 103.8 21.35 A 0.766 0.766 0 0 1 103.511 21.527 Q 103.308 21.6 103.025 21.6 Z M 4.375 18.625 L 17.1 18.625 A 1.296 1.296 0 0 0 17.456 18.58 Q 17.856 18.466 17.962 18.058 A 1.326 1.326 0 0 0 18 17.725 L 18 9.85 A 1.296 1.296 0 0 0 17.956 9.494 Q 17.841 9.095 17.433 8.988 A 1.326 1.326 0 0 0 17.1 8.95 L 13.475 8.95 A 1.296 1.296 0 0 0 13.119 8.995 Q 12.72 9.109 12.613 9.517 A 1.326 1.326 0 0 0 12.575 9.85 L 12.575 13.9 L 9.15 13.9 L 9.15 1.525 A 1.296 1.296 0 0 0 9.106 1.169 Q 8.991 0.77 8.583 0.663 A 1.326 1.326 0 0 0 8.25 0.625 L 4.375 0.625 A 1.296 1.296 0 0 0 4.019 0.67 Q 3.62 0.784 3.513 1.192 A 1.326 1.326 0 0 0 3.475 1.525 L 3.475 17.725 A 1.296 1.296 0 0 0 3.52 18.081 Q 3.634 18.481 4.042 18.587 A 1.326 1.326 0 0 0 4.375 18.625 Z M 93.525 18.625 L 106.25 18.625 A 1.296 1.296 0 0 0 106.606 18.58 Q 107.006 18.466 107.112 18.058 A 1.326 1.326 0 0 0 107.15 17.725 L 107.15 9.85 A 1.296 1.296 0 0 0 107.106 9.494 Q 106.991 9.095 106.583 8.988 A 1.326 1.326 0 0 0 106.25 8.95 L 102.625 8.95 A 1.296 1.296 0 0 0 102.269 8.995 Q 101.87 9.109 101.763 9.517 A 1.326 1.326 0 0 0 101.725 9.85 L 101.725 13.9 L 98.3 13.9 L 98.3 1.525 A 1.296 1.296 0 0 0 98.256 1.169 Q 98.141 0.77 97.733 0.663 A 1.326 1.326 0 0 0 97.4 0.625 L 93.525 0.625 A 1.296 1.296 0 0 0 93.169 0.67 Q 92.77 0.784 92.663 1.192 A 1.326 1.326 0 0 0 92.625 1.525 L 92.625 17.725 A 1.296 1.296 0 0 0 92.67 18.081 Q 92.784 18.481 93.192 18.587 A 1.326 1.326 0 0 0 93.525 18.625 Z M 153.85 16.125 L 162.025 16.125 L 162.025 16.375 L 153.6 16.375 L 153.6 2.875 L 162.025 2.875 L 162.025 3.125 L 153.85 3.125 L 153.85 9.4 L 160 9.4 L 160 9.65 L 153.85 9.65 L 153.85 16.125 Z M 113 18.625 L 123.65 18.625 A 1.296 1.296 0 0 0 124.006 18.58 Q 124.406 18.466 124.512 18.058 A 1.326 1.326 0 0 0 124.55 17.725 L 124.55 14.75 A 1.296 1.296 0 0 0 124.506 14.394 Q 124.391 13.995 123.983 13.888 A 1.326 1.326 0 0 0 123.65 13.85 L 121.225 13.85 L 121.225 5.45 L 123.65 5.45 A 1.296 1.296 0 0 0 124.006 5.405 Q 124.406 5.291 124.512 4.883 A 1.326 1.326 0 0 0 124.55 4.55 L 124.55 1.525 A 1.296 1.296 0 0 0 124.506 1.169 Q 124.391 0.77 123.983 0.663 A 1.326 1.326 0 0 0 123.65 0.625 L 113 0.625 A 1.296 1.296 0 0 0 112.644 0.67 Q 112.245 0.784 112.138 1.192 A 1.326 1.326 0 0 0 112.1 1.525 L 112.1 4.55 A 1.296 1.296 0 0 0 112.145 4.906 Q 112.259 5.306 112.667 5.412 A 1.326 1.326 0 0 0 113 5.45 L 115.475 5.45 L 115.475 13.85 L 113 13.85 A 1.296 1.296 0 0 0 112.644 13.895 Q 112.245 14.009 112.138 14.417 A 1.326 1.326 0 0 0 112.1 14.75 L 112.1 17.725 A 1.296 1.296 0 0 0 112.145 18.081 Q 112.259 18.481 112.667 18.587 A 1.326 1.326 0 0 0 113 18.625 Z M 37.35 17.7 L 34.125 20.4 A 4.563 4.563 0 0 1 33.246 20.982 Q 32.579 21.327 31.688 21.563 Q 30.125 21.975 27.625 21.975 A 19.884 19.884 0 0 1 26.044 21.916 Q 24.634 21.803 23.6 21.475 A 8.112 8.112 0 0 1 22.517 21.049 Q 21.697 20.652 21.15 20.113 A 4.78 4.78 0 0 1 20.174 18.758 A 4.463 4.463 0 0 1 19.938 18.15 Q 19.6 17.05 19.6 15.875 L 19.6 8.1 A 7.391 7.391 0 0 1 19.709 6.808 A 6.053 6.053 0 0 1 19.925 5.95 A 3.595 3.595 0 0 1 20.971 4.386 A 4.336 4.336 0 0 1 21.1 4.275 L 24.35 1.575 A 4.563 4.563 0 0 1 25.229 0.993 Q 25.897 0.648 26.788 0.413 Q 28.35 0 30.85 0 Q 32.572 0 33.861 0.191 A 11.029 11.029 0 0 1 34.875 0.388 A 8.683 8.683 0 0 1 35.874 0.694 Q 36.378 0.885 36.78 1.124 A 4.036 4.036 0 0 1 37.313 1.5 A 4.033 4.033 0 0 1 38.184 2.505 A 3.659 3.659 0 0 1 38.513 3.213 A 6.31 6.31 0 0 1 38.822 4.711 A 7.652 7.652 0 0 1 38.85 5.375 L 38.85 13.9 A 7.107 7.107 0 0 1 38.736 15.2 A 5.915 5.915 0 0 1 38.525 16.013 A 3.699 3.699 0 0 1 37.615 17.456 A 4.545 4.545 0 0 1 37.35 17.7 Z M 58.275 17.7 L 55.05 20.4 A 4.563 4.563 0 0 1 54.171 20.982 Q 53.504 21.327 52.613 21.563 Q 51.05 21.975 48.55 21.975 A 19.884 19.884 0 0 1 46.969 21.916 Q 45.559 21.803 44.525 21.475 A 8.112 8.112 0 0 1 43.442 21.049 Q 42.622 20.652 42.075 20.113 A 4.78 4.78 0 0 1 41.099 18.758 A 4.463 4.463 0 0 1 40.863 18.15 Q 40.525 17.05 40.525 15.875 L 40.525 8.1 A 7.391 7.391 0 0 1 40.634 6.808 A 6.053 6.053 0 0 1 40.85 5.95 A 3.595 3.595 0 0 1 41.896 4.386 A 4.336 4.336 0 0 1 42.025 4.275 L 45.275 1.575 A 4.563 4.563 0 0 1 46.154 0.993 Q 46.822 0.648 47.713 0.413 Q 49.275 0 51.775 0 Q 53.497 0 54.786 0.191 A 11.029 11.029 0 0 1 55.8 0.388 A 8.683 8.683 0 0 1 56.799 0.694 Q 57.303 0.885 57.705 1.124 A 4.036 4.036 0 0 1 58.238 1.5 A 4.033 4.033 0 0 1 59.109 2.505 A 3.659 3.659 0 0 1 59.438 3.213 A 6.31 6.31 0 0 1 59.747 4.711 A 7.652 7.652 0 0 1 59.775 5.375 L 59.775 13.9 A 7.107 7.107 0 0 1 59.661 15.2 A 5.915 5.915 0 0 1 59.45 16.013 A 3.699 3.699 0 0 1 58.54 17.456 A 4.545 4.545 0 0 1 58.275 17.7 Z M 66.75 21.6 L 62.875 21.6 Q 61.963 21.6 61.774 20.876 A 1.694 1.694 0 0 1 61.725 20.45 L 61.725 4.25 Q 61.725 3.817 61.893 3.54 A 0.887 0.887 0 0 1 62.075 3.325 L 65.3 0.6 A 0.89 0.89 0 0 1 65.589 0.446 Q 65.805 0.375 66.1 0.375 L 73.75 0.375 Q 76.123 0.375 77.457 1.01 A 4.257 4.257 0 0 1 77.488 1.025 A 4.553 4.553 0 0 1 78.47 1.659 A 3.451 3.451 0 0 1 79.363 2.825 A 5.595 5.595 0 0 1 79.811 4.323 A 7.491 7.491 0 0 1 79.9 5.5 L 79.9 8.7 A 7.407 7.407 0 0 1 79.793 9.983 A 6.008 6.008 0 0 1 79.563 10.888 Q 79.225 11.875 78.4 12.575 L 75.15 15.275 Q 74.525 15.8 73.538 16.138 Q 72.55 16.475 71.125 16.525 L 71.125 17.725 Q 71.125 18.158 70.957 18.435 A 0.887 0.887 0 0 1 70.775 18.65 L 67.525 21.35 A 0.766 0.766 0 0 1 67.236 21.527 Q 67.033 21.6 66.75 21.6 Z M 132.575 2.875 L 132.825 2.875 L 132.825 8.275 Q 132.825 9.479 133.143 10.384 A 4.472 4.472 0 0 0 133.225 10.6 L 134.875 14.6 A 7.939 7.939 0 0 0 135.112 15.111 Q 135.277 15.435 135.45 15.688 A 0.95 0.95 0 0 0 135.981 16.064 Q 136.188 16.125 136.45 16.125 L 138.65 16.125 A 1.882 1.882 0 0 0 139.024 16.09 Q 139.241 16.046 139.403 15.946 A 0.897 0.897 0 0 0 139.675 15.688 A 4.184 4.184 0 0 0 139.928 15.264 Q 140.045 15.04 140.154 14.779 A 7.468 7.468 0 0 0 140.225 14.6 L 141.875 10.6 Q 142.275 9.625 142.275 8.275 L 142.275 2.875 L 142.525 2.875 L 142.525 8.275 A 9.769 9.769 0 0 1 142.498 9.026 A 7.631 7.631 0 0 1 142.438 9.563 Q 142.35 10.15 142.125 10.7 L 140.475 14.7 A 6.779 6.779 0 0 1 140.211 15.267 Q 140.022 15.625 139.813 15.9 A 1.136 1.136 0 0 1 139.228 16.297 Q 139.038 16.355 138.808 16.37 A 2.48 2.48 0 0 1 138.65 16.375 L 136.45 16.375 A 2.001 2.001 0 0 1 136.005 16.329 Q 135.708 16.261 135.495 16.094 A 1.148 1.148 0 0 1 135.3 15.9 Q 134.925 15.425 134.625 14.7 L 132.975 10.7 Q 132.75 10.15 132.663 9.563 Q 132.575 8.975 132.575 8.275 L 132.575 2.875 Z M 66.1 18.625 L 69.975 18.625 A 1.296 1.296 0 0 0 70.331 18.58 Q 70.731 18.466 70.837 18.058 A 1.326 1.326 0 0 0 70.875 17.725 L 70.875 13.575 L 73.75 13.575 A 13.722 13.722 0 0 0 75.076 13.515 Q 76.427 13.384 77.313 12.963 A 4.359 4.359 0 0 0 78.261 12.361 A 3.312 3.312 0 0 0 79.125 11.25 A 5.289 5.289 0 0 0 79.57 9.779 A 6.994 6.994 0 0 0 79.65 8.7 L 79.65 5.5 A 6.818 6.818 0 0 0 79.535 4.218 A 5.197 5.197 0 0 0 79.125 2.95 A 3.392 3.392 0 0 0 77.977 1.621 A 4.629 4.629 0 0 0 77.313 1.238 Q 76.025 0.625 73.75 0.625 L 66.1 0.625 A 1.296 1.296 0 0 0 65.744 0.67 Q 65.345 0.784 65.238 1.192 A 1.326 1.326 0 0 0 65.2 1.525 L 65.2 17.725 A 1.296 1.296 0 0 0 65.245 18.081 Q 65.359 18.481 65.767 18.587 A 1.326 1.326 0 0 0 66.1 18.625 Z M 38.6 13.9 L 38.6 5.375 Q 38.6 4.225 38.263 3.288 Q 37.925 2.35 37.075 1.675 A 4.457 4.457 0 0 0 36.275 1.176 Q 35.86 0.971 35.353 0.807 A 9.527 9.527 0 0 0 34.713 0.625 A 11.026 11.026 0 0 0 33.489 0.4 Q 32.841 0.316 32.087 0.279 A 25.313 25.313 0 0 0 30.85 0.25 A 24.378 24.378 0 0 0 29.333 0.294 Q 28.593 0.341 27.961 0.435 A 10.524 10.524 0 0 0 26.988 0.625 A 8.903 8.903 0 0 0 26.026 0.918 Q 25.183 1.232 24.625 1.675 A 3.9 3.9 0 0 0 23.777 2.592 A 3.503 3.503 0 0 0 23.425 3.288 Q 23.075 4.225 23.075 5.375 L 23.075 13.9 A 6.532 6.532 0 0 0 23.185 15.123 A 5.303 5.303 0 0 0 23.425 15.988 A 3.622 3.622 0 0 0 24.42 17.427 A 4.391 4.391 0 0 0 24.625 17.6 A 4.376 4.376 0 0 0 25.425 18.097 Q 26.09 18.422 26.988 18.638 A 11.368 11.368 0 0 0 28.211 18.855 Q 28.859 18.937 29.613 18.972 A 26.185 26.185 0 0 0 30.85 19 A 25.216 25.216 0 0 0 32.367 18.957 Q 33.107 18.912 33.739 18.821 A 10.847 10.847 0 0 0 34.713 18.638 Q 36.225 18.275 37.075 17.6 A 3.831 3.831 0 0 0 37.895 16.719 A 3.405 3.405 0 0 0 38.263 15.988 A 5.684 5.684 0 0 0 38.559 14.674 A 7.139 7.139 0 0 0 38.6 13.9 Z M 59.525 13.9 L 59.525 5.375 Q 59.525 4.225 59.188 3.288 Q 58.85 2.35 58 1.675 A 4.457 4.457 0 0 0 57.2 1.176 Q 56.785 0.971 56.278 0.807 A 9.527 9.527 0 0 0 55.638 0.625 A 11.026 11.026 0 0 0 54.414 0.4 Q 53.766 0.316 53.012 0.279 A 25.313 25.313 0 0 0 51.775 0.25 A 24.378 24.378 0 0 0 50.258 0.294 Q 49.518 0.341 48.886 0.435 A 10.524 10.524 0 0 0 47.913 0.625 A 8.903 8.903 0 0 0 46.951 0.918 Q 46.108 1.232 45.55 1.675 A 3.9 3.9 0 0 0 44.702 2.592 A 3.503 3.503 0 0 0 44.35 3.288 Q 44 4.225 44 5.375 L 44 13.9 A 6.532 6.532 0 0 0 44.11 15.123 A 5.303 5.303 0 0 0 44.35 15.988 A 3.622 3.622 0 0 0 45.345 17.427 A 4.391 4.391 0 0 0 45.55 17.6 A 4.376 4.376 0 0 0 46.35 18.097 Q 47.015 18.422 47.913 18.638 A 11.368 11.368 0 0 0 49.136 18.855 Q 49.784 18.937 50.538 18.972 A 26.185 26.185 0 0 0 51.775 19 A 25.216 25.216 0 0 0 53.292 18.957 Q 54.032 18.912 54.664 18.821 A 10.847 10.847 0 0 0 55.638 18.638 Q 57.15 18.275 58 17.6 A 3.831 3.831 0 0 0 58.82 16.719 A 3.405 3.405 0 0 0 59.188 15.988 A 5.684 5.684 0 0 0 59.484 14.674 A 7.139 7.139 0 0 0 59.525 13.9 Z M 114.35 3.125 L 114.35 2.875 L 122.3 2.875 L 122.3 3.125 L 118.475 3.125 L 118.475 16.125 L 122.3 16.125 L 122.3 16.375 L 114.35 16.375 L 114.35 16.125 L 118.225 16.125 L 118.225 3.125 L 114.35 3.125 Z M 15.15 11.2 L 15.4 11.2 L 15.4 16.375 L 6.2 16.375 L 6.2 2.875 L 6.45 2.875 L 6.45 16.125 L 15.15 16.125 L 15.15 11.2 Z M 104.3 11.2 L 104.55 11.2 L 104.55 16.375 L 95.35 16.375 L 95.35 2.875 L 95.6 2.875 L 95.6 16.125 L 104.3 16.125 L 104.3 11.2 Z M 73.4 11.45 L 68.25 11.45 L 68.25 16.375 L 68 16.375 L 68 2.875 L 73.4 2.875 Q 74.975 2.875 75.788 3.325 A 2.656 2.656 0 0 1 76.378 3.76 A 2.077 2.077 0 0 1 76.875 4.538 A 4.522 4.522 0 0 1 77.097 5.463 A 6.013 6.013 0 0 1 77.15 6.275 L 77.15 8.125 Q 77.15 9.1 76.875 9.85 A 2.043 2.043 0 0 1 76.128 10.816 A 2.79 2.79 0 0 1 75.788 11.025 A 3.034 3.034 0 0 1 75.156 11.263 Q 74.446 11.45 73.4 11.45 Z M 25.775 13.325 L 25.775 5.95 A 4.035 4.035 0 0 1 25.87 5.057 A 3.096 3.096 0 0 1 26.213 4.175 Q 26.589 3.531 27.454 3.126 A 4.694 4.694 0 0 1 27.75 3 A 5.233 5.233 0 0 1 28.604 2.759 Q 29.49 2.581 30.719 2.575 A 17.663 17.663 0 0 1 30.8 2.575 A 14.837 14.837 0 0 1 31.942 2.616 Q 33.024 2.7 33.753 2.955 A 4.092 4.092 0 0 1 33.875 3 Q 34.716 3.325 35.177 3.839 A 2.195 2.195 0 0 1 35.425 4.175 A 3.124 3.124 0 0 1 35.827 5.307 A 4.119 4.119 0 0 1 35.875 5.95 L 35.875 13.325 A 3.775 3.775 0 0 1 35.755 14.293 A 3.128 3.128 0 0 1 35.425 15.088 A 2.396 2.396 0 0 1 34.776 15.793 Q 34.399 16.073 33.875 16.275 Q 32.824 16.681 30.973 16.699 A 17.825 17.825 0 0 1 30.8 16.7 Q 28.897 16.7 27.804 16.295 A 4.037 4.037 0 0 1 27.75 16.275 Q 26.65 15.85 26.213 15.088 A 3.295 3.295 0 0 1 25.806 13.84 A 4.178 4.178 0 0 1 25.775 13.325 Z M 46.7 13.325 L 46.7 5.95 A 4.035 4.035 0 0 1 46.795 5.057 A 3.096 3.096 0 0 1 47.138 4.175 Q 47.514 3.531 48.379 3.126 A 4.694 4.694 0 0 1 48.675 3 A 5.233 5.233 0 0 1 49.529 2.759 Q 50.415 2.581 51.644 2.575 A 17.663 17.663 0 0 1 51.725 2.575 A 14.837 14.837 0 0 1 52.867 2.616 Q 53.949 2.7 54.678 2.955 A 4.092 4.092 0 0 1 54.8 3 Q 55.641 3.325 56.102 3.839 A 2.195 2.195 0 0 1 56.35 4.175 A 3.124 3.124 0 0 1 56.752 5.307 A 4.119 4.119 0 0 1 56.8 5.95 L 56.8 13.325 A 3.775 3.775 0 0 1 56.68 14.293 A 3.128 3.128 0 0 1 56.35 15.088 A 2.396 2.396 0 0 1 55.701 15.793 Q 55.324 16.073 54.8 16.275 Q 53.749 16.681 51.898 16.699 A 17.825 17.825 0 0 1 51.725 16.7 Q 49.822 16.7 48.729 16.295 A 4.037 4.037 0 0 1 48.675 16.275 Q 47.575 15.85 47.138 15.088 A 3.295 3.295 0 0 1 46.731 13.84 A 4.178 4.178 0 0 1 46.7 13.325 Z M 35.625 13.325 L 35.625 5.95 Q 35.625 5 35.2 4.3 A 2.182 2.182 0 0 0 34.619 3.678 Q 34.365 3.491 34.038 3.341 A 4.45 4.45 0 0 0 33.725 3.213 A 5.138 5.138 0 0 0 32.927 2.996 Q 32.104 2.836 30.964 2.826 A 17.621 17.621 0 0 0 30.8 2.825 Q 28.998 2.825 27.955 3.193 A 3.995 3.995 0 0 0 27.9 3.213 Q 27.138 3.494 26.712 3.94 A 1.964 1.964 0 0 0 26.438 4.3 A 2.949 2.949 0 0 0 26.07 5.354 A 3.869 3.869 0 0 0 26.025 5.95 L 26.025 13.325 A 3.53 3.53 0 0 0 26.142 14.248 A 2.957 2.957 0 0 0 26.438 14.963 A 2.127 2.127 0 0 0 27.021 15.602 Q 27.281 15.796 27.622 15.949 A 4.357 4.357 0 0 0 27.9 16.063 A 5.182 5.182 0 0 0 28.711 16.282 Q 29.555 16.445 30.723 16.45 A 17.417 17.417 0 0 0 30.8 16.45 A 14.671 14.671 0 0 0 31.89 16.412 Q 33.003 16.329 33.725 16.063 A 3.882 3.882 0 0 0 34.37 15.76 Q 34.714 15.555 34.952 15.294 A 2.031 2.031 0 0 0 35.2 14.963 A 3.014 3.014 0 0 0 35.605 13.72 A 3.748 3.748 0 0 0 35.625 13.325 Z M 56.55 13.325 L 56.55 5.95 Q 56.55 5 56.125 4.3 A 2.182 2.182 0 0 0 55.544 3.678 Q 55.29 3.491 54.963 3.341 A 4.45 4.45 0 0 0 54.65 3.213 A 5.138 5.138 0 0 0 53.852 2.996 Q 53.029 2.836 51.889 2.826 A 17.621 17.621 0 0 0 51.725 2.825 Q 49.923 2.825 48.88 3.193 A 3.995 3.995 0 0 0 48.825 3.213 Q 48.063 3.494 47.637 3.94 A 1.964 1.964 0 0 0 47.363 4.3 A 2.949 2.949 0 0 0 46.995 5.354 A 3.869 3.869 0 0 0 46.95 5.95 L 46.95 13.325 A 3.53 3.53 0 0 0 47.067 14.248 A 2.957 2.957 0 0 0 47.363 14.963 A 2.127 2.127 0 0 0 47.946 15.602 Q 48.206 15.796 48.547 15.949 A 4.357 4.357 0 0 0 48.825 16.063 A 5.182 5.182 0 0 0 49.636 16.282 Q 50.48 16.445 51.648 16.45 A 17.417 17.417 0 0 0 51.725 16.45 A 14.671 14.671 0 0 0 52.815 16.412 Q 53.928 16.329 54.65 16.063 A 3.882 3.882 0 0 0 55.295 15.76 Q 55.639 15.555 55.877 15.294 A 2.031 2.031 0 0 0 56.125 14.963 A 3.014 3.014 0 0 0 56.53 13.72 A 3.748 3.748 0 0 0 56.55 13.325 Z M 68.25 11.2 L 73.4 11.2 A 9.071 9.071 0 0 0 74.172 11.169 Q 74.95 11.103 75.457 10.891 A 2.303 2.303 0 0 0 75.625 10.813 Q 76.375 10.425 76.638 9.725 A 4.018 4.018 0 0 0 76.85 8.874 A 5.354 5.354 0 0 0 76.9 8.125 L 76.9 6.275 Q 76.9 5.375 76.638 4.663 A 2.018 2.018 0 0 0 75.892 3.705 A 2.691 2.691 0 0 0 75.625 3.538 A 2.715 2.715 0 0 0 75.032 3.305 Q 74.439 3.143 73.591 3.127 A 10.047 10.047 0 0 0 73.4 3.125 L 68.25 3.125 L 68.25 11.2 Z M 28.75 13 L 28.75 6.275 A 1.085 1.085 0 0 1 28.85 5.806 A 1.08 1.08 0 0 1 29.125 5.45 Q 29.5 5.125 30.85 5.125 Q 32.103 5.125 32.515 5.395 A 0.602 0.602 0 0 1 32.588 5.45 A 1.052 1.052 0 0 1 32.949 6.213 A 1.336 1.336 0 0 1 32.95 6.275 L 32.95 13 A 1.129 1.129 0 0 1 32.835 13.511 A 1.143 1.143 0 0 1 32.588 13.838 A 0.823 0.823 0 0 1 32.329 13.991 Q 31.91 14.157 31.041 14.173 A 10.342 10.342 0 0 1 30.85 14.175 A 8.436 8.436 0 0 1 30.306 14.159 Q 29.418 14.101 29.125 13.838 A 1.118 1.118 0 0 1 28.83 13.426 A 1.121 1.121 0 0 1 28.75 13 Z M 49.675 13 L 49.675 6.275 A 1.085 1.085 0 0 1 49.775 5.806 A 1.08 1.08 0 0 1 50.05 5.45 Q 50.425 5.125 51.775 5.125 Q 53.028 5.125 53.44 5.395 A 0.602 0.602 0 0 1 53.513 5.45 A 1.052 1.052 0 0 1 53.874 6.213 A 1.336 1.336 0 0 1 53.875 6.275 L 53.875 13 A 1.129 1.129 0 0 1 53.76 13.511 A 1.143 1.143 0 0 1 53.513 13.838 A 0.823 0.823 0 0 1 53.254 13.991 Q 52.835 14.157 51.966 14.173 A 10.342 10.342 0 0 1 51.775 14.175 A 8.436 8.436 0 0 1 51.231 14.159 Q 50.343 14.101 50.05 13.838 A 1.118 1.118 0 0 1 49.755 13.426 A 1.121 1.121 0 0 1 49.675 13 Z M 70.825 9.075 L 70.825 5.3 L 73.075 5.3 Q 73.703 5.3 73.956 5.572 A 0.588 0.588 0 0 1 74.025 5.663 A 1.479 1.479 0 0 1 74.226 6.212 A 1.955 1.955 0 0 1 74.25 6.525 L 74.25 7.85 A 1.716 1.716 0 0 1 74.169 8.385 A 1.536 1.536 0 0 1 74.025 8.7 A 0.666 0.666 0 0 1 73.719 8.963 Q 73.487 9.068 73.124 9.075 A 2.706 2.706 0 0 1 73.075 9.075 L 70.825 9.075 Z M 29 8.275 L 29 13 A 1.061 1.061 0 0 0 29.022 13.221 A 0.82 0.82 0 0 0 29.1 13.438 Q 29.18 13.587 29.371 13.697 A 1.234 1.234 0 0 0 29.475 13.75 L 29.475 9 A 1.061 1.061 0 0 0 29.453 8.779 A 0.82 0.82 0 0 0 29.375 8.563 A 0.515 0.515 0 0 0 29.228 8.395 Q 29.165 8.346 29.081 8.308 A 1.085 1.085 0 0 0 29 8.275 Z M 49.925 8.275 L 49.925 13 A 1.061 1.061 0 0 0 49.947 13.221 A 0.82 0.82 0 0 0 50.025 13.438 Q 50.105 13.587 50.296 13.697 A 1.234 1.234 0 0 0 50.4 13.75 L 50.4 9 A 1.061 1.061 0 0 0 50.378 8.779 A 0.82 0.82 0 0 0 50.3 8.563 A 0.515 0.515 0 0 0 50.153 8.395 Q 50.09 8.346 50.006 8.308 A 1.085 1.085 0 0 0 49.925 8.275 Z" vector-effect="non-scaling-stroke"/></g></svg>