<svg width="197.43" height="26.37" viewBox="0 0 197.43 26.37" xmlns="http://www.w3.org/2000/svg"><g id="svgGroup" stroke-linecap="round" fill-rule="evenodd" font-size="9pt" stroke="#000000" stroke-width="1" fill="#000000" style="stroke:#000000;stroke-width:1;fill:#000000"><path d="M 182.13 22.35 L 196.05 22.35 A 1.555 1.555 0 0 0 196.478 22.297 Q 197.13 22.11 197.13 21.27 L 197.13 17.76 A 1.555 1.555 0 0 0 197.077 17.333 Q 196.89 16.68 196.05 16.68 L 187.77 16.68 L 187.77 14.1 L 193.62 14.1 A 1.555 1.555 0 0 0 194.048 14.047 Q 194.7 13.86 194.7 13.02 L 194.7 9.81 A 1.555 1.555 0 0 0 194.647 9.383 Q 194.46 8.73 193.62 8.73 L 187.77 8.73 L 187.77 6.42 L 196.05 6.42 A 1.555 1.555 0 0 0 196.478 6.367 Q 197.13 6.18 197.13 5.34 L 197.13 1.83 A 1.555 1.555 0 0 0 197.077 1.403 Q 196.89 0.75 196.05 0.75 L 182.13 0.75 A 1.555 1.555 0 0 0 181.703 0.804 Q 181.05 0.991 181.05 1.83 L 181.05 21.27 A 1.555 1.555 0 0 0 181.104 21.697 Q 181.291 22.35 182.13 22.35 Z M 165.06 25.92 L 157.26 25.92 Q 156.754 25.92 156.393 25.783 A 1.482 1.482 0 0 1 156.15 25.665 A 1.34 1.34 0 0 1 155.811 25.364 Q 155.612 25.121 155.46 24.75 L 152.52 17.4 A 143.035 143.035 0 0 1 152.349 16.955 Q 152.104 16.316 151.935 15.855 Q 151.71 15.24 151.62 14.61 A 7.701 7.701 0 0 1 151.567 14.115 Q 151.53 13.635 151.53 13.02 L 151.53 5.1 A 2.12 2.12 0 0 1 151.569 4.679 Q 151.658 4.24 151.95 3.99 L 155.82 0.72 A 1.068 1.068 0 0 1 156.166 0.535 Q 156.426 0.45 156.78 0.45 L 161.55 0.45 A 2.266 2.266 0 0 1 162.118 0.515 Q 163.02 0.749 163.02 1.83 L 163.02 10.11 A 2.634 2.634 0 0 0 163.041 10.45 A 2.15 2.15 0 0 0 163.08 10.665 A 13.844 13.844 0 0 0 163.138 10.903 Q 163.169 11.024 163.205 11.159 A 24.181 24.181 0 0 0 163.23 11.25 L 163.32 11.46 L 163.32 5.1 A 2.12 2.12 0 0 1 163.359 4.679 Q 163.448 4.24 163.74 3.99 L 167.61 0.72 A 1.068 1.068 0 0 1 167.956 0.535 Q 168.216 0.45 168.57 0.45 L 173.28 0.45 A 2.695 2.695 0 0 1 173.648 0.473 Q 174.114 0.538 174.345 0.78 A 0.991 0.991 0 0 1 174.553 1.124 Q 174.61 1.276 174.637 1.466 A 2.63 2.63 0 0 1 174.66 1.83 L 174.66 9.75 A 16.906 16.906 0 0 1 174.649 10.397 Q 174.628 10.936 174.57 11.34 Q 174.48 11.97 174.27 12.585 A 16.12 16.12 0 0 1 174.105 13.045 Q 173.926 13.52 173.67 14.13 L 170.73 21.48 A 1.738 1.738 0 0 1 170.612 21.757 A 1.396 1.396 0 0 1 170.49 21.945 A 3.9 3.9 0 0 1 170.321 22.15 A 3.121 3.121 0 0 1 170.19 22.29 L 166.32 25.5 Q 165.87 25.92 165.06 25.92 Z M 161.13 22.35 L 168.93 22.35 A 2.79 2.79 0 0 0 169.312 22.326 Q 169.653 22.278 169.89 22.14 A 1.047 1.047 0 0 0 170.185 21.876 Q 170.345 21.672 170.46 21.36 L 173.4 14.01 Q 173.76 13.11 173.97 12.51 Q 174.18 11.91 174.27 11.295 A 7.398 7.398 0 0 0 174.324 10.801 Q 174.36 10.339 174.36 9.75 L 174.36 1.83 A 1.555 1.555 0 0 0 174.307 1.403 Q 174.12 0.75 173.28 0.75 L 168.57 0.75 A 1.555 1.555 0 0 0 168.143 0.804 Q 167.49 0.991 167.49 1.83 L 167.49 10.08 Q 167.49 10.38 167.43 10.68 A 4.017 4.017 0 0 1 167.332 11.067 A 4.944 4.944 0 0 1 167.25 11.31 L 165.84 15.54 A 1.06 1.06 0 0 1 165.752 15.757 Q 165.588 16.05 165.27 16.05 L 164.94 16.05 Q 164.52 16.05 164.37 15.54 L 162.96 11.34 A 4.708 4.708 0 0 1 162.836 10.949 A 3.828 3.828 0 0 1 162.78 10.71 Q 162.72 10.41 162.72 10.11 L 162.72 1.83 A 1.427 1.427 0 0 0 162.658 1.39 Q 162.508 0.927 161.996 0.799 A 1.842 1.842 0 0 0 161.55 0.75 L 156.78 0.75 A 1.555 1.555 0 0 0 156.353 0.804 Q 155.7 0.991 155.7 1.83 L 155.7 9.75 A 15.913 15.913 0 0 0 155.712 10.378 Q 155.723 10.672 155.747 10.926 A 6.979 6.979 0 0 0 155.79 11.295 Q 155.88 11.91 156.09 12.51 Q 156.29 13.08 156.625 13.921 A 65.753 65.753 0 0 0 156.66 14.01 L 159.6 21.36 A 2.459 2.459 0 0 0 159.762 21.681 Q 159.953 21.996 160.2 22.14 A 1.424 1.424 0 0 0 160.58 22.29 Q 160.749 22.331 160.945 22.344 A 2.821 2.821 0 0 0 161.13 22.35 Z M 144.51 25.92 L 131.73 25.92 Q 130.35 25.92 130.35 24.54 L 130.35 20.97 A 2.12 2.12 0 0 1 130.389 20.549 Q 130.478 20.11 130.77 19.86 L 134.4 16.8 L 134.4 10.11 L 131.73 10.11 Q 130.35 10.11 130.35 8.73 L 130.35 5.1 A 2.12 2.12 0 0 1 130.389 4.679 Q 130.478 4.24 130.77 3.99 L 134.64 0.72 A 1.068 1.068 0 0 1 134.986 0.535 Q 135.246 0.45 135.6 0.45 L 148.38 0.45 Q 149.76 0.45 149.76 1.83 L 149.76 5.46 A 2.12 2.12 0 0 1 149.721 5.881 Q 149.632 6.32 149.34 6.57 L 145.77 9.57 L 145.77 16.32 L 148.38 16.32 Q 149.76 16.32 149.76 17.7 L 149.76 21.27 A 2.12 2.12 0 0 1 149.721 21.691 Q 149.632 22.13 149.34 22.38 L 145.44 25.62 A 0.92 0.92 0 0 1 145.093 25.833 Q 144.949 25.885 144.77 25.906 A 2.227 2.227 0 0 1 144.51 25.92 Z M 192.18 25.92 L 178.26 25.92 Q 176.88 25.92 176.88 24.54 L 176.88 5.1 A 2.12 2.12 0 0 1 176.919 4.679 Q 177.008 4.24 177.3 3.99 L 181.17 0.72 A 1.068 1.068 0 0 1 181.516 0.535 Q 181.776 0.45 182.13 0.45 L 196.05 0.45 Q 197.43 0.45 197.43 1.83 L 197.43 5.34 A 2.12 2.12 0 0 1 197.391 5.761 Q 197.302 6.2 197.01 6.45 L 194.43 8.58 Q 195 8.88 195 9.81 L 195 13.02 A 2.12 2.12 0 0 1 194.961 13.441 Q 194.872 13.88 194.58 14.13 L 191.91 16.38 L 196.05 16.38 Q 197.43 16.38 197.43 17.76 L 197.43 21.27 A 2.12 2.12 0 0 1 197.391 21.691 Q 197.302 22.13 197.01 22.38 L 193.11 25.62 A 0.92 0.92 0 0 1 192.763 25.833 Q 192.619 25.885 192.44 25.906 A 2.227 2.227 0 0 1 192.18 25.92 Z M 16.65 25.92 L 1.38 25.92 Q 0 25.92 0 24.54 L 0 5.1 A 2.12 2.12 0 0 1 0.039 4.679 Q 0.128 4.24 0.42 3.99 L 4.29 0.72 A 1.068 1.068 0 0 1 4.636 0.535 Q 4.896 0.45 5.25 0.45 L 9.9 0.45 Q 11.28 0.45 11.28 1.83 L 11.28 14.04 L 11.34 13.98 L 15.21 10.71 A 1.068 1.068 0 0 1 15.556 10.525 Q 15.816 10.44 16.17 10.44 L 20.52 10.44 Q 21.9 10.44 21.9 11.82 L 21.9 21.27 A 2.12 2.12 0 0 1 21.861 21.691 Q 21.772 22.13 21.48 22.38 L 17.58 25.62 A 0.92 0.92 0 0 1 17.233 25.833 Q 17.089 25.885 16.91 25.906 A 2.227 2.227 0 0 1 16.65 25.92 Z M 123.63 25.92 L 108.36 25.92 Q 106.98 25.92 106.98 24.54 L 106.98 5.1 A 2.12 2.12 0 0 1 107.019 4.679 Q 107.108 4.24 107.4 3.99 L 111.27 0.72 A 1.068 1.068 0 0 1 111.616 0.535 Q 111.876 0.45 112.23 0.45 L 116.88 0.45 Q 118.26 0.45 118.26 1.83 L 118.26 14.04 L 118.32 13.98 L 122.19 10.71 A 1.068 1.068 0 0 1 122.536 10.525 Q 122.796 10.44 123.15 10.44 L 127.5 10.44 Q 128.88 10.44 128.88 11.82 L 128.88 21.27 A 2.12 2.12 0 0 1 128.841 21.691 Q 128.752 22.13 128.46 22.38 L 124.56 25.62 A 0.92 0.92 0 0 1 124.213 25.833 Q 124.069 25.885 123.89 25.906 A 2.227 2.227 0 0 1 123.63 25.92 Z M 5.25 22.35 L 20.52 22.35 A 1.555 1.555 0 0 0 20.948 22.297 Q 21.6 22.11 21.6 21.27 L 21.6 11.82 A 1.555 1.555 0 0 0 21.547 11.393 Q 21.36 10.74 20.52 10.74 L 16.17 10.74 A 1.555 1.555 0 0 0 15.743 10.794 Q 15.09 10.981 15.09 11.82 L 15.09 16.68 L 10.98 16.68 L 10.98 1.83 A 1.555 1.555 0 0 0 10.927 1.403 Q 10.74 0.75 9.9 0.75 L 5.25 0.75 A 1.555 1.555 0 0 0 4.823 0.804 Q 4.17 0.991 4.17 1.83 L 4.17 21.27 A 1.555 1.555 0 0 0 4.224 21.697 Q 4.411 22.35 5.25 22.35 Z M 112.23 22.35 L 127.5 22.35 A 1.555 1.555 0 0 0 127.928 22.297 Q 128.58 22.11 128.58 21.27 L 128.58 11.82 A 1.555 1.555 0 0 0 128.527 11.393 Q 128.34 10.74 127.5 10.74 L 123.15 10.74 A 1.555 1.555 0 0 0 122.723 10.794 Q 122.07 10.981 122.07 11.82 L 122.07 16.68 L 117.96 16.68 L 117.96 1.83 A 1.555 1.555 0 0 0 117.907 1.403 Q 117.72 0.75 116.88 0.75 L 112.23 0.75 A 1.555 1.555 0 0 0 111.803 0.804 Q 111.15 0.991 111.15 1.83 L 111.15 21.27 A 1.555 1.555 0 0 0 111.204 21.697 Q 111.391 22.35 112.23 22.35 Z M 184.62 19.35 L 194.43 19.35 L 194.43 19.65 L 184.32 19.65 L 184.32 3.45 L 194.43 3.45 L 194.43 3.75 L 184.62 3.75 L 184.62 11.28 L 192 11.28 L 192 11.58 L 184.62 11.58 L 184.62 19.35 Z M 135.6 22.35 L 148.38 22.35 A 1.555 1.555 0 0 0 148.808 22.297 Q 149.46 22.11 149.46 21.27 L 149.46 17.7 A 1.555 1.555 0 0 0 149.407 17.273 Q 149.22 16.62 148.38 16.62 L 145.47 16.62 L 145.47 6.54 L 148.38 6.54 A 1.555 1.555 0 0 0 148.808 6.487 Q 149.46 6.3 149.46 5.46 L 149.46 1.83 A 1.555 1.555 0 0 0 149.407 1.403 Q 149.22 0.75 148.38 0.75 L 135.6 0.75 A 1.555 1.555 0 0 0 135.173 0.804 Q 134.52 0.991 134.52 1.83 L 134.52 5.46 A 1.555 1.555 0 0 0 134.574 5.887 Q 134.761 6.54 135.6 6.54 L 138.57 6.54 L 138.57 16.62 L 135.6 16.62 A 1.555 1.555 0 0 0 135.173 16.674 Q 134.52 16.861 134.52 17.7 L 134.52 21.27 A 1.555 1.555 0 0 0 134.574 21.697 Q 134.761 22.35 135.6 22.35 Z M 44.82 21.24 L 40.95 24.48 Q 40.106 25.204 38.729 25.665 A 11.237 11.237 0 0 1 38.025 25.875 Q 36.15 26.37 33.15 26.37 A 23.86 23.86 0 0 1 31.253 26.299 Q 30.304 26.223 29.498 26.066 A 10.574 10.574 0 0 1 28.32 25.77 A 9.735 9.735 0 0 1 27.021 25.259 Q 26.036 24.782 25.38 24.135 A 5.736 5.736 0 0 1 24.209 22.51 A 5.355 5.355 0 0 1 23.925 21.78 Q 23.52 20.46 23.52 19.05 L 23.52 9.72 A 8.869 8.869 0 0 1 23.651 8.17 A 7.264 7.264 0 0 1 23.91 7.14 Q 24.3 5.97 25.32 5.13 L 29.22 1.89 Q 30.064 1.166 31.442 0.705 A 11.237 11.237 0 0 1 32.145 0.495 Q 34.02 0 37.02 0 A 30.756 30.756 0 0 1 38.917 0.055 Q 39.843 0.112 40.633 0.23 A 13.234 13.234 0 0 1 41.85 0.465 A 10.42 10.42 0 0 1 43.048 0.833 Q 44.096 1.229 44.775 1.8 Q 45.81 2.67 46.215 3.855 A 7.572 7.572 0 0 1 46.586 5.654 A 9.182 9.182 0 0 1 46.62 6.45 L 46.62 16.68 A 8.528 8.528 0 0 1 46.483 18.239 A 7.098 7.098 0 0 1 46.23 19.215 A 4.438 4.438 0 0 1 45.138 20.947 A 5.454 5.454 0 0 1 44.82 21.24 Z M 69.93 21.24 L 66.06 24.48 Q 65.216 25.204 63.839 25.665 A 11.237 11.237 0 0 1 63.135 25.875 Q 61.26 26.37 58.26 26.37 A 23.86 23.86 0 0 1 56.363 26.299 Q 55.414 26.223 54.608 26.066 A 10.574 10.574 0 0 1 53.43 25.77 A 9.735 9.735 0 0 1 52.131 25.259 Q 51.146 24.782 50.49 24.135 A 5.736 5.736 0 0 1 49.319 22.51 A 5.355 5.355 0 0 1 49.035 21.78 Q 48.63 20.46 48.63 19.05 L 48.63 9.72 A 8.869 8.869 0 0 1 48.761 8.17 A 7.264 7.264 0 0 1 49.02 7.14 Q 49.41 5.97 50.43 5.13 L 54.33 1.89 Q 55.174 1.166 56.552 0.705 A 11.237 11.237 0 0 1 57.255 0.495 Q 59.13 0 62.13 0 A 30.756 30.756 0 0 1 64.027 0.055 Q 64.953 0.112 65.743 0.23 A 13.234 13.234 0 0 1 66.96 0.465 A 10.42 10.42 0 0 1 68.158 0.833 Q 69.206 1.229 69.885 1.8 Q 70.92 2.67 71.325 3.855 A 7.572 7.572 0 0 1 71.696 5.654 A 9.182 9.182 0 0 1 71.73 6.45 L 71.73 16.68 A 8.528 8.528 0 0 1 71.593 18.239 A 7.098 7.098 0 0 1 71.34 19.215 A 4.438 4.438 0 0 1 70.248 20.947 A 5.454 5.454 0 0 1 69.93 21.24 Z M 80.1 25.92 L 75.45 25.92 Q 74.07 25.92 74.07 24.54 L 74.07 5.1 A 2.12 2.12 0 0 1 74.109 4.679 Q 74.198 4.24 74.49 3.99 L 78.36 0.72 A 1.068 1.068 0 0 1 78.706 0.535 Q 78.966 0.45 79.32 0.45 L 88.5 0.45 A 17.194 17.194 0 0 1 90.176 0.526 Q 91.853 0.691 92.948 1.212 A 5.1 5.1 0 0 1 92.985 1.23 Q 94.59 2.01 95.235 3.39 Q 95.88 4.77 95.88 6.6 L 95.88 10.44 A 8.889 8.889 0 0 1 95.752 11.979 A 7.21 7.21 0 0 1 95.475 13.065 Q 95.07 14.25 94.08 15.09 L 90.18 18.33 Q 89.43 18.96 88.245 19.365 Q 87.271 19.698 85.943 19.798 A 14.872 14.872 0 0 1 85.35 19.83 L 85.35 21.27 A 2.12 2.12 0 0 1 85.311 21.691 Q 85.222 22.13 84.93 22.38 L 81.03 25.62 A 0.92 0.92 0 0 1 80.683 25.833 Q 80.539 25.885 80.36 25.906 A 2.227 2.227 0 0 1 80.1 25.92 Z M 159.09 3.45 L 159.39 3.45 L 159.39 9.93 A 9.187 9.187 0 0 0 159.476 11.217 Q 159.571 11.889 159.772 12.461 A 5.366 5.366 0 0 0 159.87 12.72 L 161.85 17.52 A 9.527 9.527 0 0 0 162.134 18.133 Q 162.332 18.522 162.54 18.825 A 1.14 1.14 0 0 0 163.178 19.276 Q 163.379 19.336 163.624 19.347 A 2.531 2.531 0 0 0 163.74 19.35 L 166.38 19.35 A 2.258 2.258 0 0 0 166.829 19.309 Q 167.351 19.202 167.61 18.825 A 5.021 5.021 0 0 0 167.914 18.317 Q 168.054 18.048 168.185 17.734 A 8.961 8.961 0 0 0 168.27 17.52 L 170.25 12.72 Q 170.696 11.632 170.728 10.156 A 10.619 10.619 0 0 0 170.73 9.93 L 170.73 3.45 L 171.03 3.45 L 171.03 9.93 Q 171.03 10.77 170.925 11.475 Q 170.82 12.18 170.55 12.84 L 168.57 17.64 A 8.135 8.135 0 0 1 168.253 18.321 Q 168.083 18.643 167.899 18.909 A 4.513 4.513 0 0 1 167.775 19.08 A 1.363 1.363 0 0 1 167.074 19.556 Q 166.846 19.627 166.57 19.644 A 2.976 2.976 0 0 1 166.38 19.65 L 163.74 19.65 Q 163.025 19.65 162.594 19.313 A 1.378 1.378 0 0 1 162.36 19.08 Q 161.91 18.51 161.55 17.64 L 159.57 12.84 Q 159.3 12.18 159.195 11.475 A 9.444 9.444 0 0 1 159.11 10.639 A 12.085 12.085 0 0 1 159.09 9.93 L 159.09 3.45 Z M 79.32 22.35 L 83.97 22.35 A 1.555 1.555 0 0 0 84.398 22.297 Q 85.05 22.11 85.05 21.27 L 85.05 16.29 L 88.5 16.29 Q 91.23 16.29 92.775 15.555 Q 94.32 14.82 94.95 13.5 A 6.347 6.347 0 0 0 95.484 11.735 A 8.393 8.393 0 0 0 95.58 10.44 L 95.58 6.6 A 8.182 8.182 0 0 0 95.442 5.061 A 6.236 6.236 0 0 0 94.95 3.54 A 4.07 4.07 0 0 0 93.572 1.945 A 5.554 5.554 0 0 0 92.775 1.485 A 6.404 6.404 0 0 0 91.512 1.052 Q 90.249 0.75 88.5 0.75 L 79.32 0.75 A 1.555 1.555 0 0 0 78.893 0.804 Q 78.24 0.991 78.24 1.83 L 78.24 21.27 A 1.555 1.555 0 0 0 78.294 21.697 Q 78.481 22.35 79.32 22.35 Z M 46.32 16.68 L 46.32 6.45 A 8.132 8.132 0 0 0 46.196 4.998 A 6.556 6.556 0 0 0 45.915 3.945 A 4.229 4.229 0 0 0 44.75 2.231 A 5.17 5.17 0 0 0 44.49 2.01 Q 43.47 1.2 41.655 0.75 Q 39.84 0.3 37.02 0.3 Q 35.039 0.3 33.553 0.522 A 12.628 12.628 0 0 0 32.385 0.75 A 10.683 10.683 0 0 0 31.231 1.102 Q 30.646 1.32 30.176 1.589 A 5.001 5.001 0 0 0 29.55 2.01 A 4.68 4.68 0 0 0 28.532 3.11 A 4.203 4.203 0 0 0 28.11 3.945 A 6.62 6.62 0 0 0 27.74 5.531 A 8.272 8.272 0 0 0 27.69 6.45 L 27.69 16.68 A 7.839 7.839 0 0 0 27.822 18.147 A 6.364 6.364 0 0 0 28.11 19.185 A 4.346 4.346 0 0 0 29.305 20.913 A 5.269 5.269 0 0 0 29.55 21.12 A 5.251 5.251 0 0 0 30.51 21.716 Q 31.008 21.96 31.616 22.153 A 11.195 11.195 0 0 0 32.385 22.365 Q 33.698 22.68 35.536 22.767 A 31.421 31.421 0 0 0 37.02 22.8 Q 39.002 22.8 40.487 22.585 A 13.016 13.016 0 0 0 41.655 22.365 A 10.46 10.46 0 0 0 42.809 22.022 Q 43.394 21.808 43.864 21.54 A 4.914 4.914 0 0 0 44.49 21.12 A 4.597 4.597 0 0 0 45.474 20.063 A 4.086 4.086 0 0 0 45.915 19.185 A 6.821 6.821 0 0 0 46.271 17.609 A 8.567 8.567 0 0 0 46.32 16.68 Z M 71.43 16.68 L 71.43 6.45 A 8.132 8.132 0 0 0 71.306 4.998 A 6.556 6.556 0 0 0 71.025 3.945 A 4.229 4.229 0 0 0 69.86 2.231 A 5.17 5.17 0 0 0 69.6 2.01 Q 68.58 1.2 66.765 0.75 Q 64.95 0.3 62.13 0.3 Q 60.149 0.3 58.663 0.522 A 12.628 12.628 0 0 0 57.495 0.75 A 10.683 10.683 0 0 0 56.341 1.102 Q 55.756 1.32 55.286 1.589 A 5.001 5.001 0 0 0 54.66 2.01 A 4.68 4.68 0 0 0 53.642 3.11 A 4.203 4.203 0 0 0 53.22 3.945 A 6.62 6.62 0 0 0 52.85 5.531 A 8.272 8.272 0 0 0 52.8 6.45 L 52.8 16.68 A 7.839 7.839 0 0 0 52.932 18.147 A 6.364 6.364 0 0 0 53.22 19.185 A 4.346 4.346 0 0 0 54.415 20.913 A 5.269 5.269 0 0 0 54.66 21.12 A 5.251 5.251 0 0 0 55.62 21.716 Q 56.118 21.96 56.726 22.153 A 11.195 11.195 0 0 0 57.495 22.365 Q 58.808 22.68 60.646 22.767 A 31.421 31.421 0 0 0 62.13 22.8 Q 64.112 22.8 65.597 22.585 A 13.016 13.016 0 0 0 66.765 22.365 A 10.46 10.46 0 0 0 67.919 22.022 Q 68.504 21.808 68.974 21.54 A 4.914 4.914 0 0 0 69.6 21.12 A 4.597 4.597 0 0 0 70.584 20.063 A 4.086 4.086 0 0 0 71.025 19.185 A 6.821 6.821 0 0 0 71.381 17.609 A 8.567 8.567 0 0 0 71.43 16.68 Z M 137.22 3.75 L 137.22 3.45 L 146.76 3.45 L 146.76 3.75 L 142.17 3.75 L 142.17 19.35 L 146.76 19.35 L 146.76 19.65 L 137.22 19.65 L 137.22 19.35 L 141.87 19.35 L 141.87 3.75 L 137.22 3.75 Z M 18.18 13.44 L 18.48 13.44 L 18.48 19.65 L 7.44 19.65 L 7.44 3.45 L 7.74 3.45 L 7.74 19.35 L 18.18 19.35 L 18.18 13.44 Z M 125.16 13.44 L 125.46 13.44 L 125.46 19.65 L 114.42 19.65 L 114.42 3.45 L 114.72 3.45 L 114.72 19.35 L 125.16 19.35 L 125.16 13.44 Z M 88.08 13.74 L 81.9 13.74 L 81.9 19.65 L 81.6 19.65 L 81.6 3.45 L 88.08 3.45 Q 89.853 3.45 90.821 3.925 A 2.839 2.839 0 0 1 90.945 3.99 A 3.188 3.188 0 0 1 91.653 4.512 A 2.492 2.492 0 0 1 92.25 5.445 A 5.426 5.426 0 0 1 92.517 6.555 A 7.215 7.215 0 0 1 92.58 7.53 L 92.58 9.75 A 7.078 7.078 0 0 1 92.508 10.788 A 5.214 5.214 0 0 1 92.25 11.82 Q 91.92 12.72 90.945 13.23 A 3.641 3.641 0 0 1 90.187 13.515 Q 89.335 13.74 88.08 13.74 Z M 30.93 15.99 L 30.93 7.14 A 4.843 4.843 0 0 1 31.044 6.068 A 3.715 3.715 0 0 1 31.455 5.01 A 2.767 2.767 0 0 1 32.179 4.208 Q 32.51 3.954 32.945 3.751 A 5.633 5.633 0 0 1 33.3 3.6 Q 34.593 3.101 36.863 3.09 A 21.173 21.173 0 0 1 36.96 3.09 A 17.804 17.804 0 0 1 38.331 3.139 Q 39.629 3.24 40.503 3.546 A 4.91 4.91 0 0 1 40.65 3.6 A 5.032 5.032 0 0 1 41.465 3.997 Q 42.156 4.419 42.51 5.01 A 3.749 3.749 0 0 1 42.992 6.368 A 4.943 4.943 0 0 1 43.05 7.14 L 43.05 15.99 A 4.53 4.53 0 0 1 42.907 17.152 A 3.754 3.754 0 0 1 42.51 18.105 Q 42.034 18.911 40.954 19.403 A 5.65 5.65 0 0 1 40.65 19.53 A 6.223 6.223 0 0 1 39.645 19.815 Q 38.534 20.04 36.96 20.04 A 17.397 17.397 0 0 1 35.597 19.99 Q 34.257 19.885 33.365 19.554 A 4.844 4.844 0 0 1 33.3 19.53 A 4.872 4.872 0 0 1 32.487 19.132 Q 31.8 18.706 31.455 18.105 A 3.954 3.954 0 0 1 30.967 16.607 A 5.014 5.014 0 0 1 30.93 15.99 Z M 56.04 15.99 L 56.04 7.14 A 4.843 4.843 0 0 1 56.154 6.068 A 3.715 3.715 0 0 1 56.565 5.01 A 2.767 2.767 0 0 1 57.289 4.208 Q 57.62 3.954 58.055 3.751 A 5.633 5.633 0 0 1 58.41 3.6 Q 59.703 3.101 61.973 3.09 A 21.173 21.173 0 0 1 62.07 3.09 A 17.804 17.804 0 0 1 63.441 3.139 Q 64.739 3.24 65.613 3.546 A 4.91 4.91 0 0 1 65.76 3.6 A 5.032 5.032 0 0 1 66.575 3.997 Q 67.266 4.419 67.62 5.01 A 3.749 3.749 0 0 1 68.102 6.368 A 4.943 4.943 0 0 1 68.16 7.14 L 68.16 15.99 A 4.53 4.53 0 0 1 68.017 17.152 A 3.754 3.754 0 0 1 67.62 18.105 Q 67.144 18.911 66.064 19.403 A 5.65 5.65 0 0 1 65.76 19.53 A 6.223 6.223 0 0 1 64.755 19.815 Q 63.644 20.04 62.07 20.04 A 17.397 17.397 0 0 1 60.707 19.99 Q 59.367 19.885 58.475 19.554 A 4.844 4.844 0 0 1 58.41 19.53 A 4.872 4.872 0 0 1 57.597 19.132 Q 56.91 18.706 56.565 18.105 A 3.954 3.954 0 0 1 56.077 16.607 A 5.014 5.014 0 0 1 56.04 15.99 Z M 42.75 15.99 L 42.75 7.14 A 4.301 4.301 0 0 0 42.638 6.137 A 3.389 3.389 0 0 0 42.24 5.16 Q 41.81 4.451 40.846 4.01 A 5.34 5.34 0 0 0 40.47 3.855 Q 39.266 3.411 37.157 3.391 A 21.143 21.143 0 0 0 36.96 3.39 A 17.201 17.201 0 0 0 35.666 3.435 Q 34.396 3.532 33.546 3.831 A 4.793 4.793 0 0 0 33.48 3.855 A 4.728 4.728 0 0 0 32.736 4.201 Q 32.334 4.434 32.054 4.728 A 2.357 2.357 0 0 0 31.725 5.16 A 3.538 3.538 0 0 0 31.283 6.424 A 4.643 4.643 0 0 0 31.23 7.14 L 31.23 15.99 A 4.236 4.236 0 0 0 31.37 17.097 A 3.549 3.549 0 0 0 31.725 17.955 A 2.552 2.552 0 0 0 32.425 18.723 Q 32.738 18.955 33.146 19.139 A 5.229 5.229 0 0 0 33.48 19.275 Q 34.74 19.74 36.96 19.74 A 17.606 17.606 0 0 0 38.268 19.695 Q 39.498 19.603 40.33 19.324 A 4.852 4.852 0 0 0 40.47 19.275 A 4.659 4.659 0 0 0 41.244 18.912 Q 41.657 18.665 41.943 18.353 A 2.437 2.437 0 0 0 42.24 17.955 A 3.617 3.617 0 0 0 42.726 16.463 A 4.497 4.497 0 0 0 42.75 15.99 Z M 67.86 15.99 L 67.86 7.14 A 4.301 4.301 0 0 0 67.748 6.137 A 3.389 3.389 0 0 0 67.35 5.16 Q 66.92 4.451 65.956 4.01 A 5.34 5.34 0 0 0 65.58 3.855 Q 64.376 3.411 62.267 3.391 A 21.143 21.143 0 0 0 62.07 3.39 A 17.201 17.201 0 0 0 60.776 3.435 Q 59.506 3.532 58.656 3.831 A 4.793 4.793 0 0 0 58.59 3.855 A 4.728 4.728 0 0 0 57.846 4.201 Q 57.444 4.434 57.164 4.728 A 2.357 2.357 0 0 0 56.835 5.16 A 3.538 3.538 0 0 0 56.393 6.424 A 4.643 4.643 0 0 0 56.34 7.14 L 56.34 15.99 A 4.236 4.236 0 0 0 56.48 17.097 A 3.549 3.549 0 0 0 56.835 17.955 A 2.552 2.552 0 0 0 57.535 18.723 Q 57.848 18.955 58.256 19.139 A 5.229 5.229 0 0 0 58.59 19.275 Q 59.85 19.74 62.07 19.74 A 17.606 17.606 0 0 0 63.378 19.695 Q 64.608 19.603 65.44 19.324 A 4.852 4.852 0 0 0 65.58 19.275 A 4.659 4.659 0 0 0 66.354 18.912 Q 66.767 18.665 67.053 18.353 A 2.437 2.437 0 0 0 67.35 17.955 A 3.617 3.617 0 0 0 67.836 16.463 A 4.497 4.497 0 0 0 67.86 15.99 Z M 81.9 13.44 L 88.08 13.44 Q 89.661 13.44 90.548 13.069 A 2.764 2.764 0 0 0 90.75 12.975 A 2.801 2.801 0 0 0 91.416 12.506 A 2.243 2.243 0 0 0 91.965 11.67 A 4.822 4.822 0 0 0 92.22 10.649 A 6.425 6.425 0 0 0 92.28 9.75 L 92.28 7.53 A 6.37 6.37 0 0 0 92.201 6.506 A 4.914 4.914 0 0 0 91.965 5.595 A 2.421 2.421 0 0 0 91.07 4.446 A 3.229 3.229 0 0 0 90.75 4.245 A 3.259 3.259 0 0 0 90.038 3.966 Q 89.327 3.772 88.309 3.752 A 12.055 12.055 0 0 0 88.08 3.75 L 81.9 3.75 L 81.9 13.44 Z M 34.5 15.6 L 34.5 7.53 A 1.303 1.303 0 0 1 34.62 6.967 A 1.296 1.296 0 0 1 34.95 6.54 A 1.05 1.05 0 0 1 35.266 6.363 Q 35.77 6.171 36.795 6.152 A 12.445 12.445 0 0 1 37.02 6.15 A 10.851 10.851 0 0 1 37.683 6.169 Q 38.643 6.228 39.019 6.474 A 0.722 0.722 0 0 1 39.105 6.54 A 1.262 1.262 0 0 1 39.538 7.456 A 1.603 1.603 0 0 1 39.54 7.53 L 39.54 15.6 A 1.354 1.354 0 0 1 39.403 16.213 A 1.371 1.371 0 0 1 39.105 16.605 Q 38.701 16.981 37.25 17.008 A 12.412 12.412 0 0 1 37.02 17.01 A 10.123 10.123 0 0 1 36.367 16.991 Q 35.302 16.921 34.95 16.605 A 1.341 1.341 0 0 1 34.596 16.112 A 1.346 1.346 0 0 1 34.5 15.6 Z M 59.61 15.6 L 59.61 7.53 A 1.303 1.303 0 0 1 59.73 6.967 A 1.296 1.296 0 0 1 60.06 6.54 A 1.05 1.05 0 0 1 60.376 6.363 Q 60.88 6.171 61.905 6.152 A 12.445 12.445 0 0 1 62.13 6.15 A 10.851 10.851 0 0 1 62.793 6.169 Q 63.753 6.228 64.129 6.474 A 0.722 0.722 0 0 1 64.215 6.54 A 1.262 1.262 0 0 1 64.648 7.456 A 1.603 1.603 0 0 1 64.65 7.53 L 64.65 15.6 A 1.354 1.354 0 0 1 64.513 16.213 A 1.371 1.371 0 0 1 64.215 16.605 Q 63.811 16.981 62.36 17.008 A 12.412 12.412 0 0 1 62.13 17.01 A 10.123 10.123 0 0 1 61.477 16.991 Q 60.412 16.921 60.06 16.605 A 1.341 1.341 0 0 1 59.706 16.112 A 1.346 1.346 0 0 1 59.61 15.6 Z M 84.99 10.89 L 84.99 6.36 L 87.69 6.36 A 2.695 2.695 0 0 1 88.076 6.386 Q 88.528 6.451 88.747 6.686 A 0.706 0.706 0 0 1 88.83 6.795 A 1.775 1.775 0 0 1 89.071 7.454 A 2.345 2.345 0 0 1 89.1 7.83 L 89.1 9.42 A 2.059 2.059 0 0 1 89.002 10.062 A 1.843 1.843 0 0 1 88.83 10.44 Q 88.569 10.875 87.749 10.89 A 3.247 3.247 0 0 1 87.69 10.89 L 84.99 10.89 Z M 34.8 9.93 L 34.8 15.6 Q 34.8 15.9 34.92 16.125 Q 35.016 16.305 35.245 16.436 A 1.481 1.481 0 0 0 35.37 16.5 L 35.37 10.8 Q 35.37 10.5 35.25 10.275 A 0.618 0.618 0 0 0 35.074 10.074 Q 34.997 10.016 34.897 9.969 A 1.302 1.302 0 0 0 34.8 9.93 Z M 59.91 9.93 L 59.91 15.6 Q 59.91 15.9 60.03 16.125 Q 60.126 16.305 60.355 16.436 A 1.481 1.481 0 0 0 60.48 16.5 L 60.48 10.8 Q 60.48 10.5 60.36 10.275 A 0.618 0.618 0 0 0 60.184 10.074 Q 60.107 10.016 60.007 9.969 A 1.302 1.302 0 0 0 59.91 9.93 Z" vector-effect="non-scaling-stroke"/></g></svg>