<svg xmlns="http://www.w3.org/2000/svg" fill="#f72003" class="bi bi-youtube" viewBox="0 0 50 50" id="Youtube--Streamline-Bootstrap" height="50" width="50"><desc>Youtube Streamline Icon: https://streamlinehq.com</desc><path d="M25.159375 6.246875h0.278125c2.5687499999999996 0.009375 15.584375 0.10312500000000001 19.09375 1.046875a6.281249999999999 6.281249999999999 0 0 1 4.421875 4.4375c0.31562500000000004 1.1875 0.5375 2.759375 0.6875 4.38125l0.03125 0.325 0.06874999999999999 0.8125 0.025 0.325c0.203125 2.85625 0.228125 5.53125 0.23124999999999998 6.1156250000000005v0.234375c-0.003125 0.6062500000000001 -0.03125 3.4625000000000004 -0.25625000000000003 6.4375l-0.025 0.328125 -0.028124999999999997 0.325c-0.15625 1.7874999999999999 -0.3875 3.5624999999999996 -0.734375 4.86875a6.281249999999999 6.281249999999999 0 0 1 -4.421875 4.4375c-3.6249999999999996 0.975 -17.403125 1.04375 -19.3125 1.046875h-0.44375c-0.965625 0 -4.959375 -0.01875 -9.146875 -0.1625l-0.53125 -0.01875 -0.271875 -0.0125 -0.534375 -0.021875000000000002 -0.534375 -0.021875000000000002c-3.4687500000000004 -0.153125 -6.771875 -0.4 -8.29375 -0.8125a6.281249999999999 6.281249999999999 0 0 1 -4.421875 -4.434375c-0.346875 -1.3031249999999999 -0.578125 -3.08125 -0.734375 -4.86875L0.28125 30.6875l-0.025 -0.325A96.875 96.875 0 0 1 0 24v-0.384375c0.00625 -0.671875 0.03125 -2.99375 0.2 -5.55625l0.021875000000000002 -0.32187499999999997 0.009375 -0.1625 0.025 -0.325 0.06874999999999999 -0.8125 0.03125 -0.325c0.15 -1.621875 0.37187499999999996 -3.196875 0.6875 -4.38125a6.281249999999999 6.281249999999999 0 0 1 4.421875 -4.4375c1.5218749999999999 -0.40625 4.825 -0.65625 8.29375 -0.8125l0.53125 -0.021875000000000002 0.5375 -0.01875 0.26875 -0.009375 0.534375 -0.021875000000000002A312.5 312.5 0 0 1 24.55625 6.25zM20 16.278125v15.056249999999999l12.990625 -7.5249999999999995z" stroke-width="3.125"></path></svg>